WixMadeforDisplay-Medium.ufo
<glyph name="exclam" format="2">
	<unicode hex="0021"/>
	<advance width="235"/>
	<outline>
		<contour>
			<point x="182" y="54" type="curve" smooth="yes"/>
			<point x="182" y="90"/>
			<point x="153" y="118"/>
			<point x="117" y="118" type="curve" smooth="yes"/>
			<point x="81" y="118"/>
			<point x="53" y="90"/>
			<point x="53" y="54" type="curve" smooth="yes"/>
			<point x="53" y="18"/>
			<point x="81" y="-10"/>
			<point x="117" y="-10" type="curve" smooth="yes"/>
			<point x="153" y="-10"/>
			<point x="182" y="18"/>
		</contour>
		<contour>
			<point x="143" y="210" type="line"/>
			<point x="149" y="278"/>
			<point x="172" y="656"/>
			<point x="172" y="678" type="curve" smooth="yes"/>
			<point x="172" y="708"/>
			<point x="148" y="731"/>
			<point x="117" y="731" type="curve" smooth="yes"/>
			<point x="87" y="731"/>
			<point x="63" y="708"/>
			<point x="63" y="678" type="curve" smooth="yes"/>
			<point x="63" y="656"/>
			<point x="86" y="278"/>
			<point x="91" y="210" type="curve"/>
		</contour>
	</outline>
</glyph>
<glyph name="numbersign" format="2">
	<unicode hex="0023"/>
	<advance width="674"/>
	<outline>
		<contour>
			<point x="431" y="0" type="line"/>
			<point x="583" y="715" type="line"/>
			<point x="501" y="715" type="line"/>
			<point x="349" y="0" type="line"/>
		</contour>
		<contour>
			<point x="563" y="190" type="line"/>
			<point x="578" y="261" type="line"/>
			<point x="55" y="261" type="line"/>
			<point x="40" y="190" type="line"/>
		</contour>
		<contour>
			<point x="243" y="715" type="line"/>
			<point x="91" y="0" type="line"/>
			<point x="173" y="0" type="line"/>
			<point x="325" y="715" type="line"/>
		</contour>
		<contour>
			<point x="111" y="525" type="line"/>
			<point x="96" y="454" type="line"/>
			<point x="619" y="454" type="line"/>
			<point x="634" y="525" type="line"/>
		</contour>
	</outline>
</glyph>
<glyph name="dollar" format="2">
	<unicode hex="0024"/>
	<advance width="660"/>
	<outline>
		<contour>
			<point x="57" y="122" type="line"/>
			<point x="123" y="42"/>
			<point x="219" y="-6"/>
			<point x="337" y="-6" type="curve" smooth="yes"/>
			<point x="487" y="-6"/>
			<point x="606" y="80"/>
			<point x="606" y="204" type="curve" smooth="yes"/>
			<point x="606" y="319"/>
			<point x="528" y="380"/>
			<point x="336" y="408" type="curve" smooth="yes"/>
			<point x="218" y="427"/>
			<point x="170" y="459"/>
			<point x="170" y="525" type="curve" smooth="yes"/>
			<point x="170" y="595"/>
			<point x="236" y="644"/>
			<point x="334" y="644" type="curve" smooth="yes"/>
			<point x="409" y="644"/>
			<point x="476" y="603"/>
			<point x="523" y="533" type="curve"/>
			<point x="586" y="593" type="line"/>
			<point x="523" y="673"/>
			<point x="433" y="721"/>
			<point x="333" y="721" type="curve" smooth="yes"/>
			<point x="190" y="721"/>
			<point x="82" y="637"/>
			<point x="82" y="522" type="curve" smooth="yes"/>
			<point x="82" y="413"/>
			<point x="155" y="356"/>
			<point x="331" y="329" type="curve" smooth="yes"/>
			<point x="465" y="308"/>
			<point x="519" y="272"/>
			<point x="519" y="202" type="curve" smooth="yes"/>
			<point x="519" y="123"/>
			<point x="440" y="71"/>
			<point x="336" y="71" type="curve" smooth="yes"/>
			<point x="245" y="71"/>
			<point x="172" y="112"/>
			<point x="120" y="182" type="curve"/>
		</contour>
		<contour>
			<point x="372" y="375" type="line"/>
			<point x="372" y="831" type="line"/>
			<point x="306" y="831" type="line"/>
			<point x="306" y="375" type="line"/>
		</contour>
		<contour>
			<point x="371" y="-116" type="line"/>
			<point x="371" y="365" type="line"/>
			<point x="305" y="365" type="line"/>
			<point x="305" y="-116" type="line"/>
		</contour>
	</outline>
</glyph>
<glyph name="ampersand" format="1">
  <advance width="687"/>
  <unicode hex="0026"/>
  <outline>
    <contour>
      <point x="658" y="300" type="line"/>
      <point x="590" y="349" type="line"/>
      <point x="471" y="186" type="line" smooth="yes"/>
      <point x="402" y="91"/>
      <point x="346" y="62"/>
      <point x="280" y="62" type="curve" smooth="yes"/>
      <point x="195" y="62"/>
      <point x="140" y="119"/>
      <point x="140" y="192" type="curve" smooth="yes"/>
      <point x="140" y="262"/>
      <point x="186" y="316"/>
      <point x="287" y="353" type="curve"/>
      <point x="264" y="414" type="line"/>
      <point x="116" y="367"/>
      <point x="42" y="291"/>
      <point x="42" y="184" type="curve" smooth="yes"/>
      <point x="42" y="72"/>
      <point x="132" y="-16"/>
      <point x="275" y="-16" type="curve" smooth="yes"/>
      <point x="375" y="-16"/>
      <point x="451" y="24"/>
      <point x="536" y="133" type="curve" smooth="yes"/>
    </contour>
    <contour>
      <point x="679" y="53" type="line"/>
      <point x="325" y="383" type="line"/>
      <point x="307" y="398" type="line"/>
      <point x="231" y="462"/>
      <point x="202" y="505"/>
      <point x="202" y="554" type="curve" smooth="yes"/>
      <point x="202" y="611"/>
      <point x="248" y="655"/>
      <point x="304" y="655" type="curve" smooth="yes"/>
      <point x="364" y="655"/>
      <point x="407" y="612"/>
      <point x="407" y="553" type="curve" smooth="yes"/>
      <point x="407" y="485"/>
      <point x="353" y="443"/>
      <point x="271" y="415" type="curve"/>
      <point x="299" y="355" type="line"/>
      <point x="410" y="392"/>
      <point x="496" y="460"/>
      <point x="496" y="559" type="curve" smooth="yes"/>
      <point x="496" y="653"/>
      <point x="413" y="731"/>
      <point x="304" y="731" type="curve" smooth="yes"/>
      <point x="195" y="731"/>
      <point x="111" y="653"/>
      <point x="111" y="560" type="curve" smooth="yes"/>
      <point x="111" y="494"/>
      <point x="139" y="443"/>
      <point x="231" y="357" type="curve"/>
      <point x="246" y="344" type="line"/>
      <point x="619" y="-9" type="line"/>
    </contour>
  </outline>
</glyph>
<glyph name="quotesingle" format="2">
	<unicode hex="0027"/>
	<advance width="235"/>
	<outline>
		<contour>
			<point x="137" y="499" type="line"/>
			<point x="154" y="576"/>
			<point x="167" y="660"/>
			<point x="167" y="687" type="curve" smooth="yes"/>
			<point x="167" y="718"/>
			<point x="145" y="740"/>
			<point x="118" y="740" type="curve" smooth="yes"/>
			<point x="90" y="740"/>
			<point x="68" y="718"/>
			<point x="68" y="687" type="curve" smooth="yes"/>
			<point x="68" y="660"/>
			<point x="82" y="576"/>
			<point x="98" y="499" type="curve"/>
		</contour>
	</outline>
</glyph>
<glyph name="parenleft" format="2">
	<unicode hex="0028"/>
	<advance width="325"/>
	<outline>
		<contour>
			<point x="57" y="301" type="curve" smooth="yes"/>
			<point x="57" y="141"/>
			<point x="107" y="-7"/>
			<point x="200" y="-129" type="curve"/>
			<point x="289" y="-129" type="line"/>
			<point x="194" y="10"/>
			<point x="147" y="151"/>
			<point x="147" y="301" type="curve" smooth="yes"/>
			<point x="147" y="451"/>
			<point x="194" y="592"/>
			<point x="289" y="731" type="curve"/>
			<point x="200" y="731" type="line"/>
			<point x="107" y="609"/>
			<point x="57" y="461"/>
		</contour>
	</outline>
</glyph>
<glyph name="parenright" format="1">
  <advance width="325"/>
  <unicode hex="0029"/>
  <outline>
    <contour>
      <point x="268" y="301" type="curve" smooth="yes"/>
      <point x="268" y="461"/>
      <point x="218" y="609"/>
      <point x="125" y="731" type="curve"/>
      <point x="35" y="731" type="line"/>
      <point x="130" y="592"/>
      <point x="178" y="451"/>
      <point x="178" y="301" type="curve" smooth="yes"/>
      <point x="178" y="151"/>
      <point x="130" y="10"/>
      <point x="35" y="-129" type="curve"/>
      <point x="125" y="-129" type="line"/>
      <point x="218" y="-7"/>
      <point x="268" y="141"/>
    </contour>
  </outline>
</glyph>
<glyph name="asterisk" format="1">
  <advance width="421"/>
  <unicode hex="002A"/>
  <outline>
    <contour>
      <point x="211" y="496" type="curve"/>
      <point x="235" y="436"/>
      <point x="255" y="398"/>
      <point x="267" y="382" type="curve" smooth="yes"/>
      <point x="277" y="367"/>
      <point x="290" y="360"/>
      <point x="303" y="360" type="curve" smooth="yes"/>
      <point x="326" y="360"/>
      <point x="346" y="380"/>
      <point x="346" y="401" type="curve" smooth="yes"/>
      <point x="346" y="411"/>
      <point x="342" y="422"/>
      <point x="334" y="432" type="curve" smooth="yes"/>
      <point x="323" y="448"/>
      <point x="295" y="479"/>
      <point x="245" y="519" type="curve"/>
      <point x="310" y="525"/>
      <point x="345" y="532"/>
      <point x="364" y="538" type="curve" smooth="yes"/>
      <point x="385" y="545"/>
      <point x="397" y="560"/>
      <point x="397" y="578" type="curve" smooth="yes"/>
      <point x="397" y="604"/>
      <point x="380" y="621"/>
      <point x="357" y="621" type="curve" smooth="yes"/>
      <point x="349" y="621"/>
      <point x="342" y="620"/>
      <point x="332" y="616" type="curve" smooth="yes"/>
      <point x="312" y="609"/>
      <point x="284" y="595"/>
      <point x="232" y="560" type="curve"/>
      <point x="248" y="623"/>
      <point x="253" y="665"/>
      <point x="253" y="685" type="curve" smooth="yes"/>
      <point x="253" y="714"/>
      <point x="237" y="731"/>
      <point x="211" y="731" type="curve" smooth="yes"/>
      <point x="185" y="731"/>
      <point x="168" y="714"/>
      <point x="168" y="685" type="curve" smooth="yes"/>
      <point x="168" y="665"/>
      <point x="174" y="623"/>
      <point x="189" y="560" type="curve"/>
      <point x="138" y="595"/>
      <point x="109" y="609"/>
      <point x="90" y="616" type="curve" smooth="yes"/>
      <point x="80" y="620"/>
      <point x="73" y="621"/>
      <point x="65" y="621" type="curve" smooth="yes"/>
      <point x="41" y="621"/>
      <point x="25" y="604"/>
      <point x="25" y="578" type="curve" smooth="yes"/>
      <point x="25" y="560"/>
      <point x="36" y="545"/>
      <point x="58" y="538" type="curve" smooth="yes"/>
      <point x="76" y="532"/>
      <point x="112" y="525"/>
      <point x="176" y="519" type="curve"/>
      <point x="127" y="479"/>
      <point x="98" y="448"/>
      <point x="87" y="432" type="curve" smooth="yes"/>
      <point x="80" y="422"/>
      <point x="75" y="411"/>
      <point x="75" y="401" type="curve" smooth="yes"/>
      <point x="75" y="380"/>
      <point x="96" y="360"/>
      <point x="118" y="360" type="curve" smooth="yes"/>
      <point x="132" y="360"/>
      <point x="144" y="367"/>
      <point x="155" y="382" type="curve" smooth="yes"/>
      <point x="166" y="398"/>
      <point x="187" y="436"/>
    </contour>
  </outline>
</glyph>
<glyph name="plus" format="2">
	<unicode hex="002B"/>
	<advance width="660"/>
	<outline>
		<contour>
			<point x="541" y="319" type="line"/>
			<point x="541" y="395" type="line"/>
			<point x="119" y="395" type="line"/>
			<point x="119" y="319" type="line"/>
		</contour>
		<contour>
			<point x="368" y="146" type="line"/>
			<point x="368" y="568" type="line"/>
			<point x="292" y="568" type="line"/>
			<point x="292" y="146" type="line"/>
		</contour>
	</outline>
</glyph>
<glyph name="comma" format="2">
	<unicode hex="002C"/>
	<advance width="235"/>
	<outline>
		<contour>
			<point x="112" y="-124" type="line"/>
			<point x="149" y="-79"/>
			<point x="182" y="-8"/>
			<point x="182" y="43" type="curve" smooth="yes"/>
			<point x="182" y="87"/>
			<point x="154" y="118"/>
			<point x="115" y="118" type="curve" smooth="yes"/>
			<point x="80" y="118"/>
			<point x="53" y="90"/>
			<point x="53" y="55" type="curve" smooth="yes"/>
			<point x="53" y="19"/>
			<point x="81" y="-7"/>
			<point x="117" y="-7" type="curve"/>
			<point x="105" y="12" type="line"/>
			<point x="107" y="-24"/>
			<point x="85" y="-80"/>
			<point x="52" y="-124" type="curve"/>
		</contour>
	</outline>
</glyph>
<glyph name="hyphen" format="1">
  <advance width="335"/>
  <unicode hex="002D"/>
  <outline>
    <contour>
      <point x="303" y="244" type="line"/>
      <point x="303" y="325" type="line"/>
      <point x="31" y="325" type="line"/>
      <point x="31" y="244" type="line"/>
    </contour>
  </outline>
</glyph>
<glyph name="period" format="2">
	<unicode hex="002E"/>
	<advance width="235"/>
	<outline>
		<contour>
			<point x="182" y="54" type="curve" smooth="yes"/>
			<point x="182" y="90"/>
			<point x="154" y="118"/>
			<point x="118" y="118" type="curve" smooth="yes"/>
			<point x="82" y="118"/>
			<point x="53" y="90"/>
			<point x="53" y="54" type="curve" smooth="yes"/>
			<point x="53" y="18"/>
			<point x="82" y="-10"/>
			<point x="118" y="-10" type="curve" smooth="yes"/>
			<point x="154" y="-10"/>
			<point x="182" y="18"/>
		</contour>
	</outline>
</glyph>
<glyph name="slash" format="1">
  <advance width="491"/>
  <unicode hex="002F"/>
  <outline>
    <contour>
      <point x="144" y="0" type="line"/>
      <point x="435" y="731" type="line"/>
      <point x="347" y="731" type="line"/>
      <point x="56" y="0" type="line"/>
    </contour>
  </outline>
</glyph>
<glyph name="zero" format="1">
  <advance width="649"/>
  <unicode hex="0030"/>
  <outline>
    <contour>
      <point x="324" y="-16" type="curve" smooth="yes"/>
      <point x="492" y="-16"/>
      <point x="593" y="123"/>
      <point x="593" y="357" type="curve" smooth="yes"/>
      <point x="593" y="593"/>
      <point x="492" y="731"/>
      <point x="324" y="731" type="curve" smooth="yes"/>
      <point x="156" y="731"/>
      <point x="56" y="593"/>
      <point x="56" y="357" type="curve" smooth="yes"/>
      <point x="56" y="123"/>
      <point x="156" y="-16"/>
    </contour>
    <contour>
      <point x="324" y="64" type="curve" smooth="yes"/>
      <point x="216" y="64"/>
      <point x="153" y="168"/>
      <point x="153" y="357" type="curve" smooth="yes"/>
      <point x="153" y="547"/>
      <point x="216" y="651"/>
      <point x="324" y="651" type="curve" smooth="yes"/>
      <point x="433" y="651"/>
      <point x="495" y="547"/>
      <point x="495" y="357" type="curve" smooth="yes"/>
      <point x="495" y="168"/>
      <point x="433" y="64"/>
    </contour>
  </outline>
</glyph>
<glyph name="one" format="1">
  <advance width="466"/>
  <unicode hex="0031"/>
  <outline>
    <contour>
      <point x="267" y="715" type="line"/>
      <point x="78" y="575" type="line"/>
      <point x="78" y="476" type="line"/>
      <point x="260" y="614" type="line"/>
      <point x="260" y="0" type="line"/>
      <point x="354" y="0" type="line"/>
      <point x="354" y="715" type="line"/>
    </contour>
  </outline>
</glyph>
<glyph name="two" format="2">
	<unicode hex="0032"/>
	<advance width="598"/>
	<outline>
		<contour>
			<point x="529" y="0" type="line"/>
			<point x="529" y="78" type="line"/>
			<point x="168" y="78" type="line"/>
			<point x="227" y="131"/>
			<point x="292" y="190"/>
			<point x="351" y="246" type="curve" smooth="yes"/>
			<point x="468" y="352"/>
			<point x="525" y="424"/>
			<point x="525" y="517" type="curve" smooth="yes"/>
			<point x="525" y="637"/>
			<point x="435" y="731"/>
			<point x="297" y="731" type="curve" smooth="yes"/>
			<point x="194" y="731"/>
			<point x="109" y="684"/>
			<point x="42" y="592" type="curve"/>
			<point x="107" y="531" type="line"/>
			<point x="154" y="606"/>
			<point x="217" y="651"/>
			<point x="293" y="651" type="curve" smooth="yes"/>
			<point x="375" y="651"/>
			<point x="431" y="592"/>
			<point x="431" y="518" type="curve" smooth="yes"/>
			<point x="431" y="452"/>
			<point x="387" y="393"/>
			<point x="305" y="316" type="curve" smooth="yes"/>
			<point x="50" y="78" type="line"/>
			<point x="50" y="0" type="line"/>
		</contour>
	</outline>
</glyph>
<glyph name="three" format="1">
  <advance width="607"/>
  <unicode hex="0033"/>
  <outline>
    <contour>
      <point x="35" y="111" type="line"/>
      <point x="102" y="31"/>
      <point x="193" y="-16"/>
      <point x="301" y="-16" type="curve" smooth="yes"/>
      <point x="453" y="-16"/>
      <point x="558" y="77"/>
      <point x="558" y="199" type="curve" smooth="yes"/>
      <point x="558" y="314"/>
      <point x="458" y="396"/>
      <point x="311" y="396" type="curve"/>
      <point x="297" y="359" type="line"/>
      <point x="440" y="359"/>
      <point x="538" y="433"/>
      <point x="538" y="534" type="curve" smooth="yes"/>
      <point x="538" y="646"/>
      <point x="442" y="731"/>
      <point x="303" y="731" type="curve" smooth="yes"/>
      <point x="203" y="731"/>
      <point x="118" y="684"/>
      <point x="55" y="604" type="curve"/>
      <point x="120" y="543" type="line"/>
      <point x="165" y="610"/>
      <point x="225" y="651"/>
      <point x="302" y="651" type="curve" smooth="yes"/>
      <point x="384" y="651"/>
      <point x="441" y="602"/>
      <point x="441" y="530" type="curve" smooth="yes"/>
      <point x="441" y="459"/>
      <point x="376" y="412"/>
      <point x="293" y="412" type="curve" smooth="yes"/>
      <point x="224" y="412" type="line"/>
      <point x="224" y="332" type="line"/>
      <point x="293" y="332" type="line" smooth="yes"/>
      <point x="388" y="332"/>
      <point x="461" y="283"/>
      <point x="461" y="201" type="curve" smooth="yes"/>
      <point x="461" y="120"/>
      <point x="395" y="64"/>
      <point x="299" y="64" type="curve" smooth="yes"/>
      <point x="215" y="64"/>
      <point x="149" y="105"/>
      <point x="100" y="172" type="curve"/>
    </contour>
  </outline>
</glyph>
<glyph name="four" format="1">
  <advance width="653"/>
  <unicode hex="0034"/>
  <outline>
    <contour>
      <point x="507" y="0" type="line"/>
      <point x="507" y="171" type="line"/>
      <point x="614" y="171" type="line"/>
      <point x="614" y="247" type="line"/>
      <point x="507" y="247" type="line"/>
      <point x="507" y="715" type="line"/>
      <point x="414" y="715" type="line"/>
      <point x="41" y="247" type="line"/>
      <point x="41" y="171" type="line"/>
      <point x="414" y="171" type="line"/>
      <point x="414" y="0" type="line"/>
    </contour>
    <contour>
      <point x="414" y="595" type="line"/>
      <point x="414" y="247" type="line"/>
      <point x="136" y="247" type="line"/>
    </contour>
  </outline>
</glyph>
<glyph name="five" format="1">
  <advance width="599"/>
  <unicode hex="0035"/>
  <outline>
    <contour>
      <point x="103" y="182" type="curve"/>
      <point x="38" y="122" type="line"/>
      <point x="100" y="32"/>
      <point x="188" y="-16"/>
      <point x="297" y="-16" type="curve" smooth="yes"/>
      <point x="445" y="-16"/>
      <point x="556" y="91"/>
      <point x="556" y="237" type="curve" smooth="yes"/>
      <point x="556" y="375"/>
      <point x="455" y="476"/>
      <point x="317" y="476" type="curve" smooth="yes"/>
      <point x="208" y="476"/>
      <point x="131" y="412"/>
      <point x="108" y="312" type="curve"/>
      <point x="143" y="309" type="line"/>
      <point x="181" y="364"/>
      <point x="233" y="397"/>
      <point x="300" y="397" type="curve" smooth="yes"/>
      <point x="393" y="397"/>
      <point x="460" y="330"/>
      <point x="460" y="237" type="curve" smooth="yes"/>
      <point x="460" y="139"/>
      <point x="392" y="64"/>
      <point x="295" y="64" type="curve" smooth="yes"/>
      <point x="211" y="64"/>
      <point x="149" y="111"/>
    </contour>
    <contour>
      <point x="510" y="637" type="line"/>
      <point x="510" y="715" type="line"/>
      <point x="106" y="715" type="line"/>
      <point x="59" y="309" type="line"/>
      <point x="143" y="309" type="line"/>
      <point x="185" y="670" type="line"/>
      <point x="148" y="637" type="line"/>
    </contour>
  </outline>
</glyph>
<glyph name="six" format="1">
  <advance width="627"/>
  <unicode hex="0036"/>
  <outline>
    <contour>
      <point x="314" y="-16" type="curve" smooth="yes"/>
      <point x="467" y="-16"/>
      <point x="580" y="91"/>
      <point x="580" y="234" type="curve" smooth="yes"/>
      <point x="580" y="374"/>
      <point x="468" y="473"/>
      <point x="334" y="473" type="curve" smooth="yes"/>
      <point x="249" y="473"/>
      <point x="178" y="428"/>
      <point x="141" y="360" type="curve"/>
      <point x="159" y="351" type="line"/>
      <point x="192" y="459"/>
      <point x="279" y="565"/>
      <point x="476" y="715" type="curve"/>
      <point x="346" y="715" type="line"/>
      <point x="149" y="560"/>
      <point x="50" y="407"/>
      <point x="50" y="252" type="curve" smooth="yes"/>
      <point x="50" y="95"/>
      <point x="157" y="-16"/>
    </contour>
    <contour>
      <point x="314" y="64" type="curve" smooth="yes"/>
      <point x="216" y="64"/>
      <point x="145" y="137"/>
      <point x="145" y="232" type="curve" smooth="yes"/>
      <point x="145" y="326"/>
      <point x="216" y="396"/>
      <point x="314" y="396" type="curve" smooth="yes"/>
      <point x="413" y="396"/>
      <point x="485" y="326"/>
      <point x="485" y="232" type="curve" smooth="yes"/>
      <point x="485" y="137"/>
      <point x="413" y="64"/>
    </contour>
  </outline>
</glyph>
<glyph name="seven" format="2">
	<unicode hex="0037"/>
	<advance width="597"/>
	<outline>
		<contour>
			<point x="545" y="715" type="line"/>
			<point x="52" y="715" type="line"/>
			<point x="52" y="635" type="line"/>
			<point x="444" y="635" type="line"/>
			<point x="88" y="0" type="line"/>
			<point x="193" y="0" type="line"/>
			<point x="545" y="635" type="line"/>
		</contour>
	</outline>
</glyph>
<glyph name="eight" format="2">
	<unicode hex="0038"/>
	<advance width="630"/>
	<outline>
		<contour>
			<point x="315" y="-16" type="curve" smooth="yes"/>
			<point x="471" y="-16"/>
			<point x="582" y="72"/>
			<point x="582" y="196" type="curve" smooth="yes"/>
			<point x="582" y="314"/>
			<point x="470" y="400"/>
			<point x="315" y="400" type="curve" smooth="yes"/>
			<point x="161" y="400"/>
			<point x="48" y="314"/>
			<point x="48" y="196" type="curve" smooth="yes"/>
			<point x="48" y="72"/>
			<point x="159" y="-16"/>
		</contour>
		<contour>
			<point x="315" y="355" type="curve" smooth="yes"/>
			<point x="454" y="355"/>
			<point x="555" y="431"/>
			<point x="555" y="534" type="curve" smooth="yes"/>
			<point x="555" y="648"/>
			<point x="455" y="731"/>
			<point x="315" y="731" type="curve" smooth="yes"/>
			<point x="175" y="731"/>
			<point x="75" y="648"/>
			<point x="75" y="534" type="curve" smooth="yes"/>
			<point x="75" y="431"/>
			<point x="176" y="355"/>
		</contour>
		<contour>
			<point x="315" y="64" type="curve" smooth="yes"/>
			<point x="220" y="64"/>
			<point x="145" y="120"/>
			<point x="145" y="198" type="curve" smooth="yes"/>
			<point x="145" y="275"/>
			<point x="220" y="332"/>
			<point x="315" y="332" type="curve" smooth="yes"/>
			<point x="411" y="332"/>
			<point x="485" y="275"/>
			<point x="485" y="198" type="curve" smooth="yes"/>
			<point x="485" y="120"/>
			<point x="411" y="64"/>
		</contour>
		<contour>
			<point x="315" y="411" type="curve" smooth="yes"/>
			<point x="235" y="411"/>
			<point x="171" y="462"/>
			<point x="171" y="530" type="curve" smooth="yes"/>
			<point x="171" y="599"/>
			<point x="235" y="652"/>
			<point x="315" y="652" type="curve" smooth="yes"/>
			<point x="396" y="652"/>
			<point x="460" y="599"/>
			<point x="460" y="530" type="curve" smooth="yes"/>
			<point x="460" y="462"/>
			<point x="396" y="411"/>
		</contour>
	</outline>
</glyph>
<glyph name="nine" format="2">
	<unicode hex="0039"/>
	<advance width="627"/>
	<outline>
		<contour>
			<point x="312" y="731" type="curve" smooth="yes"/>
			<point x="160" y="731"/>
			<point x="47" y="624"/>
			<point x="47" y="481" type="curve" smooth="yes"/>
			<point x="47" y="341"/>
			<point x="159" y="242"/>
			<point x="293" y="242" type="curve" smooth="yes"/>
			<point x="378" y="242"/>
			<point x="449" y="287"/>
			<point x="485" y="355" type="curve"/>
			<point x="467" y="364" type="line"/>
			<point x="435" y="256"/>
			<point x="348" y="150"/>
			<point x="151" y="0" type="curve"/>
			<point x="281" y="0" type="line"/>
			<point x="478" y="155"/>
			<point x="577" y="308"/>
			<point x="577" y="463" type="curve" smooth="yes"/>
			<point x="577" y="620"/>
			<point x="470" y="731"/>
		</contour>
		<contour>
			<point x="312" y="651" type="curve" smooth="yes"/>
			<point x="411" y="651"/>
			<point x="482" y="578"/>
			<point x="482" y="483" type="curve" smooth="yes"/>
			<point x="482" y="389"/>
			<point x="411" y="319"/>
			<point x="312" y="319" type="curve" smooth="yes"/>
			<point x="214" y="319"/>
			<point x="141" y="389"/>
			<point x="141" y="483" type="curve" smooth="yes"/>
			<point x="141" y="578"/>
			<point x="214" y="651"/>
		</contour>
	</outline>
</glyph>
<glyph name="less" format="2">
	<unicode hex="003C"/>
	<advance width="660"/>
	<outline>
		<contour>
			<point x="121" y="389" type="line"/>
			<point x="121" y="308" type="line"/>
			<point x="539" y="130" type="line"/>
			<point x="539" y="218" type="line"/>
		</contour>
		<contour>
			<point x="121" y="412" type="line"/>
			<point x="121" y="333" type="line"/>
			<point x="539" y="503" type="line"/>
			<point x="539" y="588" type="line"/>
		</contour>
	</outline>
</glyph>
<glyph name="equal" format="1">
  <advance width="660"/>
  <unicode hex="003D"/>
  <outline>
    <contour>
      <point x="533" y="214" type="line"/>
      <point x="533" y="291" type="line"/>
      <point x="127" y="291" type="line"/>
      <point x="127" y="214" type="line"/>
    </contour>
    <contour>
      <point x="533" y="423" type="line"/>
      <point x="533" y="500" type="line"/>
      <point x="127" y="500" type="line"/>
      <point x="127" y="423" type="line"/>
    </contour>
  </outline>
</glyph>
<glyph name="greater" format="2">
	<unicode hex="003E"/>
	<advance width="660"/>
	<outline>
		<contour>
			<point x="121" y="500" type="line"/>
			<point x="539" y="330" type="line"/>
			<point x="539" y="411" type="line"/>
			<point x="121" y="588" type="line"/>
		</contour>
		<contour>
			<point x="121" y="130" type="line"/>
			<point x="539" y="307" type="line"/>
			<point x="539" y="385" type="line"/>
			<point x="121" y="215" type="line"/>
		</contour>
	</outline>
</glyph>
<glyph name="question" format="2">
	<unicode hex="003F"/>
	<advance width="566"/>
	<outline>
		<contour>
			<point x="296" y="210" type="line"/>
			<point x="296" y="274"/>
			<point x="318" y="312"/>
			<point x="381" y="351" type="curve" smooth="yes"/>
			<point x="466" y="404"/>
			<point x="507" y="460"/>
			<point x="507" y="533" type="curve" smooth="yes"/>
			<point x="507" y="646"/>
			<point x="410" y="731"/>
			<point x="280" y="731" type="curve" smooth="yes"/>
			<point x="184" y="731"/>
			<point x="98" y="685"/>
			<point x="34" y="600" type="curve"/>
			<point x="99" y="539" type="line"/>
			<point x="147" y="614"/>
			<point x="209" y="651"/>
			<point x="278" y="651" type="curve" smooth="yes"/>
			<point x="357" y="651"/>
			<point x="411" y="602"/>
			<point x="411" y="531" type="curve" smooth="yes"/>
			<point x="411" y="487"/>
			<point x="389" y="452"/>
			<point x="341" y="418" type="curve" smooth="yes"/>
			<point x="248" y="359"/>
			<point x="213" y="298"/>
			<point x="221" y="210" type="curve"/>
		</contour>
		<contour>
			<point x="323" y="54" type="curve" smooth="yes"/>
			<point x="323" y="90"/>
			<point x="294" y="118"/>
			<point x="258" y="118" type="curve" smooth="yes"/>
			<point x="222" y="118"/>
			<point x="193" y="90"/>
			<point x="193" y="54" type="curve" smooth="yes"/>
			<point x="193" y="18"/>
			<point x="222" y="-10"/>
			<point x="258" y="-10" type="curve" smooth="yes"/>
			<point x="294" y="-10"/>
			<point x="323" y="18"/>
		</contour>
	</outline>
</glyph>
<glyph name="at" format="2">
	<unicode hex="0040"/>
	<advance width="1046"/>
	<outline>
		<contour>
			<point x="497" y="43" type="curve" smooth="yes"/>
			<point x="612" y="43"/>
			<point x="704" y="130"/>
			<point x="684" y="236" type="curve"/>
			<point x="665" y="259" type="line"/>
			<point x="664" y="177"/>
			<point x="594" y="113"/>
			<point x="510" y="113" type="curve" smooth="yes"/>
			<point x="427" y="113"/>
			<point x="371" y="176"/>
			<point x="371" y="260" type="curve" smooth="yes"/>
			<point x="371" y="345"/>
			<point x="430" y="409"/>
			<point x="509" y="409" type="curve" smooth="yes"/>
			<point x="590" y="409"/>
			<point x="648" y="346"/>
			<point x="648" y="265" type="curve"/>
			<point x="668" y="248" type="line"/>
			<point x="673" y="267"/>
			<point x="675" y="284"/>
			<point x="675" y="299" type="curve" smooth="yes"/>
			<point x="675" y="401"/>
			<point x="603" y="478"/>
			<point x="498" y="478" type="curve" smooth="yes"/>
			<point x="381" y="478"/>
			<point x="287" y="387"/>
			<point x="287" y="260" type="curve" smooth="yes"/>
			<point x="287" y="136"/>
			<point x="380" y="43"/>
		</contour>
		<contour>
			<point x="768" y="-25" type="line"/>
			<point x="728" y="-79"/>
			<point x="638" y="-118"/>
			<point x="531" y="-118" type="curve" smooth="yes"/>
			<point x="316" y="-118"/>
			<point x="148" y="48"/>
			<point x="148" y="262" type="curve" smooth="yes"/>
			<point x="148" y="487"/>
			<point x="314" y="655"/>
			<point x="538" y="655" type="curve" smooth="yes"/>
			<point x="751" y="655"/>
			<point x="900" y="500"/>
			<point x="900" y="282" type="curve" smooth="yes"/>
			<point x="900" y="178"/>
			<point x="865" y="119"/>
			<point x="803" y="119" type="curve" smooth="yes"/>
			<point x="759" y="119"/>
			<point x="729" y="145"/>
			<point x="729" y="210" type="curve" smooth="yes"/>
			<point x="729" y="464" type="line"/>
			<point x="649" y="464" type="line"/>
			<point x="649" y="345" type="line"/>
			<point x="648" y="338" type="line"/>
			<point x="648" y="193" type="line" smooth="yes"/>
			<point x="648" y="103"/>
			<point x="710" y="43"/>
			<point x="797" y="43" type="curve" smooth="yes"/>
			<point x="914" y="43"/>
			<point x="984" y="135"/>
			<point x="984" y="287" type="curve" smooth="yes"/>
			<point x="984" y="540"/>
			<point x="795" y="731"/>
			<point x="537" y="731" type="curve" smooth="yes"/>
			<point x="269" y="731"/>
			<point x="64" y="528"/>
			<point x="64" y="262" type="curve" smooth="yes"/>
			<point x="64" y="3"/>
			<point x="266" y="-194"/>
			<point x="530" y="-194" type="curve" smooth="yes"/>
			<point x="662" y="-194"/>
			<point x="773" y="-147"/>
			<point x="827" y="-86" type="curve"/>
		</contour>
	</outline>
</glyph>
<glyph name="A" format="1">
  <advance width="741"/>
  <unicode hex="0041"/>
  <outline>
    <contour>
      <point x="568" y="186" type="line"/>
      <point x="568" y="269" type="line"/>
      <point x="168" y="269" type="line"/>
      <point x="168" y="186" type="line"/>
    </contour>
    <contour>
      <point x="708" y="0" type="line"/>
      <point x="423" y="715" type="line"/>
      <point x="318" y="715" type="line"/>
      <point x="34" y="0" type="line"/>
      <point x="132" y="0" type="line"/>
      <point x="387" y="653" type="line"/>
      <point x="351" y="653" type="line"/>
      <point x="606" y="0" type="line"/>
    </contour>
    <contour>
      <point x="370" y="-50" type="move" name="bottom.UC"/>
    </contour>
    <contour>
      <point x="591" y="-30" type="move" name="ogonek.UC"/>
    </contour>
    <contour>
      <point x="370" y="750" type="move" name="top.UC"/>
    </contour>
  </outline>
</glyph>
<glyph name="B" format="2">
	<unicode hex="0042"/>
	<advance width="669"/>
	<outline>
		<contour>
			<point x="80" y="0" type="line"/>
			<point x="376" y="0" type="line" smooth="yes"/>
			<point x="521" y="0"/>
			<point x="619" y="81"/>
			<point x="619" y="203" type="curve" smooth="yes"/>
			<point x="619" y="322"/>
			<point x="521" y="398"/>
			<point x="376" y="398" type="curve" smooth="yes"/>
			<point x="186" y="398" type="line"/>
			<point x="186" y="349" type="line"/>
			<point x="358" y="349" type="line" smooth="yes"/>
			<point x="496" y="349"/>
			<point x="588" y="421"/>
			<point x="588" y="527" type="curve" smooth="yes"/>
			<point x="588" y="639"/>
			<point x="496" y="715"/>
			<point x="358" y="715" type="curve" smooth="yes"/>
			<point x="80" y="715" type="line"/>
		</contour>
		<contour>
			<point x="176" y="83" type="line"/>
			<point x="176" y="632" type="line"/>
			<point x="356" y="632" type="line" smooth="yes"/>
			<point x="439" y="632"/>
			<point x="490" y="591"/>
			<point x="490" y="522" type="curve" smooth="yes"/>
			<point x="490" y="451"/>
			<point x="439" y="408"/>
			<point x="356" y="408" type="curve" smooth="yes"/>
			<point x="166" y="408" type="line"/>
			<point x="166" y="327" type="line"/>
			<point x="377" y="327" type="line" smooth="yes"/>
			<point x="466" y="327"/>
			<point x="521" y="282"/>
			<point x="521" y="205" type="curve" smooth="yes"/>
			<point x="521" y="128"/>
			<point x="466" y="83"/>
			<point x="377" y="83" type="curve" smooth="yes"/>
		</contour>
	</outline>
</glyph>
<glyph name="C" format="2">
	<unicode hex="0043"/>
	<advance width="743"/>
	<outline>
		<contour>
			<point x="638" y="184" type="line"/>
			<point x="590" y="114"/>
			<point x="515" y="70"/>
			<point x="421" y="70" type="curve" smooth="yes"/>
			<point x="268" y="70"/>
			<point x="154" y="192"/>
			<point x="154" y="357" type="curve" smooth="yes"/>
			<point x="154" y="523"/>
			<point x="268" y="645"/>
			<point x="421" y="645" type="curve" smooth="yes"/>
			<point x="515" y="645"/>
			<point x="590" y="601"/>
			<point x="638" y="531" type="curve"/>
			<point x="705" y="596" type="line"/>
			<point x="642" y="679"/>
			<point x="541" y="731"/>
			<point x="421" y="731" type="curve" smooth="yes"/>
			<point x="211" y="731"/>
			<point x="53" y="572"/>
			<point x="53" y="357" type="curve" smooth="yes"/>
			<point x="53" y="143"/>
			<point x="207" y="-16"/>
			<point x="418" y="-16" type="curve" smooth="yes"/>
			<point x="538" y="-16"/>
			<point x="642" y="36"/>
			<point x="705" y="119" type="curve"/>
		</contour>
	</outline>
	<anchor name="bottom.UC" x="419" y="-50"/>
	<anchor name="top.UC" x="419" y="750"/>
</glyph>
<glyph name="D" format="2">
	<unicode hex="0044"/>
	<advance width="746"/>
	<outline>
		<contour>
			<point x="80" y="0" type="line"/>
			<point x="318" y="0" type="line" smooth="yes"/>
			<point x="540" y="0"/>
			<point x="693" y="150"/>
			<point x="693" y="358" type="curve" smooth="yes"/>
			<point x="693" y="565"/>
			<point x="540" y="715"/>
			<point x="318" y="715" type="curve" smooth="yes"/>
			<point x="80" y="715" type="line"/>
		</contour>
		<contour>
			<point x="176" y="85" type="line"/>
			<point x="176" y="630" type="line"/>
			<point x="318" y="630" type="line" smooth="yes"/>
			<point x="486" y="630"/>
			<point x="593" y="521"/>
			<point x="593" y="358" type="curve" smooth="yes"/>
			<point x="593" y="194"/>
			<point x="486" y="85"/>
			<point x="318" y="85" type="curve" smooth="yes"/>
		</contour>
	</outline>
	<anchor name="top.UC" x="341" y="750"/>
</glyph>
<glyph name="E" format="1">
  <advance width="608"/>
  <unicode hex="0045"/>
  <outline>
    <contour>
      <point x="563" y="0" type="line"/>
      <point x="563" y="83" type="line"/>
      <point x="176" y="83" type="line"/>
      <point x="176" y="632" type="line"/>
      <point x="563" y="632" type="line"/>
      <point x="563" y="715" type="line"/>
      <point x="80" y="715" type="line"/>
      <point x="80" y="0" type="line"/>
    </contour>
    <contour>
      <point x="544" y="323" type="line"/>
      <point x="544" y="406" type="line"/>
      <point x="166" y="406" type="line"/>
      <point x="166" y="323" type="line"/>
    </contour>
    <contour>
      <point x="321" y="-50" type="move" name="bottom.UC"/>
    </contour>
    <contour>
      <point x="457" y="-30" type="move" name="ogonek.UC"/>
    </contour>
    <contour>
      <point x="321" y="750" type="move" name="top.UC"/>
    </contour>
  </outline>
</glyph>
<glyph name="F" format="1">
  <advance width="583"/>
  <unicode hex="0046"/>
  <outline>
    <contour>
      <point x="176" y="0" type="line"/>
      <point x="176" y="632" type="line"/>
      <point x="543" y="632" type="line"/>
      <point x="543" y="715" type="line"/>
      <point x="80" y="715" type="line"/>
      <point x="80" y="0" type="line"/>
    </contour>
    <contour>
      <point x="524" y="323" type="line"/>
      <point x="524" y="406" type="line"/>
      <point x="166" y="406" type="line"/>
      <point x="166" y="323" type="line"/>
    </contour>
  </outline>
</glyph>
<glyph name="G" format="1">
  <advance width="801"/>
  <unicode hex="0047"/>
  <outline>
    <contour>
      <point x="743" y="0" type="line"/>
      <point x="743" y="378" type="line"/>
      <point x="421" y="378" type="line"/>
      <point x="421" y="297" type="line"/>
      <point x="651" y="297" type="line"/>
      <point x="651" y="161" type="line"/>
      <point x="660" y="199" type="line"/>
      <point x="624" y="119"/>
      <point x="536" y="69"/>
      <point x="430" y="69" type="curve" smooth="yes"/>
      <point x="269" y="69"/>
      <point x="154" y="191"/>
      <point x="154" y="358" type="curve" smooth="yes"/>
      <point x="154" y="523"/>
      <point x="268" y="645"/>
      <point x="426" y="645" type="curve" smooth="yes"/>
      <point x="526" y="645"/>
      <point x="601" y="601"/>
      <point x="651" y="531" type="curve"/>
      <point x="718" y="596" type="line"/>
      <point x="653" y="679"/>
      <point x="550" y="731"/>
      <point x="426" y="731" type="curve" smooth="yes"/>
      <point x="212" y="731"/>
      <point x="53" y="571"/>
      <point x="53" y="358" type="curve" smooth="yes"/>
      <point x="53" y="142"/>
      <point x="211" y="-16"/>
      <point x="423" y="-16" type="curve" smooth="yes"/>
      <point x="527" y="-16"/>
      <point x="615" y="26"/>
      <point x="664" y="99" type="curve"/>
      <point x="652" y="103" type="line"/>
      <point x="652" y="0" type="line"/>
    </contour>
    <contour>
      <point x="426" y="-50" type="move" name="bottom.UC"/>
    </contour>
    <contour>
      <point x="426" y="750" type="move" name="top.UC"/>
    </contour>
  </outline>
</glyph>
<glyph name="H" format="2">
	<unicode hex="0048"/>
	<advance width="746"/>
	<outline>
		<contour>
			<point x="569" y="0" type="line"/>
			<point x="665" y="0" type="line"/>
			<point x="665" y="715" type="line"/>
			<point x="569" y="715" type="line"/>
		</contour>
		<contour>
			<point x="176" y="0" type="line"/>
			<point x="176" y="715" type="line"/>
			<point x="80" y="715" type="line"/>
			<point x="80" y="0" type="line"/>
		</contour>
		<contour>
			<point x="166" y="328" type="line"/>
			<point x="579" y="328" type="line"/>
			<point x="579" y="412" type="line"/>
			<point x="166" y="412" type="line"/>
		</contour>
	</outline>
	<anchor name="bottom.UC" x="373" y="-50"/>
	<anchor name="top.UC" x="373" y="750"/>
</glyph>
<glyph name="I" format="2">
	<unicode hex="0049"/>
	<advance width="257"/>
	<outline>
		<contour>
			<point x="176" y="0" type="line"/>
			<point x="176" y="715" type="line"/>
			<point x="80" y="715" type="line"/>
			<point x="80" y="0" type="line"/>
		</contour>
	</outline>
	<anchor name="bottom.UC" x="128" y="-50"/>
	<anchor name="ogonek.UC" x="70" y="-30"/>
	<anchor name="top.UC" x="128" y="750"/>
</glyph>
<glyph name="J" format="1">
  <advance width="655"/>
  <unicode hex="004A"/>
  <outline>
    <contour>
      <point x="583" y="715" type="line"/>
      <point x="487" y="715" type="line"/>
      <point x="487" y="274" type="line" smooth="yes"/>
      <point x="487" y="141"/>
      <point x="425" y="70"/>
      <point x="309" y="70" type="curve" smooth="yes"/>
      <point x="206" y="70"/>
      <point x="146" y="128"/>
      <point x="134" y="239" type="curve"/>
      <point x="39" y="228" type="line"/>
      <point x="54" y="74"/>
      <point x="152" y="-16"/>
      <point x="309" y="-16" type="curve" smooth="yes"/>
      <point x="485" y="-16"/>
      <point x="583" y="89"/>
      <point x="583" y="274" type="curve" smooth="yes"/>
    </contour>
    <contour>
      <point x="536" y="750" type="move" name="top.UC"/>
    </contour>
  </outline>
</glyph>
<glyph name="K" format="1">
  <advance width="704"/>
  <unicode hex="004B"/>
  <outline>
    <contour>
      <point x="176" y="0" type="line"/>
      <point x="176" y="715" type="line"/>
      <point x="80" y="715" type="line"/>
      <point x="80" y="0" type="line"/>
    </contour>
    <contour>
      <point x="687" y="0" type="line"/>
      <point x="269" y="384" type="line"/>
      <point x="269" y="358" type="line"/>
      <point x="645" y="715" type="line"/>
      <point x="521" y="715" type="line"/>
      <point x="167" y="371" type="line"/>
      <point x="152" y="371" type="line"/>
      <point x="548" y="0" type="line"/>
    </contour>
    <contour>
      <point x="354" y="-50" type="move" name="bottom.UC"/>
    </contour>
    <contour>
      <point x="354" y="750" type="move" name="top.UC"/>
    </contour>
  </outline>
</glyph>
<glyph name="L" format="2">
	<unicode hex="004C"/>
	<advance width="568"/>
	<outline>
		<contour>
			<point x="533" y="0" type="line"/>
			<point x="533" y="85" type="line"/>
			<point x="176" y="85" type="line"/>
			<point x="176" y="715" type="line"/>
			<point x="80" y="715" type="line"/>
			<point x="80" y="0" type="line"/>
		</contour>
	</outline>
	<anchor name="bottom.UC" x="306" y="-50"/>
	<anchor name="top.UC" x="123" y="750"/>
	<anchor name="top_right" x="373" y="540"/>
</glyph>
<glyph name="M" format="1">
  <advance width="906"/>
  <unicode hex="004D"/>
  <outline>
    <contour>
      <point x="488" y="66" type="line"/>
      <point x="773" y="661" type="line"/>
      <point x="732" y="662" type="line"/>
      <point x="732" y="0" type="line"/>
      <point x="825" y="0" type="line"/>
      <point x="825" y="715" type="line"/>
      <point x="709" y="715" type="line"/>
      <point x="428" y="127" type="line"/>
      <point x="478" y="127" type="line"/>
      <point x="198" y="715" type="line"/>
      <point x="79" y="715" type="line"/>
      <point x="79" y="0" type="line"/>
      <point x="172" y="0" type="line"/>
      <point x="172" y="662" type="line"/>
      <point x="131" y="661" type="line"/>
      <point x="416" y="66" type="line"/>
    </contour>
  </outline>
</glyph>
<glyph name="N" format="1">
  <advance width="744"/>
  <unicode hex="004E"/>
  <outline>
    <contour>
      <point x="172" y="0" type="line"/>
      <point x="172" y="616" type="line"/>
      <point x="144" y="616" type="line"/>
      <point x="563" y="0" type="line"/>
      <point x="666" y="0" type="line"/>
      <point x="666" y="715" type="line"/>
      <point x="573" y="715" type="line"/>
      <point x="573" y="99" type="line"/>
      <point x="600" y="99" type="line"/>
      <point x="182" y="715" type="line"/>
      <point x="79" y="715" type="line"/>
      <point x="79" y="0" type="line"/>
    </contour>
    <contour>
      <point x="372" y="-50" type="move" name="bottom.UC"/>
    </contour>
    <contour>
      <point x="372" y="750" type="move" name="top.UC"/>
    </contour>
  </outline>
</glyph>
<glyph name="O" format="1">
  <advance width="856"/>
  <unicode hex="004F"/>
  <outline>
    <contour>
      <point x="428" y="-16" type="curve" smooth="yes"/>
      <point x="644" y="-16"/>
      <point x="803" y="144"/>
      <point x="803" y="358" type="curve" smooth="yes"/>
      <point x="803" y="571"/>
      <point x="644" y="731"/>
      <point x="428" y="731" type="curve" smooth="yes"/>
      <point x="212" y="731"/>
      <point x="53" y="571"/>
      <point x="53" y="358" type="curve" smooth="yes"/>
      <point x="53" y="144"/>
      <point x="212" y="-16"/>
    </contour>
    <contour>
      <point x="428" y="70" type="curve" smooth="yes"/>
      <point x="267" y="70"/>
      <point x="154" y="190"/>
      <point x="154" y="358" type="curve" smooth="yes"/>
      <point x="154" y="525"/>
      <point x="267" y="645"/>
      <point x="428" y="645" type="curve" smooth="yes"/>
      <point x="589" y="645"/>
      <point x="702" y="525"/>
      <point x="702" y="358" type="curve" smooth="yes"/>
      <point x="702" y="190"/>
      <point x="589" y="70"/>
    </contour>
    <contour>
      <point x="428" y="-50" type="move" name="bottom.UC"/>
    </contour>
    <contour>
      <point x="428" y="750" type="move" name="top.UC"/>
    </contour>
    <contour>
      <point x="532" y="750" type="move" name="topright.UC"/>
    </contour>
  </outline>
</glyph>
<glyph name="Q" format="1">
  <advance width="856"/>
  <unicode hex="0051"/>
  <outline>
    <contour>
      <point x="723" y="-39" type="line"/>
      <point x="780" y="17" type="line"/>
      <point x="524" y="282" type="line"/>
      <point x="466" y="226" type="line"/>
    </contour>
    <contour>
      <point x="428" y="-16" type="curve" smooth="yes"/>
      <point x="643" y="-16"/>
      <point x="803" y="144"/>
      <point x="803" y="358" type="curve" smooth="yes"/>
      <point x="803" y="571"/>
      <point x="644" y="731"/>
      <point x="428" y="731" type="curve" smooth="yes"/>
      <point x="212" y="731"/>
      <point x="53" y="571"/>
      <point x="53" y="358" type="curve" smooth="yes"/>
      <point x="53" y="144"/>
      <point x="212" y="-16"/>
    </contour>
    <contour>
      <point x="428" y="70" type="curve" smooth="yes"/>
      <point x="267" y="70"/>
      <point x="154" y="190"/>
      <point x="154" y="358" type="curve" smooth="yes"/>
      <point x="154" y="525"/>
      <point x="267" y="645"/>
      <point x="428" y="645" type="curve" smooth="yes"/>
      <point x="589" y="645"/>
      <point x="702" y="525"/>
      <point x="702" y="358" type="curve" smooth="yes"/>
      <point x="702" y="187"/>
      <point x="592" y="70"/>
    </contour>
  </outline>
</glyph>
<glyph name="R" format="1">
  <advance width="694"/>
  <unicode hex="0052"/>
  <outline>
    <contour>
      <point x="176" y="0" type="line"/>
      <point x="176" y="632" type="line"/>
      <point x="362" y="632" type="line" smooth="yes"/>
      <point x="451" y="632"/>
      <point x="506" y="586"/>
      <point x="506" y="509" type="curve" smooth="yes"/>
      <point x="506" y="432"/>
      <point x="451" y="386"/>
      <point x="362" y="386" type="curve" smooth="yes"/>
      <point x="166" y="386" type="line"/>
      <point x="166" y="303" type="line"/>
      <point x="362" y="303" type="line" smooth="yes"/>
      <point x="507" y="303"/>
      <point x="604" y="386"/>
      <point x="604" y="509" type="curve" smooth="yes"/>
      <point x="604" y="632"/>
      <point x="507" y="715"/>
      <point x="362" y="715" type="curve" smooth="yes"/>
      <point x="80" y="715" type="line"/>
      <point x="80" y="0" type="line"/>
    </contour>
    <contour>
      <point x="675" y="0" type="line"/>
      <point x="398" y="333" type="line"/>
      <point x="286" y="333" type="line"/>
      <point x="554" y="0" type="line"/>
    </contour>
    <contour>
      <point x="329" y="750" type="move" name="top.UC"/>
    </contour>
  </outline>
</glyph>
<glyph name="S" format="2">
	<unicode hex="0053"/>
	<advance width="685"/>
	<outline>
		<contour>
			<point x="36" y="116" type="line"/>
			<point x="111" y="34"/>
			<point x="214" y="-16"/>
			<point x="346" y="-16" type="curve" smooth="yes"/>
			<point x="515" y="-16"/>
			<point x="632" y="72"/>
			<point x="632" y="202" type="curve" smooth="yes"/>
			<point x="632" y="320"/>
			<point x="552" y="385"/>
			<point x="352" y="414" type="curve" smooth="yes"/>
			<point x="214" y="435"/>
			<point x="165" y="465"/>
			<point x="165" y="523" type="curve" smooth="yes"/>
			<point x="165" y="598"/>
			<point x="236" y="646"/>
			<point x="338" y="646" type="curve" smooth="yes"/>
			<point x="435" y="646"/>
			<point x="501" y="603"/>
			<point x="556" y="534" type="curve"/>
			<point x="623" y="599" type="line"/>
			<point x="553" y="681"/>
			<point x="459" y="731"/>
			<point x="338" y="731" type="curve" smooth="yes"/>
			<point x="179" y="731"/>
			<point x="66" y="645"/>
			<point x="66" y="520" type="curve" smooth="yes"/>
			<point x="66" y="413"/>
			<point x="141" y="354"/>
			<point x="336" y="325" type="curve" smooth="yes"/>
			<point x="480" y="303"/>
			<point x="533" y="267"/>
			<point x="533" y="199" type="curve" smooth="yes"/>
			<point x="533" y="120"/>
			<point x="456" y="69"/>
			<point x="346" y="69" type="curve" smooth="yes"/>
			<point x="247" y="69"/>
			<point x="163" y="112"/>
			<point x="104" y="182" type="curve"/>
		</contour>
	</outline>
	<anchor name="bottom.UC" x="346" y="-50"/>
	<anchor name="top.UC" x="338" y="750"/>
</glyph>
<glyph name="T" format="1">
  <advance width="632"/>
  <unicode hex="0054"/>
  <outline>
    <contour>
      <point x="364" y="0" type="line"/>
      <point x="364" y="641" type="line"/>
      <point x="268" y="641" type="line"/>
      <point x="268" y="0" type="line"/>
    </contour>
    <contour>
      <point x="598" y="631" type="line"/>
      <point x="598" y="715" type="line"/>
      <point x="35" y="715" type="line"/>
      <point x="35" y="631" type="line"/>
    </contour>
    <contour>
      <point x="316" y="-50" type="move" name="bottom.UC"/>
    </contour>
    <contour>
      <point x="316" y="750" type="move" name="top.UC"/>
    </contour>
  </outline>
</glyph>
<glyph name="U" format="2">
	<unicode hex="0055"/>
	<advance width="728"/>
	<outline>
		<contour>
			<point x="656" y="715" type="line"/>
			<point x="561" y="715" type="line"/>
			<point x="561" y="282" type="line" smooth="yes"/>
			<point x="561" y="147"/>
			<point x="489" y="70"/>
			<point x="364" y="70" type="curve" smooth="yes"/>
			<point x="240" y="70"/>
			<point x="168" y="147"/>
			<point x="168" y="282" type="curve" smooth="yes"/>
			<point x="168" y="715" type="line"/>
			<point x="72" y="715" type="line"/>
			<point x="72" y="282" type="line" smooth="yes"/>
			<point x="72" y="94"/>
			<point x="182" y="-16"/>
			<point x="364" y="-16" type="curve" smooth="yes"/>
			<point x="547" y="-16"/>
			<point x="656" y="94"/>
			<point x="656" y="282" type="curve" smooth="yes"/>
		</contour>
	</outline>
	<anchor name="bottom.UC" x="365" y="-50"/>
	<anchor name="ogonek.UC.round" x="405" y="-30"/>
	<anchor name="top.UC" x="364" y="750"/>
	<anchor name="topright.UC" x="575" y="750"/>
</glyph>
<glyph name="V" format="1">
  <advance width="727"/>
  <unicode hex="0056"/>
  <outline>
    <contour>
      <point x="414" y="0" type="line"/>
      <point x="693" y="715" type="line"/>
      <point x="593" y="715" type="line"/>
      <point x="348" y="63" type="line"/>
      <point x="382" y="63" type="line"/>
      <point x="138" y="715" type="line"/>
      <point x="34" y="715" type="line"/>
      <point x="313" y="0" type="line"/>
    </contour>
  </outline>
</glyph>
<glyph name="W" format="1">
  <advance width="1058"/>
  <unicode hex="0057"/>
  <outline>
    <contour>
      <point x="806" y="0" type="line"/>
      <point x="1020" y="715" type="line"/>
      <point x="921" y="715" type="line"/>
      <point x="736" y="65" type="line"/>
      <point x="766" y="65" type="line"/>
      <point x="579" y="715" type="line"/>
      <point x="480" y="715" type="line"/>
      <point x="294" y="65" type="line"/>
      <point x="326" y="65" type="line"/>
      <point x="141" y="715" type="line"/>
      <point x="38" y="715" type="line"/>
      <point x="253" y="0" type="line"/>
      <point x="363" y="0" type="line"/>
      <point x="535" y="600" type="line"/>
      <point x="524" y="600" type="line"/>
      <point x="695" y="0" type="line"/>
    </contour>
    <contour>
      <point x="529" y="750" type="move" name="top.UC"/>
    </contour>
  </outline>
</glyph>
<glyph name="X" format="1">
  <advance width="686"/>
  <unicode hex="0058"/>
  <outline>
    <contour>
      <point x="131" y="0" type="line"/>
      <point x="357" y="330" type="line"/>
      <point x="329" y="330" type="line"/>
      <point x="554" y="0" type="line"/>
      <point x="668" y="0" type="line"/>
      <point x="394" y="392" type="line"/>
      <point x="393" y="350" type="line"/>
      <point x="643" y="715" type="line"/>
      <point x="532" y="715" type="line"/>
      <point x="330" y="411" type="line"/>
      <point x="357" y="411" type="line"/>
      <point x="155" y="715" type="line"/>
      <point x="42" y="715" type="line"/>
      <point x="293" y="350" type="line"/>
      <point x="293" y="392" type="line"/>
      <point x="18" y="0" type="line"/>
    </contour>
  </outline>
</glyph>
<glyph name="Y" format="2">
	<unicode hex="0059"/>
	<advance width="668"/>
	<outline>
		<contour>
			<point x="382" y="0" type="line"/>
			<point x="382" y="305" type="line"/>
			<point x="650" y="715" type="line"/>
			<point x="541" y="715" type="line"/>
			<point x="322" y="369" type="line"/>
			<point x="348" y="369" type="line"/>
			<point x="130" y="715" type="line"/>
			<point x="18" y="715" type="line"/>
			<point x="286" y="307" type="line"/>
			<point x="286" y="0" type="line"/>
		</contour>
	</outline>
	<anchor name="bottom.UC" x="334" y="-50"/>
	<anchor name="top.UC" x="334" y="750"/>
</glyph>
<glyph name="Z" format="2">
	<unicode hex="005A"/>
	<advance width="620"/>
	<outline>
		<contour>
			<point x="578" y="0" type="line"/>
			<point x="578" y="84" type="line"/>
			<point x="159" y="84" type="line"/>
			<point x="565" y="631" type="line"/>
			<point x="565" y="715" type="line"/>
			<point x="57" y="715" type="line"/>
			<point x="57" y="631" type="line"/>
			<point x="450" y="631" type="line"/>
			<point x="44" y="84" type="line"/>
			<point x="44" y="0" type="line"/>
		</contour>
	</outline>
	<anchor name="top.UC" x="311" y="750"/>
</glyph>
<glyph name="bracketleft" format="1">
  <advance width="318"/>
  <unicode hex="005B"/>
  <outline>
    <contour>
      <point x="276" y="-129" type="line"/>
      <point x="276" y="-54" type="line"/>
      <point x="157" y="-54" type="line"/>
      <point x="157" y="656" type="line"/>
      <point x="276" y="656" type="line"/>
      <point x="276" y="731" type="line"/>
      <point x="65" y="731" type="line"/>
      <point x="65" y="-129" type="line"/>
    </contour>
  </outline>
</glyph>
<glyph name="backslash" format="1">
  <advance width="491"/>
  <unicode hex="005C"/>
  <outline>
    <contour>
      <point x="435" y="0" type="line"/>
      <point x="144" y="731" type="line"/>
      <point x="56" y="731" type="line"/>
      <point x="347" y="0" type="line"/>
    </contour>
  </outline>
</glyph>
<glyph name="bracketright" format="2">
	<unicode hex="005D"/>
	<advance width="318"/>
	<outline>
		<contour>
			<point x="253" y="-129" type="line"/>
			<point x="253" y="731" type="line"/>
			<point x="42" y="731" type="line"/>
			<point x="42" y="656" type="line"/>
			<point x="161" y="656" type="line"/>
			<point x="161" y="-54" type="line"/>
			<point x="42" y="-54" type="line"/>
			<point x="42" y="-129" type="line"/>
		</contour>
	</outline>
</glyph>
<glyph name="asciicircum" format="2">
	<unicode hex="005E"/>
	<advance width="660"/>
	<outline>
		<contour>
			<point x="300" y="715" type="line"/>
			<point x="474" y="354" type="line"/>
			<point x="565" y="354" type="line"/>
			<point x="383" y="715" type="line"/>
		</contour>
		<contour>
			<point x="277" y="715" type="line"/>
			<point x="95" y="354" type="line"/>
			<point x="181" y="354" type="line"/>
			<point x="357" y="715" type="line"/>
		</contour>
	</outline>
</glyph>
<glyph name="underscore" format="2">
	<unicode hex="005F"/>
	<advance width="500"/>
	<outline>
		<contour>
			<point x="500" y="-135" type="line"/>
			<point x="500" y="-59" type="line"/>
			<point x="0" y="-59" type="line"/>
			<point x="0" y="-135" type="line"/>
		</contour>
	</outline>
</glyph>
<glyph name="a" format="1">
  <advance width="558"/>
  <unicode hex="0061"/>
  <outline>
    <contour>
      <point x="499" y="0" type="line"/>
      <point x="499" y="310" type="line" smooth="yes"/>
      <point x="499" y="434"/>
      <point x="407" y="512"/>
      <point x="270" y="512" type="curve" smooth="yes"/>
      <point x="182" y="512"/>
      <point x="110" y="478"/>
      <point x="56" y="422" type="curve"/>
      <point x="114" y="362" type="line"/>
      <point x="153" y="407"/>
      <point x="204" y="435"/>
      <point x="268" y="435" type="curve" smooth="yes"/>
      <point x="354" y="435"/>
      <point x="409" y="386"/>
      <point x="409" y="307" type="curve" smooth="yes"/>
      <point x="409" y="122" type="line"/>
      <point x="412" y="98" type="line"/>
      <point x="412" y="0" type="line"/>
    </contour>
    <contour>
      <point x="229" y="-16" type="curve" smooth="yes"/>
      <point x="360" y="-16"/>
      <point x="454" y="70"/>
      <point x="454" y="192" type="curve"/>
      <point x="421" y="210" type="line"/>
      <point x="415" y="120"/>
      <point x="341" y="58"/>
      <point x="245" y="58" type="curve" smooth="yes"/>
      <point x="179" y="58"/>
      <point x="135" y="92"/>
      <point x="135" y="146" type="curve" smooth="yes"/>
      <point x="135" y="208"/>
      <point x="196" y="238"/>
      <point x="279" y="238" type="curve" smooth="yes"/>
      <point x="420" y="238" type="line"/>
      <point x="420" y="307" type="line"/>
      <point x="269" y="307" type="line" smooth="yes"/>
      <point x="134" y="307"/>
      <point x="39" y="247"/>
      <point x="39" y="143" type="curve" smooth="yes"/>
      <point x="39" y="50"/>
      <point x="116" y="-16"/>
    </contour>
    <contour>
      <point x="272" y="-50" type="move" name="bottom.LC"/>
    </contour>
    <contour>
      <point x="392" y="-30" type="move" name="ogonek.LC"/>
    </contour>
    <contour>
      <point x="272" y="544" type="move" name="top.LC"/>
    </contour>
  </outline>
</glyph>
<glyph name="b" format="2">
	<unicode hex="0062"/>
	<advance width="639"/>
	<outline>
		<contour>
			<point x="158" y="0" type="line"/>
			<point x="158" y="129" type="line"/>
			<point x="159" y="132" type="line"/>
			<point x="159" y="237" type="line" smooth="yes"/>
			<point x="159" y="353"/>
			<point x="231" y="432"/>
			<point x="331" y="432" type="curve" smooth="yes"/>
			<point x="431" y="432"/>
			<point x="497" y="354"/>
			<point x="497" y="248" type="curve" smooth="yes"/>
			<point x="497" y="140"/>
			<point x="427" y="64"/>
			<point x="325" y="64" type="curve" smooth="yes"/>
			<point x="233" y="64"/>
			<point x="159" y="126"/>
			<point x="150" y="212" type="curve"/>
			<point x="131" y="193" type="line"/>
			<point x="119" y="75"/>
			<point x="208" y="-16"/>
			<point x="341" y="-16" type="curve" smooth="yes"/>
			<point x="486" y="-16"/>
			<point x="594" y="94"/>
			<point x="594" y="248" type="curve" smooth="yes"/>
			<point x="594" y="400"/>
			<point x="489" y="512"/>
			<point x="346" y="512" type="curve" smooth="yes"/>
			<point x="238" y="512"/>
			<point x="152" y="443"/>
			<point x="136" y="344" type="curve"/>
			<point x="159" y="344" type="line"/>
			<point x="159" y="720" type="line"/>
			<point x="66" y="720" type="line"/>
			<point x="66" y="0" type="line"/>
		</contour>
	</outline>
</glyph>
<glyph name="c" format="2">
	<unicode hex="0063"/>
	<advance width="552"/>
	<outline>
		<contour>
			<point x="454" y="141" type="line"/>
			<point x="423" y="94"/>
			<point x="378" y="64"/>
			<point x="312" y="64" type="curve" smooth="yes"/>
			<point x="212" y="64"/>
			<point x="142" y="140"/>
			<point x="142" y="248" type="curve" smooth="yes"/>
			<point x="142" y="356"/>
			<point x="212" y="432"/>
			<point x="312" y="432" type="curve" smooth="yes"/>
			<point x="378" y="432"/>
			<point x="423" y="401"/>
			<point x="454" y="355" type="curve"/>
			<point x="517" y="415" type="line"/>
			<point x="469" y="475"/>
			<point x="398" y="512"/>
			<point x="310" y="512" type="curve" smooth="yes"/>
			<point x="156" y="512"/>
			<point x="45" y="401"/>
			<point x="45" y="248" type="curve" smooth="yes"/>
			<point x="45" y="95"/>
			<point x="155" y="-16"/>
			<point x="308" y="-16" type="curve" smooth="yes"/>
			<point x="397" y="-16"/>
			<point x="468" y="20"/>
			<point x="517" y="81" type="curve"/>
		</contour>
	</outline>
	<anchor name="bottom.LC" x="310" y="-50"/>
	<anchor name="top.LC" x="310" y="544"/>
</glyph>
<glyph name="d" format="1">
  <advance width="639"/>
  <unicode hex="0064"/>
  <outline>
    <contour>
      <point x="573" y="0" type="line"/>
      <point x="573" y="720" type="line"/>
      <point x="480" y="720" type="line"/>
      <point x="480" y="344" type="line"/>
      <point x="503" y="344" type="line"/>
      <point x="487" y="445"/>
      <point x="405" y="512"/>
      <point x="295" y="512" type="curve" smooth="yes"/>
      <point x="153" y="512"/>
      <point x="45" y="400"/>
      <point x="45" y="248" type="curve" smooth="yes"/>
      <point x="45" y="94"/>
      <point x="153" y="-16"/>
      <point x="298" y="-16" type="curve" smooth="yes"/>
      <point x="431" y="-16"/>
      <point x="520" y="75"/>
      <point x="508" y="193" type="curve"/>
      <point x="489" y="212" type="line"/>
      <point x="480" y="126"/>
      <point x="406" y="64"/>
      <point x="314" y="64" type="curve" smooth="yes"/>
      <point x="212" y="64"/>
      <point x="142" y="140"/>
      <point x="142" y="248" type="curve" smooth="yes"/>
      <point x="142" y="354"/>
      <point x="211" y="432"/>
      <point x="310" y="432" type="curve" smooth="yes"/>
      <point x="410" y="432"/>
      <point x="480" y="353"/>
      <point x="480" y="237" type="curve" smooth="yes"/>
      <point x="480" y="132" type="line"/>
      <point x="481" y="129" type="line"/>
      <point x="481" y="0" type="line"/>
    </contour>
    <contour>
      <point x="680" y="540" type="move" name="top_right"/>
    </contour>
  </outline>
</glyph>
<glyph name="e" format="2">
	<unicode hex="0065"/>
	<advance width="604"/>
	<outline>
		<contour>
			<point x="488" y="146" type="line"/>
			<point x="446" y="89"/>
			<point x="393" y="62"/>
			<point x="326" y="62" type="curve" smooth="yes"/>
			<point x="217" y="62"/>
			<point x="141" y="136"/>
			<point x="141" y="249" type="curve" smooth="yes"/>
			<point x="141" y="359"/>
			<point x="209" y="434"/>
			<point x="308" y="434" type="curve" smooth="yes"/>
			<point x="400" y="434"/>
			<point x="465" y="361"/>
			<point x="465" y="254" type="curve" smooth="yes"/>
			<point x="465" y="245" type="line"/>
			<point x="559" y="245" type="line"/>
			<point x="559" y="251" type="line" smooth="yes"/>
			<point x="559" y="404"/>
			<point x="454" y="512"/>
			<point x="308" y="512" type="curve" smooth="yes"/>
			<point x="156" y="512"/>
			<point x="45" y="402"/>
			<point x="45" y="248" type="curve" smooth="yes"/>
			<point x="45" y="94"/>
			<point x="161" y="-16"/>
			<point x="323" y="-16" type="curve" smooth="yes"/>
			<point x="417" y="-16"/>
			<point x="494" y="22"/>
			<point x="546" y="86" type="curve"/>
		</contour>
		<contour>
			<point x="559" y="217" type="line"/>
			<point x="559" y="251" type="line"/>
			<point x="543" y="286" type="line"/>
			<point x="114" y="286" type="line"/>
			<point x="114" y="217" type="line"/>
		</contour>
	</outline>
	<anchor name="bottom.LC" x="308" y="-50"/>
	<anchor name="ogonek.LC.round" x="383" y="-30"/>
	<anchor name="top.LC" x="308" y="544"/>
</glyph>
<glyph name="f" format="2">
	<unicode hex="0066"/>
	<advance width="390"/>
	<outline>
		<contour>
			<point x="222" y="0" type="line"/>
			<point x="222" y="585" type="line" smooth="yes"/>
			<point x="222" y="627"/>
			<point x="239" y="645"/>
			<point x="281" y="645" type="curve" smooth="yes"/>
			<point x="360" y="645" type="line"/>
			<point x="360" y="720" type="line"/>
			<point x="255" y="720" type="line" smooth="yes"/>
			<point x="170" y="720"/>
			<point x="129" y="679"/>
			<point x="129" y="594" type="curve" smooth="yes"/>
			<point x="129" y="0" type="line"/>
		</contour>
		<contour>
			<point x="360" y="418" type="line"/>
			<point x="360" y="496" type="line"/>
			<point x="31" y="496" type="line"/>
			<point x="31" y="418" type="line"/>
		</contour>
	</outline>
</glyph>
<glyph name="g" format="2">
	<unicode hex="0067"/>
	<advance width="639"/>
	<outline>
		<contour>
			<point x="573" y="48" type="curve" smooth="yes"/>
			<point x="573" y="496" type="line"/>
			<point x="481" y="496" type="line"/>
			<point x="481" y="344" type="line"/>
			<point x="502" y="344" type="line"/>
			<point x="484" y="454"/>
			<point x="396" y="512"/>
			<point x="295" y="512" type="curve" smooth="yes"/>
			<point x="156" y="512"/>
			<point x="45" y="403"/>
			<point x="45" y="252" type="curve" smooth="yes"/>
			<point x="45" y="100"/>
			<point x="153" y="-5"/>
			<point x="298" y="-5" type="curve" smooth="yes"/>
			<point x="428" y="-5"/>
			<point x="521" y="83"/>
			<point x="508" y="204" type="curve"/>
			<point x="489" y="223" type="line"/>
			<point x="480" y="136"/>
			<point x="404" y="75"/>
			<point x="314" y="75" type="curve" smooth="yes"/>
			<point x="211" y="75"/>
			<point x="142" y="148"/>
			<point x="142" y="252" type="curve" smooth="yes"/>
			<point x="142" y="354"/>
			<point x="211" y="432"/>
			<point x="310" y="432" type="curve" smooth="yes"/>
			<point x="401" y="432"/>
			<point x="480" y="364"/>
			<point x="480" y="237" type="curve" smooth="yes"/>
			<point x="480" y="46" type="line" smooth="yes"/>
			<point x="480" y="-60"/>
			<point x="409" y="-131"/>
			<point x="304" y="-131" type="curve" smooth="yes"/>
			<point x="229" y="-131"/>
			<point x="177" y="-102"/>
			<point x="139" y="-56" type="curve"/>
			<point x="81" y="-118" type="line"/>
			<point x="131" y="-175"/>
			<point x="211" y="-210"/>
			<point x="306" y="-210" type="curve" smooth="yes"/>
			<point x="461" y="-210"/>
			<point x="573" y="-104"/>
		</contour>
	</outline>
	<anchor name="top.LC" x="311" y="544"/>
</glyph>
<glyph name="h" format="2">
	<unicode hex="0068"/>
	<advance width="589"/>
	<outline>
		<contour>
			<point x="530" y="0" type="line"/>
			<point x="530" y="296" type="line" smooth="yes"/>
			<point x="530" y="436"/>
			<point x="456" y="512"/>
			<point x="336" y="512" type="curve" smooth="yes"/>
			<point x="250" y="512"/>
			<point x="166" y="470"/>
			<point x="145" y="344" type="curve"/>
			<point x="159" y="344" type="line"/>
			<point x="159" y="720" type="line"/>
			<point x="66" y="720" type="line"/>
			<point x="66" y="0" type="line"/>
			<point x="159" y="0" type="line"/>
			<point x="159" y="229" type="line" smooth="yes"/>
			<point x="159" y="372"/>
			<point x="234" y="432"/>
			<point x="315" y="432" type="curve" smooth="yes"/>
			<point x="389" y="432"/>
			<point x="437" y="383"/>
			<point x="437" y="286" type="curve" smooth="yes"/>
			<point x="437" y="0" type="line"/>
		</contour>
	</outline>
	<anchor name="bottom.LC" x="298" y="-50"/>
</glyph>
<glyph name="i" format="1">
  <advance width="225"/>
  <unicode hex="0069"/>
  <outline>
    <contour>
      <point x="159" y="0" type="line"/>
      <point x="159" y="496" type="line"/>
      <point x="66" y="496" type="line"/>
      <point x="66" y="0" type="line"/>
    </contour>
    <contour>
      <point x="113" y="613" type="curve" smooth="yes"/>
      <point x="147" y="613"/>
      <point x="175" y="640"/>
      <point x="175" y="674" type="curve" smooth="yes"/>
      <point x="175" y="708"/>
      <point x="147" y="736"/>
      <point x="113" y="736" type="curve" smooth="yes"/>
      <point x="78" y="736"/>
      <point x="50" y="708"/>
      <point x="50" y="674" type="curve" smooth="yes"/>
      <point x="50" y="640"/>
      <point x="78" y="613"/>
    </contour>
    <contour>
      <point x="113" y="-50" type="move" name="bottom.LC"/>
    </contour>
    <contour>
      <point x="53" y="-30" type="move" name="ogonek.LC"/>
    </contour>
  </outline>
</glyph>
<glyph name="j" format="1">
  <advance width="225"/>
  <unicode hex="006A"/>
  <outline>
    <contour>
      <point x="-27" y="-194" type="line"/>
      <point x="33" y="-194" type="line" smooth="yes"/>
      <point x="118" y="-194"/>
      <point x="159" y="-153"/>
      <point x="159" y="-68" type="curve" smooth="yes"/>
      <point x="159" y="496" type="line"/>
      <point x="66" y="496" type="line"/>
      <point x="66" y="-56" type="line" smooth="yes"/>
      <point x="66" y="-98"/>
      <point x="49" y="-116"/>
      <point x="7" y="-116" type="curve" smooth="yes"/>
      <point x="-27" y="-116" type="line"/>
    </contour>
    <contour>
      <point x="113" y="613" type="curve" smooth="yes"/>
      <point x="147" y="613"/>
      <point x="175" y="640"/>
      <point x="175" y="674" type="curve" smooth="yes"/>
      <point x="175" y="708"/>
      <point x="147" y="736"/>
      <point x="113" y="736" type="curve" smooth="yes"/>
      <point x="78" y="736"/>
      <point x="50" y="708"/>
      <point x="50" y="674" type="curve" smooth="yes"/>
      <point x="50" y="640"/>
      <point x="78" y="613"/>
    </contour>
  </outline>
</glyph>
<glyph name="k" format="1">
  <advance width="566"/>
  <unicode hex="006B"/>
  <outline>
    <contour>
      <point x="159" y="0" type="line"/>
      <point x="159" y="720" type="line"/>
      <point x="66" y="720" type="line"/>
      <point x="66" y="0" type="line"/>
    </contour>
    <contour>
      <point x="553" y="0" type="line"/>
      <point x="246" y="266" type="line"/>
      <point x="246" y="248" type="line"/>
      <point x="524" y="496" type="line"/>
      <point x="404" y="496" type="line"/>
      <point x="142" y="257" type="line"/>
      <point x="132" y="257" type="line"/>
      <point x="424" y="0" type="line"/>
    </contour>
    <contour>
      <point x="297" y="-50" type="move" name="bottom.LC"/>
    </contour>
  </outline>
</glyph>
<glyph name="l" format="2">
	<unicode hex="006C"/>
	<advance width="225"/>
	<outline>
		<contour>
			<point x="159" y="0" type="line"/>
			<point x="159" y="720" type="line"/>
			<point x="66" y="720" type="line"/>
			<point x="66" y="0" type="line"/>
		</contour>
	</outline>
	<anchor name="bottom.LC" x="113" y="-50"/>
	<anchor name="top.LC" x="113" y="766"/>
	<anchor name="top_right" x="266" y="540"/>
</glyph>
<glyph name="m" format="1">
  <advance width="920"/>
  <unicode hex="006D"/>
  <outline>
    <contour>
      <point x="860" y="0" type="line"/>
      <point x="860" y="296" type="line" smooth="yes"/>
      <point x="860" y="436"/>
      <point x="790" y="512"/>
      <point x="672" y="512" type="curve" smooth="yes"/>
      <point x="591" y="512"/>
      <point x="509" y="472"/>
      <point x="482" y="366" type="curve"/>
      <point x="494" y="366" type="line"/>
      <point x="476" y="461"/>
      <point x="416" y="512"/>
      <point x="327" y="512" type="curve" smooth="yes"/>
      <point x="252" y="512"/>
      <point x="178" y="477"/>
      <point x="150" y="376" type="curve"/>
      <point x="158" y="375" type="line"/>
      <point x="158" y="496" type="line"/>
      <point x="66" y="496" type="line"/>
      <point x="66" y="0" type="line"/>
      <point x="159" y="0" type="line"/>
      <point x="159" y="230" type="line" smooth="yes"/>
      <point x="159" y="372"/>
      <point x="229" y="432"/>
      <point x="305" y="432" type="curve" smooth="yes"/>
      <point x="373" y="432"/>
      <point x="417" y="383"/>
      <point x="417" y="287" type="curve" smooth="yes"/>
      <point x="417" y="0" type="line"/>
      <point x="510" y="0" type="line"/>
      <point x="510" y="230" type="line" smooth="yes"/>
      <point x="510" y="372"/>
      <point x="580" y="432"/>
      <point x="655" y="432" type="curve" smooth="yes"/>
      <point x="724" y="432"/>
      <point x="767" y="383"/>
      <point x="767" y="287" type="curve" smooth="yes"/>
      <point x="767" y="0" type="line"/>
    </contour>
  </outline>
</glyph>
<glyph name="n" format="1">
  <advance width="589"/>
  <unicode hex="006E"/>
  <outline>
    <contour>
      <point x="530" y="0" type="line"/>
      <point x="530" y="296" type="line" smooth="yes"/>
      <point x="530" y="436"/>
      <point x="456" y="512"/>
      <point x="336" y="512" type="curve" smooth="yes"/>
      <point x="250" y="512"/>
      <point x="165" y="470"/>
      <point x="144" y="344" type="curve"/>
      <point x="158" y="344" type="line"/>
      <point x="158" y="496" type="line"/>
      <point x="66" y="496" type="line"/>
      <point x="66" y="0" type="line"/>
      <point x="159" y="0" type="line"/>
      <point x="159" y="229" type="line" smooth="yes"/>
      <point x="159" y="372"/>
      <point x="234" y="432"/>
      <point x="315" y="432" type="curve" smooth="yes"/>
      <point x="389" y="432"/>
      <point x="437" y="383"/>
      <point x="437" y="286" type="curve" smooth="yes"/>
      <point x="437" y="0" type="line"/>
    </contour>
    <contour>
      <point x="298" y="-50" type="move" name="bottom.LC"/>
    </contour>
    <contour>
      <point x="313" y="544" type="move" name="top.LC"/>
    </contour>
  </outline>
</glyph>
<glyph name="o" format="2">
	<unicode hex="006F"/>
	<advance width="621"/>
	<outline>
		<contour>
			<point x="311" y="-16" type="curve" smooth="yes"/>
			<point x="466" y="-16"/>
			<point x="577" y="94"/>
			<point x="577" y="248" type="curve" smooth="yes"/>
			<point x="577" y="401"/>
			<point x="466" y="512"/>
			<point x="311" y="512" type="curve" smooth="yes"/>
			<point x="155" y="512"/>
			<point x="45" y="401"/>
			<point x="45" y="248" type="curve" smooth="yes"/>
			<point x="45" y="94"/>
			<point x="155" y="-16"/>
		</contour>
		<contour>
			<point x="311" y="64" type="curve" smooth="yes"/>
			<point x="210" y="64"/>
			<point x="142" y="139"/>
			<point x="142" y="248" type="curve" smooth="yes"/>
			<point x="142" y="356"/>
			<point x="210" y="432"/>
			<point x="311" y="432" type="curve" smooth="yes"/>
			<point x="411" y="432"/>
			<point x="479" y="356"/>
			<point x="479" y="248" type="curve" smooth="yes"/>
			<point x="479" y="139"/>
			<point x="411" y="64"/>
		</contour>
	</outline>
	<anchor name="bottom.LC" x="311" y="-50"/>
	<anchor name="top.LC" x="311" y="544"/>
	<anchor name="topright.LC" x="457" y="493"/>
</glyph>
<glyph name="p" format="2">
	<unicode hex="0070"/>
	<advance width="639"/>
	<outline>
		<contour>
			<point x="159" y="-194" type="line"/>
			<point x="159" y="237" type="line" smooth="yes"/>
			<point x="159" y="353"/>
			<point x="231" y="432"/>
			<point x="331" y="432" type="curve" smooth="yes"/>
			<point x="431" y="432"/>
			<point x="497" y="354"/>
			<point x="497" y="248" type="curve" smooth="yes"/>
			<point x="497" y="140"/>
			<point x="427" y="64"/>
			<point x="325" y="64" type="curve" smooth="yes"/>
			<point x="233" y="64"/>
			<point x="159" y="126"/>
			<point x="150" y="212" type="curve"/>
			<point x="131" y="193" type="line"/>
			<point x="119" y="75"/>
			<point x="208" y="-16"/>
			<point x="341" y="-16" type="curve" smooth="yes"/>
			<point x="486" y="-16"/>
			<point x="594" y="94"/>
			<point x="594" y="248" type="curve" smooth="yes"/>
			<point x="594" y="400"/>
			<point x="489" y="512"/>
			<point x="346" y="512" type="curve" smooth="yes"/>
			<point x="239" y="512"/>
			<point x="153" y="443"/>
			<point x="137" y="344" type="curve"/>
			<point x="158" y="344" type="line"/>
			<point x="158" y="496" type="line"/>
			<point x="66" y="496" type="line"/>
			<point x="66" y="-194" type="line"/>
		</contour>
	</outline>
</glyph>
<glyph name="q" format="1">
  <advance width="639"/>
  <unicode hex="0071"/>
  <outline>
    <contour>
      <point x="573" y="-194" type="line"/>
      <point x="573" y="496" type="line"/>
      <point x="481" y="496" type="line"/>
      <point x="481" y="344" type="line"/>
      <point x="502" y="344" type="line"/>
      <point x="486" y="445"/>
      <point x="404" y="512"/>
      <point x="295" y="512" type="curve" smooth="yes"/>
      <point x="153" y="512"/>
      <point x="45" y="400"/>
      <point x="45" y="248" type="curve" smooth="yes"/>
      <point x="45" y="94"/>
      <point x="153" y="-16"/>
      <point x="298" y="-16" type="curve" smooth="yes"/>
      <point x="431" y="-16"/>
      <point x="520" y="75"/>
      <point x="508" y="193" type="curve"/>
      <point x="489" y="212" type="line"/>
      <point x="480" y="126"/>
      <point x="406" y="64"/>
      <point x="314" y="64" type="curve" smooth="yes"/>
      <point x="212" y="64"/>
      <point x="142" y="140"/>
      <point x="142" y="248" type="curve" smooth="yes"/>
      <point x="142" y="354"/>
      <point x="211" y="432"/>
      <point x="310" y="432" type="curve" smooth="yes"/>
      <point x="410" y="432"/>
      <point x="480" y="353"/>
      <point x="480" y="237" type="curve" smooth="yes"/>
      <point x="480" y="-194" type="line"/>
    </contour>
  </outline>
</glyph>
<glyph name="r" format="1">
  <advance width="375"/>
  <unicode hex="0072"/>
  <outline>
    <contour>
      <point x="346" y="504" type="line"/>
      <point x="333" y="504" type="line" smooth="yes"/>
      <point x="252" y="504"/>
      <point x="166" y="462"/>
      <point x="144" y="337" type="curve"/>
      <point x="158" y="337" type="line"/>
      <point x="158" y="496" type="line"/>
      <point x="66" y="496" type="line"/>
      <point x="66" y="0" type="line"/>
      <point x="159" y="0" type="line"/>
      <point x="159" y="209" type="line" smooth="yes"/>
      <point x="159" y="355"/>
      <point x="234" y="416"/>
      <point x="324" y="416" type="curve" smooth="yes"/>
      <point x="346" y="416" type="line"/>
    </contour>
    <contour>
      <point x="212" y="544" type="move" name="top.LC"/>
    </contour>
  </outline>
</glyph>
<glyph name="s" format="1">
  <advance width="523"/>
  <unicode hex="0073"/>
  <outline>
    <contour>
      <point x="26" y="76" type="line"/>
      <point x="86" y="18"/>
      <point x="164" y="-16"/>
      <point x="261" y="-16" type="curve" smooth="yes"/>
      <point x="389" y="-16"/>
      <point x="481" y="48"/>
      <point x="481" y="144" type="curve" smooth="yes"/>
      <point x="481" y="231"/>
      <point x="419" y="276"/>
      <point x="269" y="297" type="curve" smooth="yes"/>
      <point x="175" y="310"/>
      <point x="142" y="327"/>
      <point x="142" y="362" type="curve" smooth="yes"/>
      <point x="142" y="407"/>
      <point x="189" y="437"/>
      <point x="258" y="437" type="curve" smooth="yes"/>
      <point x="322" y="437"/>
      <point x="376" y="407"/>
      <point x="416" y="361" type="curve"/>
      <point x="474" y="421" type="line"/>
      <point x="420" y="477"/>
      <point x="349" y="512"/>
      <point x="258" y="512" type="curve" smooth="yes"/>
      <point x="136" y="512"/>
      <point x="49" y="450"/>
      <point x="49" y="357" type="curve" smooth="yes"/>
      <point x="49" y="279"/>
      <point x="107" y="237"/>
      <point x="255" y="216" type="curve" smooth="yes"/>
      <point x="353" y="202"/>
      <point x="389" y="182"/>
      <point x="389" y="139" type="curve" smooth="yes"/>
      <point x="389" y="92"/>
      <point x="337" y="59"/>
      <point x="263" y="59" type="curve" smooth="yes"/>
      <point x="192" y="59"/>
      <point x="131" y="88"/>
      <point x="85" y="136" type="curve"/>
    </contour>
    <contour>
      <point x="258" y="-50" type="move" name="bottom.LC"/>
    </contour>
    <contour>
      <point x="258" y="544" type="move" name="top.LC"/>
    </contour>
  </outline>
</glyph>
<glyph name="u" format="2">
	<unicode hex="0075"/>
	<advance width="587"/>
	<outline>
		<contour>
			<point x="521" y="0" type="line"/>
			<point x="521" y="496" type="line"/>
			<point x="428" y="496" type="line"/>
			<point x="428" y="124" type="line"/>
			<point x="429" y="96" type="line"/>
			<point x="429" y="0" type="line"/>
		</contour>
		<contour>
			<point x="437" y="212" type="line"/>
			<point x="429" y="123"/>
			<point x="358" y="64"/>
			<point x="276" y="64" type="curve" smooth="yes"/>
			<point x="199" y="64"/>
			<point x="153" y="110"/>
			<point x="153" y="200" type="curve" smooth="yes"/>
			<point x="153" y="496" type="line"/>
			<point x="60" y="496" type="line"/>
			<point x="60" y="190" type="line" smooth="yes"/>
			<point x="60" y="56"/>
			<point x="136" y="-16"/>
			<point x="255" y="-16" type="curve" smooth="yes"/>
			<point x="377" y="-16"/>
			<point x="463" y="70"/>
			<point x="456" y="192" type="curve"/>
		</contour>
	</outline>
	<anchor name="bottom.LC" x="290" y="-50"/>
	<anchor name="ogonek.LC" x="415" y="-30"/>
	<anchor name="top.LC" x="290" y="544"/>
	<anchor name="topright.LC" x="440" y="544"/>
</glyph>
<glyph name="v" format="1">
  <advance width="555"/>
  <unicode hex="0076"/>
  <outline>
    <contour>
      <point x="323" y="0" type="line"/>
      <point x="536" y="496" type="line"/>
      <point x="441" y="496" type="line"/>
      <point x="263" y="56" type="line"/>
      <point x="295" y="56" type="line"/>
      <point x="118" y="496" type="line"/>
      <point x="19" y="496" type="line"/>
      <point x="232" y="0" type="line"/>
    </contour>
  </outline>
</glyph>
<glyph name="w" format="2">
	<unicode hex="0077"/>
	<advance width="790"/>
	<outline>
		<contour>
			<point x="613" y="0" type="line"/>
			<point x="771" y="496" type="line"/>
			<point x="679" y="496" type="line"/>
			<point x="548" y="46" type="line"/>
			<point x="578" y="46" type="line"/>
			<point x="441" y="496" type="line"/>
			<point x="353" y="496" type="line"/>
			<point x="214" y="46" type="line"/>
			<point x="245" y="46" type="line"/>
			<point x="113" y="496" type="line"/>
			<point x="19" y="496" type="line"/>
			<point x="177" y="0" type="line"/>
			<point x="277" y="0" type="line"/>
			<point x="406" y="415" type="line"/>
			<point x="383" y="415" type="line"/>
			<point x="512" y="0" type="line"/>
		</contour>
	</outline>
	<anchor name="top.LC" x="395" y="544"/>
</glyph>
<glyph name="x" format="2">
	<unicode hex="0078"/>
	<advance width="529"/>
	<outline>
		<contour>
			<point x="119" y="0" type="line"/>
			<point x="265" y="200" type="line"/>
			<point x="409" y="0" type="line"/>
			<point x="518" y="0" type="line"/>
			<point x="324" y="257" type="line"/>
			<point x="500" y="496" type="line"/>
			<point x="394" y="496" type="line"/>
			<point x="265" y="311" type="line"/>
			<point x="135" y="496" type="line"/>
			<point x="29" y="496" type="line"/>
			<point x="205" y="257" type="line"/>
			<point x="12" y="0" type="line"/>
		</contour>
	</outline>
</glyph>
<glyph name="y" format="2">
	<unicode hex="0079"/>
	<advance width="555"/>
	<outline>
		<contour>
			<point x="441" y="496" type="line"/>
			<point x="261" y="51" type="line"/>
			<point x="297" y="51" type="line"/>
			<point x="118" y="496" type="line"/>
			<point x="19" y="496" type="line"/>
			<point x="233" y="-2" type="line"/>
			<point x="212" y="-55" type="line" smooth="yes"/>
			<point x="194" y="-95"/>
			<point x="169" y="-116"/>
			<point x="127" y="-116" type="curve" smooth="yes"/>
			<point x="75" y="-116" type="line"/>
			<point x="75" y="-194" type="line"/>
			<point x="129" y="-194" type="line" smooth="yes"/>
			<point x="217" y="-194"/>
			<point x="258" y="-153"/>
			<point x="289" y="-79" type="curve" smooth="yes"/>
			<point x="536" y="496" type="line"/>
		</contour>
	</outline>
	<anchor name="bottom.LC" x="395" y="-50"/>
	<anchor name="top.LC" x="278" y="544"/>
</glyph>
<glyph name="z" format="2">
	<unicode hex="007A"/>
	<advance width="498"/>
	<outline>
		<contour>
			<point x="460" y="0" type="line"/>
			<point x="460" y="76" type="line"/>
			<point x="153" y="76" type="line"/>
			<point x="450" y="419" type="line"/>
			<point x="450" y="496" type="line"/>
			<point x="49" y="496" type="line"/>
			<point x="49" y="419" type="line"/>
			<point x="337" y="419" type="line"/>
			<point x="39" y="76" type="line"/>
			<point x="39" y="0" type="line"/>
		</contour>
	</outline>
	<anchor name="top.LC" x="247" y="544"/>
</glyph>
<glyph name="braceleft" format="1">
  <advance width="390"/>
  <unicode hex="007B"/>
  <outline>
    <contour>
      <point x="348" y="-54" type="line"/>
      <point x="288" y="-54" type="line" smooth="yes"/>
      <point x="247" y="-54"/>
      <point x="230" y="-36"/>
      <point x="230" y="6" type="curve" smooth="yes"/>
      <point x="230" y="187" type="line" smooth="yes"/>
      <point x="230" y="272"/>
      <point x="188" y="314"/>
      <point x="103" y="314" type="curve"/>
      <point x="103" y="290" type="line"/>
      <point x="188" y="290"/>
      <point x="230" y="331"/>
      <point x="230" y="416" type="curve" smooth="yes"/>
      <point x="230" y="596" type="line" smooth="yes"/>
      <point x="230" y="638"/>
      <point x="247" y="656"/>
      <point x="288" y="656" type="curve" smooth="yes"/>
      <point x="348" y="656" type="line"/>
      <point x="348" y="731" type="line"/>
      <point x="264" y="731" type="line" smooth="yes"/>
      <point x="179" y="731"/>
      <point x="138" y="690"/>
      <point x="138" y="605" type="curve" smooth="yes"/>
      <point x="138" y="399" type="line" smooth="yes"/>
      <point x="138" y="357"/>
      <point x="121" y="340"/>
      <point x="79" y="340" type="curve" smooth="yes"/>
      <point x="42" y="340" type="line"/>
      <point x="42" y="264" type="line"/>
      <point x="79" y="264" type="line" smooth="yes"/>
      <point x="121" y="264"/>
      <point x="138" y="246"/>
      <point x="138" y="205" type="curve" smooth="yes"/>
      <point x="138" y="-3" type="line" smooth="yes"/>
      <point x="138" y="-88"/>
      <point x="179" y="-129"/>
      <point x="264" y="-129" type="curve" smooth="yes"/>
      <point x="348" y="-129" type="line"/>
    </contour>
  </outline>
</glyph>
<glyph name="bar" format="1">
  <advance width="222"/>
  <unicode hex="007C"/>
  <outline>
    <contour>
      <point x="157" y="-129" type="line"/>
      <point x="157" y="736" type="line"/>
      <point x="65" y="736" type="line"/>
      <point x="65" y="-129" type="line"/>
    </contour>
  </outline>
</glyph>
<glyph name="braceright" format="2">
	<unicode hex="007D"/>
	<advance width="390"/>
	<outline>
		<contour>
			<point x="42" y="-129" type="line"/>
			<point x="127" y="-129" type="line" smooth="yes"/>
			<point x="212" y="-129"/>
			<point x="253" y="-88"/>
			<point x="253" y="-3" type="curve" smooth="yes"/>
			<point x="253" y="205" type="line" smooth="yes"/>
			<point x="253" y="246"/>
			<point x="270" y="264"/>
			<point x="312" y="264" type="curve" smooth="yes"/>
			<point x="348" y="264" type="line"/>
			<point x="348" y="340" type="line"/>
			<point x="312" y="340" type="line" smooth="yes"/>
			<point x="270" y="340"/>
			<point x="253" y="357"/>
			<point x="253" y="399" type="curve" smooth="yes"/>
			<point x="253" y="605" type="line" smooth="yes"/>
			<point x="253" y="690"/>
			<point x="212" y="731"/>
			<point x="127" y="731" type="curve" smooth="yes"/>
			<point x="42" y="731" type="line"/>
			<point x="42" y="656" type="line"/>
			<point x="102" y="656" type="line" smooth="yes"/>
			<point x="144" y="656"/>
			<point x="161" y="638"/>
			<point x="161" y="596" type="curve" smooth="yes"/>
			<point x="161" y="416" type="line" smooth="yes"/>
			<point x="161" y="331"/>
			<point x="202" y="290"/>
			<point x="287" y="290" type="curve"/>
			<point x="287" y="314" type="line"/>
			<point x="202" y="314"/>
			<point x="161" y="272"/>
			<point x="161" y="187" type="curve" smooth="yes"/>
			<point x="161" y="6" type="line" smooth="yes"/>
			<point x="161" y="-36"/>
			<point x="144" y="-54"/>
			<point x="102" y="-54" type="curve" smooth="yes"/>
			<point x="42" y="-54" type="line"/>
		</contour>
	</outline>
</glyph>
<glyph name="asciitilde" format="1">
  <advance width="660"/>
  <unicode hex="007E"/>
  <outline>
    <contour>
      <point x="498" y="445" type="line"/>
      <point x="487" y="382"/>
      <point x="466" y="345"/>
      <point x="429" y="345" type="curve" smooth="yes"/>
      <point x="412" y="345"/>
      <point x="398" y="353"/>
      <point x="344" y="395" type="curve" smooth="yes"/>
      <point x="292" y="436"/>
      <point x="255" y="450"/>
      <point x="228" y="450" type="curve" smooth="yes"/>
      <point x="157" y="450"/>
      <point x="113" y="405"/>
      <point x="89" y="301" type="curve"/>
      <point x="161" y="269" type="line"/>
      <point x="172" y="332"/>
      <point x="193" y="369"/>
      <point x="230" y="369" type="curve" smooth="yes"/>
      <point x="247" y="369"/>
      <point x="261" y="361"/>
      <point x="316" y="319" type="curve" smooth="yes"/>
      <point x="367" y="278"/>
      <point x="405" y="264"/>
      <point x="431" y="264" type="curve" smooth="yes"/>
      <point x="502" y="264"/>
      <point x="546" y="309"/>
      <point x="570" y="413" type="curve"/>
    </contour>
  </outline>
</glyph>
<glyph name="exclamdown" format="1">
  <advance width="235"/>
  <unicode hex="00A1"/>
  <outline>
    <contour>
      <point x="53" y="432" type="curve" smooth="yes"/>
      <point x="53" y="396"/>
      <point x="81" y="367"/>
      <point x="117" y="367" type="curve" smooth="yes"/>
      <point x="153" y="367"/>
      <point x="182" y="396"/>
      <point x="182" y="432" type="curve" smooth="yes"/>
      <point x="182" y="467"/>
      <point x="153" y="496"/>
      <point x="117" y="496" type="curve" smooth="yes"/>
      <point x="81" y="496"/>
      <point x="53" y="467"/>
    </contour>
    <contour>
      <point x="91" y="275" type="line"/>
      <point x="86" y="208"/>
      <point x="63" y="-170"/>
      <point x="63" y="-193" type="curve" smooth="yes"/>
      <point x="63" y="-223"/>
      <point x="87" y="-245"/>
      <point x="117" y="-245" type="curve" smooth="yes"/>
      <point x="148" y="-245"/>
      <point x="172" y="-223"/>
      <point x="172" y="-193" type="curve" smooth="yes"/>
      <point x="172" y="-170"/>
      <point x="149" y="208"/>
      <point x="143" y="275" type="curve"/>
    </contour>
  </outline>
</glyph>
<glyph name="cent" format="2">
	<unicode hex="00A2"/>
	<advance width="660"/>
	<outline>
		<contour>
			<point x="506" y="139" type="line"/>
			<point x="475" y="93"/>
			<point x="429" y="61"/>
			<point x="362" y="61" type="curve" smooth="yes"/>
			<point x="260" y="61"/>
			<point x="188" y="138"/>
			<point x="188" y="248" type="curve" smooth="yes"/>
			<point x="188" y="357"/>
			<point x="260" y="434"/>
			<point x="362" y="434" type="curve" smooth="yes"/>
			<point x="429" y="434"/>
			<point x="475" y="402"/>
			<point x="506" y="357" type="curve"/>
			<point x="566" y="415" type="line"/>
			<point x="518" y="475"/>
			<point x="448" y="512"/>
			<point x="359" y="512" type="curve" smooth="yes"/>
			<point x="206" y="512"/>
			<point x="94" y="401"/>
			<point x="94" y="248" type="curve" smooth="yes"/>
			<point x="94" y="95"/>
			<point x="205" y="-16"/>
			<point x="358" y="-16" type="curve" smooth="yes"/>
			<point x="447" y="-16"/>
			<point x="518" y="20"/>
			<point x="566" y="81" type="curve"/>
		</contour>
		<contour>
			<point x="390" y="-116" type="line"/>
			<point x="390" y="612" type="line"/>
			<point x="324" y="612" type="line"/>
			<point x="324" y="-116" type="line"/>
		</contour>
	</outline>
</glyph>
<glyph name="sterling" format="1">
  <advance width="660"/>
  <unicode hex="00A3"/>
  <outline>
    <contour>
      <point x="612" y="0" type="line"/>
      <point x="612" y="78" type="line"/>
      <point x="63" y="78" type="line"/>
      <point x="63" y="0" type="line"/>
    </contour>
    <contour>
      <point x="500" y="314" type="line"/>
      <point x="500" y="390" type="line"/>
      <point x="73" y="390" type="line"/>
      <point x="73" y="314" type="line"/>
    </contour>
    <contour>
      <point x="613" y="611" type="line"/>
      <point x="562" y="688"/>
      <point x="490" y="731"/>
      <point x="400" y="731" type="curve" smooth="yes"/>
      <point x="259" y="731"/>
      <point x="174" y="633"/>
      <point x="174" y="489" type="curve" smooth="yes"/>
      <point x="174" y="40" type="line"/>
      <point x="266" y="40" type="line"/>
      <point x="266" y="491" type="line" smooth="yes"/>
      <point x="266" y="588"/>
      <point x="314" y="651"/>
      <point x="400" y="651" type="curve" smooth="yes"/>
      <point x="459" y="651"/>
      <point x="505" y="620"/>
      <point x="548" y="552" type="curve"/>
    </contour>
  </outline>
</glyph>
<glyph name="currency" format="2">
	<unicode hex="00A4"/>
	<advance width="617"/>
	<outline>
		<contour>
			<point x="309" y="231" type="curve" smooth="yes"/>
			<point x="230" y="231"/>
			<point x="171" y="293"/>
			<point x="171" y="376" type="curve" smooth="yes"/>
			<point x="171" y="459"/>
			<point x="230" y="520"/>
			<point x="309" y="520" type="curve" smooth="yes"/>
			<point x="387" y="520"/>
			<point x="446" y="459"/>
			<point x="446" y="376" type="curve" smooth="yes"/>
			<point x="446" y="293"/>
			<point x="387" y="231"/>
		</contour>
		<contour>
			<point x="309" y="161" type="curve" smooth="yes"/>
			<point x="356" y="161"/>
			<point x="399" y="175"/>
			<point x="434" y="200" type="curve"/>
			<point x="509" y="126" type="line"/>
			<point x="556" y="174" type="line"/>
			<point x="483" y="247" type="line"/>
			<point x="508" y="283"/>
			<point x="524" y="328"/>
			<point x="524" y="376" type="curve" smooth="yes"/>
			<point x="524" y="424"/>
			<point x="508" y="469"/>
			<point x="483" y="504" type="curve"/>
			<point x="556" y="578" type="line"/>
			<point x="509" y="626" type="line"/>
			<point x="434" y="551" type="line"/>
			<point x="399" y="576"/>
			<point x="356" y="591"/>
			<point x="309" y="591" type="curve" smooth="yes"/>
			<point x="262" y="591"/>
			<point x="218" y="576"/>
			<point x="183" y="551" type="curve"/>
			<point x="109" y="626" type="line"/>
			<point x="61" y="578" type="line"/>
			<point x="135" y="504" type="line"/>
			<point x="109" y="469"/>
			<point x="93" y="424"/>
			<point x="93" y="376" type="curve" smooth="yes"/>
			<point x="93" y="328"/>
			<point x="109" y="283"/>
			<point x="135" y="247" type="curve"/>
			<point x="61" y="174" type="line"/>
			<point x="109" y="126" type="line"/>
			<point x="183" y="200" type="line"/>
			<point x="218" y="175"/>
			<point x="262" y="161"/>
		</contour>
	</outline>
</glyph>
<glyph name="yen" format="1">
  <advance width="660"/>
  <unicode hex="00A5"/>
  <outline>
    <contour>
      <point x="376" y="0" type="line"/>
      <point x="376" y="314" type="line"/>
      <point x="634" y="715" type="line"/>
      <point x="531" y="715" type="line"/>
      <point x="318" y="373" type="line"/>
      <point x="344" y="373" type="line"/>
      <point x="132" y="715" type="line"/>
      <point x="26" y="715" type="line"/>
      <point x="284" y="316" type="line"/>
      <point x="284" y="0" type="line"/>
    </contour>
    <contour>
      <point x="548" y="119" type="line"/>
      <point x="548" y="191" type="line"/>
      <point x="113" y="191" type="line"/>
      <point x="113" y="119" type="line"/>
    </contour>
    <contour>
      <point x="548" y="277" type="line"/>
      <point x="548" y="350" type="line"/>
      <point x="113" y="350" type="line"/>
      <point x="113" y="277" type="line"/>
    </contour>
  </outline>
</glyph>
<glyph name="brokenbar" format="2">
	<unicode hex="00A6"/>
	<advance width="222"/>
	<outline>
		<contour>
			<point x="157" y="-129" type="line"/>
			<point x="157" y="217" type="line"/>
			<point x="65" y="217" type="line"/>
			<point x="65" y="-129" type="line"/>
		</contour>
		<contour>
			<point x="157" y="390" type="line"/>
			<point x="157" y="736" type="line"/>
			<point x="65" y="736" type="line"/>
			<point x="65" y="390" type="line"/>
		</contour>
	</outline>
</glyph>
<glyph name="section" format="1">
  <advance width="590"/>
  <unicode hex="00A7"/>
  <outline>
    <contour>
      <point x="523" y="306" type="curve" smooth="yes"/>
      <point x="523" y="395"/>
      <point x="453" y="438"/>
      <point x="318" y="471" type="curve" smooth="yes"/>
      <point x="235" y="491"/>
      <point x="198" y="520"/>
      <point x="198" y="569" type="curve" smooth="yes"/>
      <point x="198" y="623"/>
      <point x="243" y="659"/>
      <point x="306" y="659" type="curve" smooth="yes"/>
      <point x="370" y="659"/>
      <point x="423" y="627"/>
      <point x="459" y="584" type="curve"/>
      <point x="509" y="640" type="line"/>
      <point x="461" y="695"/>
      <point x="385" y="731"/>
      <point x="305" y="731" type="curve" smooth="yes"/>
      <point x="196" y="731"/>
      <point x="114" y="661"/>
      <point x="114" y="565" type="curve" smooth="yes"/>
      <point x="114" y="514"/>
      <point x="139" y="473"/>
      <point x="188" y="443" type="curve"/>
      <point x="127" y="414"/>
      <point x="89" y="364"/>
      <point x="89" y="303" type="curve" smooth="yes"/>
      <point x="89" y="214"/>
      <point x="160" y="171"/>
      <point x="295" y="138" type="curve" smooth="yes"/>
      <point x="377" y="118"/>
      <point x="416" y="89"/>
      <point x="416" y="32" type="curve" smooth="yes"/>
      <point x="416" y="-16"/>
      <point x="367" y="-55"/>
      <point x="299" y="-55" type="curve" smooth="yes"/>
      <point x="232" y="-55"/>
      <point x="166" y="-24"/>
      <point x="127" y="20" type="curve"/>
      <point x="79" y="-36" type="line"/>
      <point x="130" y="-92"/>
      <point x="212" y="-128"/>
      <point x="299" y="-128" type="curve" smooth="yes"/>
      <point x="413" y="-128"/>
      <point x="499" y="-56"/>
      <point x="499" y="36" type="curve" smooth="yes"/>
      <point x="499" y="96"/>
      <point x="473" y="136"/>
      <point x="425" y="166" type="curve"/>
      <point x="484" y="194"/>
      <point x="523" y="244"/>
    </contour>
    <contour>
      <point x="440" y="298" type="curve"/>
      <point x="440" y="250"/>
      <point x="400" y="217"/>
      <point x="354" y="201" type="curve"/>
      <point x="306" y="214" type="line" smooth="yes"/>
      <point x="217" y="236"/>
      <point x="173" y="263"/>
      <point x="173" y="313" type="curve" smooth="yes"/>
      <point x="173" y="360"/>
      <point x="212" y="392"/>
      <point x="258" y="408" type="curve"/>
      <point x="307" y="395" type="line" smooth="yes"/>
      <point x="395" y="373"/>
      <point x="439" y="346"/>
    </contour>
  </outline>
</glyph>
<glyph name="copyright" format="2">
	<unicode hex="00A9"/>
	<advance width="852"/>
	<outline>
		<contour>
			<point x="547" y="272" type="line"/>
			<point x="521" y="234"/>
			<point x="481" y="211"/>
			<point x="432" y="211" type="curve" smooth="yes"/>
			<point x="353" y="211"/>
			<point x="294" y="273"/>
			<point x="294" y="358" type="curve" smooth="yes"/>
			<point x="294" y="445"/>
			<point x="353" y="506"/>
			<point x="432" y="506" type="curve" smooth="yes"/>
			<point x="481" y="506"/>
			<point x="521" y="483"/>
			<point x="547" y="446" type="curve"/>
			<point x="597" y="495" type="line"/>
			<point x="561" y="542"/>
			<point x="502" y="572"/>
			<point x="430" y="572" type="curve" smooth="yes"/>
			<point x="307" y="572"/>
			<point x="216" y="482"/>
			<point x="216" y="358" type="curve" smooth="yes"/>
			<point x="216" y="235"/>
			<point x="305" y="145"/>
			<point x="428" y="145" type="curve" smooth="yes"/>
			<point x="500" y="145"/>
			<point x="561" y="175"/>
			<point x="597" y="222" type="curve"/>
		</contour>
		<contour>
			<point x="426" y="-26" type="curve" smooth="yes"/>
			<point x="638" y="-26"/>
			<point x="807" y="145"/>
			<point x="807" y="358" type="curve" smooth="yes"/>
			<point x="807" y="571"/>
			<point x="638" y="742"/>
			<point x="426" y="742" type="curve" smooth="yes"/>
			<point x="214" y="742"/>
			<point x="45" y="571"/>
			<point x="45" y="358" type="curve" smooth="yes"/>
			<point x="45" y="145"/>
			<point x="214" y="-26"/>
		</contour>
		<contour>
			<point x="426" y="43" type="curve" smooth="yes"/>
			<point x="253" y="43"/>
			<point x="115" y="182"/>
			<point x="115" y="358" type="curve" smooth="yes"/>
			<point x="115" y="534"/>
			<point x="253" y="673"/>
			<point x="426" y="673" type="curve" smooth="yes"/>
			<point x="599" y="673"/>
			<point x="737" y="534"/>
			<point x="737" y="358" type="curve" smooth="yes"/>
			<point x="737" y="182"/>
			<point x="599" y="43"/>
		</contour>
	</outline>
</glyph>
<glyph name="ordfeminine" format="2">
	<unicode hex="00AA"/>
	<advance width="464"/>
	<outline>
		<contour>
			<point x="404" y="313" type="line"/>
			<point x="404" y="555" type="line" smooth="yes"/>
			<point x="404" y="654"/>
			<point x="331" y="715"/>
			<point x="221" y="715" type="curve" smooth="yes"/>
			<point x="153" y="715"/>
			<point x="95" y="689"/>
			<point x="53" y="646" type="curve"/>
			<point x="101" y="594" type="line"/>
			<point x="130" y="629"/>
			<point x="171" y="649"/>
			<point x="219" y="649" type="curve" smooth="yes"/>
			<point x="284" y="649"/>
			<point x="326" y="613"/>
			<point x="326" y="553" type="curve" smooth="yes"/>
			<point x="326" y="407" type="line"/>
			<point x="329" y="391" type="line"/>
			<point x="329" y="313" type="line"/>
		</contour>
		<contour>
			<point x="189" y="301" type="curve" smooth="yes"/>
			<point x="289" y="301"/>
			<point x="361" y="368"/>
			<point x="361" y="463" type="curve"/>
			<point x="335" y="477" type="line"/>
			<point x="330" y="411"/>
			<point x="276" y="364"/>
			<point x="206" y="364" type="curve" smooth="yes"/>
			<point x="156" y="364"/>
			<point x="123" y="389"/>
			<point x="123" y="429" type="curve" smooth="yes"/>
			<point x="123" y="475"/>
			<point x="167" y="497"/>
			<point x="230" y="497" type="curve" smooth="yes"/>
			<point x="334" y="497" type="line"/>
			<point x="334" y="555" type="line"/>
			<point x="222" y="555" type="line" smooth="yes"/>
			<point x="113" y="555"/>
			<point x="39" y="507"/>
			<point x="39" y="426" type="curve" smooth="yes"/>
			<point x="39" y="353"/>
			<point x="100" y="301"/>
		</contour>
	</outline>
</glyph>
<glyph name="logicalnot" format="2">
	<unicode hex="00AC"/>
	<advance width="660"/>
	<outline>
		<contour>
			<point x="543" y="168" type="line"/>
			<point x="543" y="395" type="line"/>
			<point x="117" y="395" type="line"/>
			<point x="117" y="319" type="line"/>
			<point x="467" y="319" type="line"/>
			<point x="467" y="168" type="line"/>
		</contour>
	</outline>
</glyph>
<glyph name="registered" format="2">
	<unicode hex="00AE"/>
	<advance width="527"/>
	<outline>
		<contour>
			<point x="219" y="383" type="line"/>
			<point x="219" y="567" type="line"/>
			<point x="274" y="567" type="line" smooth="yes"/>
			<point x="300" y="567"/>
			<point x="316" y="553"/>
			<point x="316" y="534" type="curve" smooth="yes"/>
			<point x="316" y="516"/>
			<point x="300" y="502"/>
			<point x="274" y="502" type="curve" smooth="yes"/>
			<point x="216" y="502" type="line"/>
			<point x="216" y="465" type="line"/>
			<point x="274" y="465" type="line" smooth="yes"/>
			<point x="325" y="465"/>
			<point x="360" y="493"/>
			<point x="360" y="534" type="curve" smooth="yes"/>
			<point x="360" y="575"/>
			<point x="325" y="603"/>
			<point x="274" y="603" type="curve" smooth="yes"/>
			<point x="176" y="603" type="line"/>
			<point x="176" y="383" type="line"/>
		</contour>
		<contour>
			<point x="380" y="383" type="line"/>
			<point x="295" y="474" type="line"/>
			<point x="244" y="474" type="line"/>
			<point x="327" y="383" type="line"/>
		</contour>
		<contour>
			<point x="263" y="261" type="curve" smooth="yes"/>
			<point x="387" y="261"/>
			<point x="486" y="362"/>
			<point x="486" y="488" type="curve" smooth="yes"/>
			<point x="486" y="614"/>
			<point x="387" y="715"/>
			<point x="263" y="715" type="curve" smooth="yes"/>
			<point x="140" y="715"/>
			<point x="41" y="614"/>
			<point x="41" y="488" type="curve" smooth="yes"/>
			<point x="41" y="362"/>
			<point x="140" y="261"/>
		</contour>
		<contour>
			<point x="263" y="317" type="curve" smooth="yes"/>
			<point x="169" y="317"/>
			<point x="99" y="387"/>
			<point x="99" y="488" type="curve" smooth="yes"/>
			<point x="99" y="589"/>
			<point x="169" y="659"/>
			<point x="263" y="659" type="curve" smooth="yes"/>
			<point x="357" y="659"/>
			<point x="428" y="589"/>
			<point x="428" y="488" type="curve" smooth="yes"/>
			<point x="428" y="387"/>
			<point x="357" y="317"/>
		</contour>
	</outline>
</glyph>
<glyph name="degree" format="2">
	<unicode hex="00B0"/>
	<advance width="457"/>
	<outline>
		<contour>
			<point x="229" y="384" type="curve" smooth="yes"/>
			<point x="324" y="384"/>
			<point x="403" y="463"/>
			<point x="403" y="558" type="curve" smooth="yes"/>
			<point x="403" y="653"/>
			<point x="324" y="731"/>
			<point x="229" y="731" type="curve" smooth="yes"/>
			<point x="133" y="731"/>
			<point x="55" y="653"/>
			<point x="55" y="558" type="curve" smooth="yes"/>
			<point x="55" y="463"/>
			<point x="133" y="384"/>
		</contour>
		<contour>
			<point x="229" y="455" type="curve" smooth="yes"/>
			<point x="174" y="455"/>
			<point x="131" y="500"/>
			<point x="131" y="558" type="curve" smooth="yes"/>
			<point x="131" y="615"/>
			<point x="174" y="660"/>
			<point x="229" y="660" type="curve" smooth="yes"/>
			<point x="283" y="660"/>
			<point x="326" y="615"/>
			<point x="326" y="558" type="curve" smooth="yes"/>
			<point x="326" y="500"/>
			<point x="283" y="455"/>
		</contour>
	</outline>
</glyph>
<glyph name="micro" format="2">
	<unicode hex="00B5"/>
	<advance width="660"/>
	<outline>
		<contour>
			<point x="561" y="0" type="line"/>
			<point x="561" y="496" type="line"/>
			<point x="468" y="496" type="line"/>
			<point x="468" y="124" type="line"/>
			<point x="469" y="96" type="line"/>
			<point x="469" y="0" type="line"/>
		</contour>
		<contour>
			<point x="149" y="64" type="line"/>
			<point x="176" y="12"/>
			<point x="230" y="-16"/>
			<point x="301" y="-16" type="curve" smooth="yes"/>
			<point x="417" y="-16"/>
			<point x="503" y="70"/>
			<point x="496" y="192" type="curve"/>
			<point x="477" y="212" type="line"/>
			<point x="469" y="123"/>
			<point x="398" y="64"/>
			<point x="316" y="64" type="curve" smooth="yes"/>
			<point x="239" y="64"/>
			<point x="193" y="110"/>
			<point x="193" y="200" type="curve" smooth="yes"/>
			<point x="193" y="496" type="line"/>
			<point x="100" y="496" type="line"/>
			<point x="100" y="-194" type="line"/>
			<point x="193" y="-194" type="line"/>
			<point x="193" y="90" type="line"/>
		</contour>
	</outline>
</glyph>
<glyph name="paragraph" format="1">
  <advance width="633"/>
  <unicode hex="00B6"/>
  <outline>
    <contour>
      <point x="345" y="-130" type="line"/>
      <point x="345" y="636" type="line"/>
      <point x="458" y="636" type="line"/>
      <point x="458" y="-130" type="line"/>
      <point x="544" y="-130" type="line"/>
      <point x="544" y="715" type="line"/>
      <point x="298" y="715" type="line" smooth="yes"/>
      <point x="147" y="715"/>
      <point x="46" y="629"/>
      <point x="46" y="501" type="curve" smooth="yes"/>
      <point x="46" y="384"/>
      <point x="132" y="299"/>
      <point x="259" y="289" type="curve"/>
      <point x="259" y="-130" type="line"/>
    </contour>
  </outline>
</glyph>
<glyph name="ordmasculine" format="2">
	<unicode hex="00BA"/>
	<advance width="512"/>
	<outline>
		<contour>
			<point x="256" y="302" type="curve" smooth="yes"/>
			<point x="380" y="302"/>
			<point x="467" y="387"/>
			<point x="467" y="508" type="curve" smooth="yes"/>
			<point x="467" y="629"/>
			<point x="380" y="715"/>
			<point x="256" y="715" type="curve" smooth="yes"/>
			<point x="133" y="715"/>
			<point x="45" y="629"/>
			<point x="45" y="508" type="curve" smooth="yes"/>
			<point x="45" y="387"/>
			<point x="133" y="302"/>
		</contour>
		<contour>
			<point x="256" y="371" type="curve" smooth="yes"/>
			<point x="183" y="371"/>
			<point x="131" y="428"/>
			<point x="131" y="508" type="curve" smooth="yes"/>
			<point x="131" y="589"/>
			<point x="183" y="646"/>
			<point x="256" y="646" type="curve" smooth="yes"/>
			<point x="330" y="646"/>
			<point x="381" y="589"/>
			<point x="381" y="508" type="curve" smooth="yes"/>
			<point x="381" y="428"/>
			<point x="330" y="371"/>
		</contour>
	</outline>
</glyph>
<glyph name="questiondown" format="2">
	<unicode hex="00BF"/>
	<advance width="566"/>
	<outline>
		<contour>
			<point x="270" y="275" type="line"/>
			<point x="270" y="212"/>
			<point x="248" y="174"/>
			<point x="185" y="135" type="curve" smooth="yes"/>
			<point x="100" y="81"/>
			<point x="59" y="26"/>
			<point x="59" y="-47" type="curve" smooth="yes"/>
			<point x="59" y="-160"/>
			<point x="156" y="-245"/>
			<point x="286" y="-245" type="curve" smooth="yes"/>
			<point x="382" y="-245"/>
			<point x="468" y="-200"/>
			<point x="532" y="-115" type="curve"/>
			<point x="467" y="-54" type="line"/>
			<point x="419" y="-128"/>
			<point x="357" y="-165"/>
			<point x="288" y="-165" type="curve" smooth="yes"/>
			<point x="209" y="-165"/>
			<point x="155" y="-116"/>
			<point x="155" y="-45" type="curve" smooth="yes"/>
			<point x="155" y="-1"/>
			<point x="177" y="34"/>
			<point x="225" y="68" type="curve" smooth="yes"/>
			<point x="318" y="127"/>
			<point x="353" y="188"/>
			<point x="345" y="275" type="curve"/>
		</contour>
		<contour>
			<point x="243" y="432" type="curve" smooth="yes"/>
			<point x="243" y="396"/>
			<point x="272" y="367"/>
			<point x="308" y="367" type="curve" smooth="yes"/>
			<point x="344" y="367"/>
			<point x="373" y="396"/>
			<point x="373" y="432" type="curve" smooth="yes"/>
			<point x="373" y="467"/>
			<point x="344" y="496"/>
			<point x="308" y="496" type="curve" smooth="yes"/>
			<point x="272" y="496"/>
			<point x="243" y="467"/>
		</contour>
	</outline>
</glyph>
<glyph name="AE" format="1">
  <advance width="1055"/>
  <unicode hex="00C6"/>
  <outline>
    <contour>
      <point x="579" y="715" type="line"/>
      <point x="483" y="715" type="line"/>
      <point x="23" y="0" type="line"/>
      <point x="126" y="0" type="line"/>
    </contour>
    <contour>
      <point x="563" y="186" type="line"/>
      <point x="563" y="269" type="line"/>
      <point x="221" y="269" type="line"/>
      <point x="221" y="186" type="line"/>
    </contour>
    <contour>
      <point x="1010" y="0" type="line"/>
      <point x="1010" y="83" type="line"/>
      <point x="623" y="83" type="line"/>
      <point x="623" y="632" type="line"/>
      <point x="1010" y="632" type="line"/>
      <point x="1010" y="715" type="line"/>
      <point x="527" y="715" type="line"/>
      <point x="527" y="0" type="line"/>
    </contour>
    <contour>
      <point x="991" y="323" type="line"/>
      <point x="991" y="406" type="line"/>
      <point x="613" y="406" type="line"/>
      <point x="613" y="323" type="line"/>
    </contour>
  </outline>
</glyph>
<glyph name="Eth" format="1">
  <advance width="746"/>
  <unicode hex="00D0"/>
  <outline>
    <contour>
      <point x="80" y="0" type="line"/>
      <point x="318" y="0" type="line" smooth="yes"/>
      <point x="540" y="0"/>
      <point x="693" y="150"/>
      <point x="693" y="358" type="curve" smooth="yes"/>
      <point x="693" y="565"/>
      <point x="540" y="715"/>
      <point x="318" y="715" type="curve" smooth="yes"/>
      <point x="80" y="715" type="line"/>
    </contour>
    <contour>
      <point x="176" y="85" type="line"/>
      <point x="176" y="630" type="line"/>
      <point x="318" y="630" type="line" smooth="yes"/>
      <point x="486" y="630"/>
      <point x="593" y="521"/>
      <point x="593" y="358" type="curve" smooth="yes"/>
      <point x="593" y="194"/>
      <point x="486" y="85"/>
      <point x="318" y="85" type="curve" smooth="yes"/>
    </contour>
    <contour>
      <point x="367" y="323" type="line"/>
      <point x="367" y="406" type="line"/>
      <point x="9" y="406" type="line"/>
      <point x="9" y="323" type="line"/>
    </contour>
  </outline>
</glyph>
<glyph name="multiply" format="2">
	<unicode hex="00D7"/>
	<advance width="660"/>
	<outline>
		<contour>
			<point x="525" y="214" type="line"/>
			<point x="187" y="553" type="line"/>
			<point x="135" y="501" type="line"/>
			<point x="473" y="162" type="line"/>
		</contour>
		<contour>
			<point x="473" y="553" type="line"/>
			<point x="135" y="214" type="line"/>
			<point x="187" y="162" type="line"/>
			<point x="525" y="501" type="line"/>
		</contour>
	</outline>
</glyph>
<glyph name="Thorn" format="1">
  <advance width="648"/>
  <unicode hex="00DE"/>
  <outline>
    <contour>
      <point x="166" y="480" type="line"/>
      <point x="362" y="480" type="line" smooth="yes"/>
      <point x="451" y="480"/>
      <point x="506" y="434"/>
      <point x="506" y="357" type="curve" smooth="yes"/>
      <point x="506" y="280"/>
      <point x="451" y="234"/>
      <point x="362" y="234" type="curve" smooth="yes"/>
      <point x="166" y="234" type="line"/>
      <point x="166" y="151" type="line"/>
      <point x="362" y="151" type="line" smooth="yes"/>
      <point x="507" y="151"/>
      <point x="604" y="234"/>
      <point x="604" y="357" type="curve" smooth="yes"/>
      <point x="604" y="480"/>
      <point x="507" y="563"/>
      <point x="362" y="563" type="curve" smooth="yes"/>
      <point x="166" y="563" type="line"/>
    </contour>
    <contour>
      <point x="176" y="0" type="line"/>
      <point x="176" y="715" type="line"/>
      <point x="80" y="715" type="line"/>
      <point x="80" y="0" type="line"/>
    </contour>
  </outline>
</glyph>
<glyph name="germandbls" format="1">
  <advance width="630"/>
  <unicode hex="00DF"/>
  <outline>
    <contour>
      <point x="153" y="0" type="line"/>
      <point x="153" y="454" type="line" smooth="yes"/>
      <point x="153" y="588"/>
      <point x="218" y="653"/>
      <point x="310" y="653" type="curve" smooth="yes"/>
      <point x="389" y="653"/>
      <point x="435" y="604"/>
      <point x="435" y="538" type="curve" smooth="yes"/>
      <point x="435" y="463"/>
      <point x="379" y="413"/>
      <point x="298" y="413" type="curve" smooth="yes"/>
      <point x="276" y="413" type="line"/>
      <point x="276" y="334" type="line"/>
      <point x="321" y="334" type="line" smooth="yes"/>
      <point x="409" y="334"/>
      <point x="493" y="280"/>
      <point x="493" y="187" type="curve" smooth="yes"/>
      <point x="493" y="110"/>
      <point x="439" y="61"/>
      <point x="369" y="61" type="curve" smooth="yes"/>
      <point x="327" y="61"/>
      <point x="284" y="77"/>
      <point x="256" y="107" type="curve"/>
      <point x="207" y="41" type="line"/>
      <point x="247" y="5"/>
      <point x="313" y="-16"/>
      <point x="373" y="-16" type="curve" smooth="yes"/>
      <point x="498" y="-16"/>
      <point x="589" y="66"/>
      <point x="589" y="188" type="curve" smooth="yes"/>
      <point x="589" y="320"/>
      <point x="474" y="400"/>
      <point x="333" y="400" type="curve" smooth="yes"/>
      <point x="295" y="400" type="line"/>
      <point x="295" y="357" type="line"/>
      <point x="298" y="357" type="line" smooth="yes"/>
      <point x="443" y="357"/>
      <point x="531" y="435"/>
      <point x="531" y="539" type="curve" smooth="yes"/>
      <point x="531" y="645"/>
      <point x="442" y="731"/>
      <point x="309" y="731" type="curve" smooth="yes"/>
      <point x="168" y="731"/>
      <point x="60" y="635"/>
      <point x="60" y="466" type="curve" smooth="yes"/>
      <point x="60" y="0" type="line"/>
    </contour>
  </outline>
</glyph>
<glyph name="ae" format="2">
	<unicode hex="00E6"/>
	<advance width="965"/>
	<outline>
		<contour>
			<point x="849" y="146" type="line"/>
			<point x="807" y="89"/>
			<point x="754" y="62"/>
			<point x="687" y="62" type="curve" smooth="yes"/>
			<point x="578" y="62"/>
			<point x="502" y="136"/>
			<point x="502" y="249" type="curve" smooth="yes"/>
			<point x="502" y="359"/>
			<point x="570" y="434"/>
			<point x="669" y="434" type="curve" smooth="yes"/>
			<point x="760" y="434"/>
			<point x="826" y="361"/>
			<point x="826" y="254" type="curve" smooth="yes"/>
			<point x="826" y="245" type="line"/>
			<point x="920" y="245" type="line"/>
			<point x="920" y="251" type="line" smooth="yes"/>
			<point x="920" y="404"/>
			<point x="814" y="512"/>
			<point x="670" y="512" type="curve" smooth="yes"/>
			<point x="520" y="512"/>
			<point x="412" y="402"/>
			<point x="412" y="248" type="curve" smooth="yes"/>
			<point x="412" y="94"/>
			<point x="525" y="-16"/>
			<point x="684" y="-16" type="curve" smooth="yes"/>
			<point x="778" y="-16"/>
			<point x="855" y="22"/>
			<point x="907" y="86" type="curve"/>
		</contour>
		<contour>
			<point x="920" y="225" type="line"/>
			<point x="920" y="251" type="line"/>
			<point x="904" y="292" type="line"/>
			<point x="475" y="292" type="line"/>
			<point x="475" y="225" type="line"/>
		</contour>
		<contour>
			<point x="486" y="254" type="line"/>
			<point x="486" y="296" type="line" smooth="yes"/>
			<point x="486" y="425"/>
			<point x="400" y="512"/>
			<point x="270" y="512" type="curve" smooth="yes"/>
			<point x="182" y="512"/>
			<point x="110" y="478"/>
			<point x="56" y="422" type="curve"/>
			<point x="114" y="362" type="line"/>
			<point x="153" y="407"/>
			<point x="204" y="435"/>
			<point x="268" y="435" type="curve" smooth="yes"/>
			<point x="353" y="435"/>
			<point x="409" y="378"/>
			<point x="409" y="293" type="curve" smooth="yes"/>
			<point x="409" y="254" type="line"/>
		</contour>
		<contour>
			<point x="239" y="-16" type="curve" smooth="yes"/>
			<point x="377" y="-16"/>
			<point x="485" y="67"/>
			<point x="497" y="176" type="curve"/>
			<point x="438" y="193" type="line"/>
			<point x="427" y="115"/>
			<point x="344" y="58"/>
			<point x="253" y="58" type="curve" smooth="yes"/>
			<point x="183" y="58"/>
			<point x="135" y="92"/>
			<point x="135" y="146" type="curve" smooth="yes"/>
			<point x="135" y="202"/>
			<point x="195" y="225"/>
			<point x="278" y="225" type="curve" smooth="yes"/>
			<point x="428" y="225" type="line"/>
			<point x="428" y="293" type="line"/>
			<point x="268" y="293" type="line" smooth="yes"/>
			<point x="133" y="293"/>
			<point x="39" y="241"/>
			<point x="39" y="142" type="curve" smooth="yes"/>
			<point x="39" y="50"/>
			<point x="121" y="-16"/>
		</contour>
	</outline>
</glyph>
<glyph name="eth" format="1">
  <advance width="621"/>
  <unicode hex="00F0"/>
  <outline>
    <contour>
      <point x="520" y="237" type="line"/>
      <point x="520" y="381"/>
      <point x="446" y="488"/>
      <point x="302" y="488" type="curve" smooth="yes"/>
      <point x="157" y="488"/>
      <point x="45" y="382"/>
      <point x="45" y="237" type="curve" smooth="yes"/>
      <point x="45" y="92"/>
      <point x="158" y="-16"/>
      <point x="311" y="-16" type="curve" smooth="yes"/>
      <point x="464" y="-16"/>
      <point x="577" y="85"/>
      <point x="577" y="281" type="curve" smooth="yes"/>
      <point x="577" y="484"/>
      <point x="464" y="660"/>
      <point x="267" y="764" type="curve"/>
      <point x="196" y="731" type="line"/>
      <point x="400" y="609"/>
      <point x="491" y="460"/>
      <point x="491" y="237" type="curve"/>
    </contour>
    <contour>
      <point x="311" y="64" type="curve" smooth="yes"/>
      <point x="211" y="64"/>
      <point x="142" y="136"/>
      <point x="142" y="237" type="curve" smooth="yes"/>
      <point x="142" y="338"/>
      <point x="211" y="410"/>
      <point x="311" y="410" type="curve" smooth="yes"/>
      <point x="410" y="410"/>
      <point x="479" y="338"/>
      <point x="479" y="237" type="curve" smooth="yes"/>
      <point x="479" y="136"/>
      <point x="410" y="64"/>
    </contour>
    <contour>
      <point x="515" y="677" type="line"/>
      <point x="484" y="742" type="line"/>
      <point x="184" y="601" type="line"/>
      <point x="215" y="535" type="line"/>
    </contour>
  </outline>
</glyph>
<glyph name="divide" format="2">
	<unicode hex="00F7"/>
	<advance width="660"/>
	<outline>
		<contour>
			<point x="561" y="319" type="line"/>
			<point x="561" y="395" type="line"/>
			<point x="99" y="395" type="line"/>
			<point x="99" y="319" type="line"/>
		</contour>
		<contour>
			<point x="330" y="460" type="curve" smooth="yes"/>
			<point x="364" y="460"/>
			<point x="391" y="487"/>
			<point x="391" y="520" type="curve" smooth="yes"/>
			<point x="391" y="554"/>
			<point x="364" y="581"/>
			<point x="330" y="581" type="curve" smooth="yes"/>
			<point x="296" y="581"/>
			<point x="269" y="554"/>
			<point x="269" y="520" type="curve" smooth="yes"/>
			<point x="269" y="487"/>
			<point x="296" y="460"/>
		</contour>
		<contour>
			<point x="330" y="133" type="curve" smooth="yes"/>
			<point x="364" y="133"/>
			<point x="391" y="160"/>
			<point x="391" y="193" type="curve" smooth="yes"/>
			<point x="391" y="227"/>
			<point x="364" y="254"/>
			<point x="330" y="254" type="curve" smooth="yes"/>
			<point x="296" y="254"/>
			<point x="269" y="227"/>
			<point x="269" y="193" type="curve" smooth="yes"/>
			<point x="269" y="160"/>
			<point x="296" y="133"/>
		</contour>
	</outline>
</glyph>
<glyph name="oslash" format="1">
  <advance width="623"/>
  <unicode hex="00F8"/>
  <outline>
    <contour>
      <point x="311" y="-16" type="curve" smooth="yes"/>
      <point x="467" y="-16"/>
      <point x="577" y="94"/>
      <point x="577" y="248" type="curve" smooth="yes"/>
      <point x="577" y="401"/>
      <point x="467" y="512"/>
      <point x="311" y="512" type="curve" smooth="yes"/>
      <point x="156" y="512"/>
      <point x="45" y="401"/>
      <point x="45" y="248" type="curve" smooth="yes"/>
      <point x="45" y="94"/>
      <point x="156" y="-16"/>
    </contour>
    <contour>
      <point x="311" y="64" type="curve" smooth="yes"/>
      <point x="211" y="64"/>
      <point x="143" y="139"/>
      <point x="143" y="248" type="curve" smooth="yes"/>
      <point x="143" y="356"/>
      <point x="211" y="432"/>
      <point x="311" y="432" type="curve" smooth="yes"/>
      <point x="412" y="432"/>
      <point x="480" y="356"/>
      <point x="480" y="248" type="curve" smooth="yes"/>
      <point x="480" y="139"/>
      <point x="412" y="64"/>
    </contour>
    <contour>
      <point x="82" y="-28" type="line"/>
      <point x="590" y="475" type="line"/>
      <point x="541" y="524" type="line"/>
      <point x="33" y="20" type="line"/>
    </contour>
  </outline>
</glyph>
<glyph name="dcroat" format="1">
  <advance width="668"/>
  <unicode hex="0111"/>
  <outline>
    <contour>
      <point x="573" y="0" type="line"/>
      <point x="573" y="720" type="line"/>
      <point x="480" y="720" type="line"/>
      <point x="480" y="338" type="line"/>
      <point x="503" y="338" type="line"/>
      <point x="487" y="439"/>
      <point x="405" y="506"/>
      <point x="295" y="506" type="curve" smooth="yes"/>
      <point x="152" y="506"/>
      <point x="45" y="395"/>
      <point x="45" y="245" type="curve" smooth="yes"/>
      <point x="45" y="92"/>
      <point x="153" y="-16"/>
      <point x="298" y="-16" type="curve" smooth="yes"/>
      <point x="431" y="-16"/>
      <point x="520" y="75"/>
      <point x="508" y="193" type="curve"/>
      <point x="489" y="212" type="line"/>
      <point x="480" y="126"/>
      <point x="407" y="64"/>
      <point x="314" y="64" type="curve" smooth="yes"/>
      <point x="212" y="64"/>
      <point x="142" y="139"/>
      <point x="142" y="245" type="curve" smooth="yes"/>
      <point x="142" y="349"/>
      <point x="211" y="426"/>
      <point x="310" y="426" type="curve" smooth="yes"/>
      <point x="410" y="426"/>
      <point x="480" y="347"/>
      <point x="480" y="231" type="curve" smooth="yes"/>
      <point x="480" y="132" type="line"/>
      <point x="481" y="129" type="line"/>
      <point x="481" y="0" type="line"/>
    </contour>
    <contour>
      <point x="654" y="566" type="line"/>
      <point x="654" y="639" type="line"/>
      <point x="319" y="639" type="line"/>
      <point x="319" y="566" type="line"/>
    </contour>
  </outline>
</glyph>
<glyph name="Hbar" format="2">
	<unicode hex="0126"/>
	<advance width="750"/>
	<outline>
		<contour>
			<point x="571" y="0" type="line"/>
			<point x="667" y="0" type="line"/>
			<point x="667" y="715" type="line"/>
			<point x="571" y="715" type="line"/>
		</contour>
		<contour>
			<point x="178" y="0" type="line"/>
			<point x="178" y="715" type="line"/>
			<point x="82" y="715" type="line"/>
			<point x="82" y="0" type="line"/>
		</contour>
		<contour>
			<point x="168" y="328" type="line"/>
			<point x="581" y="328" type="line"/>
			<point x="581" y="412" type="line"/>
			<point x="168" y="412" type="line"/>
		</contour>
		<contour>
			<point x="735" y="524" type="line"/>
			<point x="735" y="605" type="line"/>
			<point x="15" y="605" type="line"/>
			<point x="15" y="524" type="line"/>
		</contour>
	</outline>
</glyph>
<glyph name="hbar" format="1">
  <advance width="618"/>
  <unicode hex="0127"/>
  <outline>
    <contour>
      <point x="349" y="566" type="line"/>
      <point x="349" y="639" type="line"/>
      <point x="14" y="639" type="line"/>
      <point x="14" y="566" type="line"/>
    </contour>
    <contour>
      <point x="559" y="0" type="line"/>
      <point x="559" y="290" type="line" smooth="yes"/>
      <point x="559" y="430"/>
      <point x="485" y="506"/>
      <point x="365" y="506" type="curve" smooth="yes"/>
      <point x="279" y="506"/>
      <point x="195" y="464"/>
      <point x="174" y="338" type="curve"/>
      <point x="188" y="338" type="line"/>
      <point x="188" y="720" type="line"/>
      <point x="95" y="720" type="line"/>
      <point x="95" y="0" type="line"/>
      <point x="188" y="0" type="line"/>
      <point x="188" y="223" type="line" smooth="yes"/>
      <point x="188" y="366"/>
      <point x="263" y="426"/>
      <point x="344" y="426" type="curve" smooth="yes"/>
      <point x="418" y="426"/>
      <point x="466" y="377"/>
      <point x="466" y="280" type="curve" smooth="yes"/>
      <point x="466" y="0" type="line"/>
    </contour>
  </outline>
</glyph>
<glyph name="dotlessi" format="1">
  <advance width="225"/>
  <unicode hex="0131"/>
  <outline>
    <contour>
      <point x="159" y="0" type="line"/>
      <point x="159" y="496" type="line"/>
      <point x="66" y="496" type="line"/>
      <point x="66" y="0" type="line"/>
    </contour>
    <contour>
      <point x="113" y="544" type="move" name="top.LC"/>
    </contour>
  </outline>
</glyph>
<glyph name="IJ" format="2">
	<unicode hex="0132"/>
	<advance width="690"/>
	<outline>
		<contour>
			<point x="168" y="325" type="line"/>
			<point x="168" y="715" type="line"/>
			<point x="72" y="715" type="line"/>
			<point x="72" y="325" type="line"/>
		</contour>
		<contour>
			<point x="618" y="715" type="line"/>
			<point x="522" y="715" type="line"/>
			<point x="522" y="274" type="line" smooth="yes"/>
			<point x="522" y="141"/>
			<point x="460" y="70"/>
			<point x="344" y="70" type="curve" smooth="yes"/>
			<point x="241" y="70"/>
			<point x="181" y="128"/>
			<point x="169" y="239" type="curve"/>
			<point x="73" y="228" type="line"/>
			<point x="89" y="74"/>
			<point x="186" y="-16"/>
			<point x="344" y="-16" type="curve" smooth="yes"/>
			<point x="519" y="-16"/>
			<point x="618" y="89"/>
			<point x="618" y="274" type="curve" smooth="yes"/>
		</contour>
	</outline>
	<anchor name="top.UC_1" x="120" y="750"/>
	<anchor name="top.UC_2" x="569" y="750"/>
</glyph>
<glyph name="kgreenlandic" format="2">
	<unicode hex="0138"/>
	<advance width="566"/>
	<outline>
		<contour>
			<point x="159" y="0" type="line"/>
			<point x="159" y="496" type="line"/>
			<point x="66" y="496" type="line"/>
			<point x="66" y="0" type="line"/>
		</contour>
		<contour>
			<point x="553" y="0" type="line"/>
			<point x="246" y="266" type="line"/>
			<point x="246" y="248" type="line"/>
			<point x="524" y="496" type="line"/>
			<point x="404" y="496" type="line"/>
			<point x="142" y="257" type="line"/>
			<point x="132" y="257" type="line"/>
			<point x="424" y="0" type="line"/>
		</contour>
	</outline>
</glyph>
<glyph name="Lslash" format="2">
	<unicode hex="0141"/>
	<advance width="601"/>
	<outline>
		<contour>
			<point x="566" y="0" type="line"/>
			<point x="566" y="85" type="line"/>
			<point x="209" y="85" type="line"/>
			<point x="209" y="715" type="line"/>
			<point x="113" y="715" type="line"/>
			<point x="113" y="0" type="line"/>
		</contour>
		<contour>
			<point x="425" y="434" type="line"/>
			<point x="382" y="503" type="line"/>
			<point x="15" y="265" type="line"/>
			<point x="58" y="196" type="line"/>
		</contour>
	</outline>
</glyph>
<glyph name="lslash" format="1">
  <advance width="336"/>
  <unicode hex="0142"/>
  <outline>
    <contour>
      <point x="204" y="0" type="line"/>
      <point x="204" y="720" type="line"/>
      <point x="111" y="720" type="line"/>
      <point x="111" y="0" type="line"/>
    </contour>
    <contour>
      <point x="331" y="441" type="line"/>
      <point x="295" y="500" type="line"/>
      <point x="5" y="313" type="line"/>
      <point x="41" y="254" type="line"/>
    </contour>
  </outline>
</glyph>
<glyph name="Eng" format="1">
  <advance width="744"/>
  <unicode hex="014A"/>
  <outline>
    <contour>
      <point x="228" y="-146" type="line"/>
      <point x="272" y="-184"/>
      <point x="336" y="-204"/>
      <point x="413" y="-204" type="curve" smooth="yes"/>
      <point x="575" y="-204"/>
      <point x="666" y="-109"/>
      <point x="666" y="74" type="curve" smooth="yes"/>
      <point x="666" y="715" type="line"/>
      <point x="573" y="715" type="line"/>
      <point x="573" y="74" type="line" smooth="yes"/>
      <point x="573" y="-53"/>
      <point x="516" y="-118"/>
      <point x="413" y="-118" type="curve" smooth="yes"/>
      <point x="364" y="-118"/>
      <point x="319" y="-104"/>
      <point x="282" y="-70" type="curve"/>
    </contour>
    <contour>
      <point x="172" y="0" type="line"/>
      <point x="172" y="616" type="line"/>
      <point x="144" y="616" type="line"/>
      <point x="572" y="0" type="line"/>
      <point x="610" y="99" type="line"/>
      <point x="182" y="715" type="line"/>
      <point x="79" y="715" type="line"/>
      <point x="79" y="0" type="line"/>
    </contour>
  </outline>
</glyph>
<glyph name="eng" format="2">
	<unicode hex="014B"/>
	<advance width="589"/>
	<outline>
		<contour>
			<point x="344" y="-194" type="line"/>
			<point x="404" y="-194" type="line" smooth="yes"/>
			<point x="489" y="-194"/>
			<point x="530" y="-153"/>
			<point x="530" y="-68" type="curve" smooth="yes"/>
			<point x="530" y="296" type="line" smooth="yes"/>
			<point x="530" y="436"/>
			<point x="456" y="512"/>
			<point x="336" y="512" type="curve" smooth="yes"/>
			<point x="250" y="512"/>
			<point x="165" y="470"/>
			<point x="144" y="344" type="curve"/>
			<point x="158" y="344" type="line"/>
			<point x="158" y="496" type="line"/>
			<point x="66" y="496" type="line"/>
			<point x="66" y="0" type="line"/>
			<point x="159" y="0" type="line"/>
			<point x="159" y="229" type="line" smooth="yes"/>
			<point x="159" y="372"/>
			<point x="234" y="432"/>
			<point x="315" y="432" type="curve" smooth="yes"/>
			<point x="389" y="432"/>
			<point x="437" y="383"/>
			<point x="437" y="286" type="curve" smooth="yes"/>
			<point x="437" y="-56" type="line" smooth="yes"/>
			<point x="437" y="-98"/>
			<point x="420" y="-116"/>
			<point x="378" y="-116" type="curve" smooth="yes"/>
			<point x="344" y="-116" type="line"/>
		</contour>
	</outline>
</glyph>
<glyph name="OE" format="2">
	<unicode hex="0152"/>
	<advance width="1230"/>
	<outline>
		<contour>
			<point x="425" y="-16" type="curve" smooth="yes"/>
			<point x="628" y="-16"/>
			<point x="777" y="144"/>
			<point x="777" y="358" type="curve" smooth="yes"/>
			<point x="777" y="571"/>
			<point x="628" y="731"/>
			<point x="425" y="731" type="curve" smooth="yes"/>
			<point x="212" y="731"/>
			<point x="53" y="571"/>
			<point x="53" y="358" type="curve" smooth="yes"/>
			<point x="53" y="144"/>
			<point x="212" y="-16"/>
		</contour>
		<contour>
			<point x="428" y="70" type="curve" smooth="yes"/>
			<point x="267" y="70"/>
			<point x="154" y="190"/>
			<point x="154" y="358" type="curve" smooth="yes"/>
			<point x="154" y="525"/>
			<point x="267" y="645"/>
			<point x="428" y="645" type="curve" smooth="yes"/>
			<point x="589" y="645"/>
			<point x="702" y="525"/>
			<point x="702" y="358" type="curve" smooth="yes"/>
			<point x="702" y="190"/>
			<point x="589" y="70"/>
		</contour>
		<contour>
			<point x="1185" y="0" type="line"/>
			<point x="1185" y="83" type="line"/>
			<point x="798" y="83" type="line"/>
			<point x="798" y="632" type="line"/>
			<point x="1185" y="632" type="line"/>
			<point x="1185" y="715" type="line"/>
			<point x="702" y="715" type="line"/>
			<point x="702" y="0" type="line"/>
		</contour>
		<contour>
			<point x="1166" y="323" type="line"/>
			<point x="1166" y="406" type="line"/>
			<point x="788" y="406" type="line"/>
			<point x="788" y="323" type="line"/>
		</contour>
	</outline>
</glyph>
<glyph name="oe" format="1">
  <advance width="1032"/>
  <unicode hex="0153"/>
  <outline>
    <contour>
      <point x="308" y="-16" type="curve" smooth="yes"/>
      <point x="456" y="-16"/>
      <point x="561" y="94"/>
      <point x="561" y="248" type="curve" smooth="yes"/>
      <point x="561" y="401"/>
      <point x="456" y="512"/>
      <point x="308" y="512" type="curve" smooth="yes"/>
      <point x="155" y="512"/>
      <point x="45" y="401"/>
      <point x="45" y="248" type="curve" smooth="yes"/>
      <point x="45" y="94"/>
      <point x="155" y="-16"/>
    </contour>
    <contour>
      <point x="311" y="64" type="curve" smooth="yes"/>
      <point x="210" y="64"/>
      <point x="142" y="139"/>
      <point x="142" y="248" type="curve" smooth="yes"/>
      <point x="142" y="356"/>
      <point x="210" y="432"/>
      <point x="311" y="432" type="curve" smooth="yes"/>
      <point x="411" y="432"/>
      <point x="479" y="356"/>
      <point x="479" y="248" type="curve" smooth="yes"/>
      <point x="479" y="139"/>
      <point x="411" y="64"/>
    </contour>
    <contour>
      <point x="916" y="146" type="line"/>
      <point x="874" y="89"/>
      <point x="821" y="62"/>
      <point x="754" y="62" type="curve" smooth="yes"/>
      <point x="645" y="62"/>
      <point x="569" y="136"/>
      <point x="569" y="249" type="curve" smooth="yes"/>
      <point x="569" y="359"/>
      <point x="637" y="434"/>
      <point x="736" y="434" type="curve" smooth="yes"/>
      <point x="827" y="434"/>
      <point x="893" y="361"/>
      <point x="893" y="254" type="curve" smooth="yes"/>
      <point x="893" y="245" type="line"/>
      <point x="987" y="245" type="line"/>
      <point x="987" y="251" type="line" smooth="yes"/>
      <point x="987" y="404"/>
      <point x="881" y="512"/>
      <point x="737" y="512" type="curve" smooth="yes"/>
      <point x="591" y="512"/>
      <point x="484" y="402"/>
      <point x="484" y="248" type="curve" smooth="yes"/>
      <point x="484" y="94"/>
      <point x="596" y="-16"/>
      <point x="751" y="-16" type="curve" smooth="yes"/>
      <point x="845" y="-16"/>
      <point x="922" y="22"/>
      <point x="974" y="86" type="curve"/>
    </contour>
    <contour>
      <point x="987" y="217" type="line"/>
      <point x="987" y="251" type="line"/>
      <point x="971" y="286" type="line"/>
      <point x="542" y="286" type="line"/>
      <point x="542" y="217" type="line"/>
    </contour>
  </outline>
</glyph>
<glyph name="Tbar" format="2">
	<unicode hex="0166"/>
	<advance width="632"/>
	<outline>
		<contour>
			<point x="364" y="0" type="line"/>
			<point x="364" y="641" type="line"/>
			<point x="268" y="641" type="line"/>
			<point x="268" y="0" type="line"/>
		</contour>
		<contour>
			<point x="598" y="631" type="line"/>
			<point x="598" y="715" type="line"/>
			<point x="35" y="715" type="line"/>
			<point x="35" y="631" type="line"/>
		</contour>
		<contour>
			<point x="528" y="323" type="line"/>
			<point x="528" y="406" type="line"/>
			<point x="105" y="406" type="line"/>
			<point x="105" y="323" type="line"/>
		</contour>
	</outline>
</glyph>
<glyph name="tbar" format="2">
	<unicode hex="0167"/>
	<advance width="401"/>
	<outline>
		<contour>
			<point x="366" y="0" type="line"/>
			<point x="366" y="78" type="line"/>
			<point x="272" y="78" type="line" smooth="yes"/>
			<point x="238" y="78"/>
			<point x="221" y="96"/>
			<point x="221" y="130" type="curve" smooth="yes"/>
			<point x="221" y="636" type="line"/>
			<point x="128" y="636" type="line"/>
			<point x="128" y="118" type="line"/>
			<point x="128" y="41"/>
			<point x="170" y="0"/>
			<point x="247" y="0" type="curve" smooth="yes"/>
		</contour>
		<contour>
			<point x="359" y="418" type="line"/>
			<point x="359" y="496" type="line"/>
			<point x="31" y="496" type="line"/>
			<point x="31" y="418" type="line"/>
		</contour>
		<contour>
			<point x="359" y="238" type="line"/>
			<point x="359" y="311" type="line"/>
			<point x="31" y="311" type="line"/>
			<point x="31" y="238" type="line"/>
		</contour>
	</outline>
</glyph>
<glyph name="Ohorn" format="1">
  <advance width="868"/>
  <unicode hex="01A0"/>
  <outline>
    <contour>
      <point x="428" y="-16" type="curve" smooth="yes"/>
      <point x="644" y="-16"/>
      <point x="803" y="144"/>
      <point x="803" y="358" type="curve" smooth="yes"/>
      <point x="803" y="489"/>
      <point x="743" y="599"/>
      <point x="648" y="665" type="curve"/>
      <point x="642" y="651" type="line"/>
      <point x="655" y="648"/>
      <point x="675" y="646"/>
      <point x="693" y="646" type="curve" smooth="yes"/>
      <point x="794" y="646"/>
      <point x="850" y="707"/>
      <point x="850" y="818" type="curve" smooth="yes"/>
      <point x="850" y="869" type="line"/>
      <point x="761" y="869" type="line"/>
      <point x="761" y="810" type="line" smooth="yes"/>
      <point x="761" y="728"/>
      <point x="718" y="713"/>
      <point x="642" y="713" type="curve" smooth="yes"/>
      <point x="600" y="713"/>
      <point x="546" y="716"/>
      <point x="514" y="722" type="curve" smooth="yes"/>
      <point x="480" y="728"/>
      <point x="455" y="731"/>
      <point x="428" y="731" type="curve" smooth="yes"/>
      <point x="212" y="731"/>
      <point x="53" y="571"/>
      <point x="53" y="358" type="curve" smooth="yes"/>
      <point x="53" y="144"/>
      <point x="212" y="-16"/>
    </contour>
    <contour>
      <point x="428" y="70" type="curve" smooth="yes"/>
      <point x="267" y="70"/>
      <point x="154" y="190"/>
      <point x="154" y="358" type="curve" smooth="yes"/>
      <point x="154" y="525"/>
      <point x="267" y="645"/>
      <point x="428" y="645" type="curve" smooth="yes"/>
      <point x="589" y="645"/>
      <point x="702" y="525"/>
      <point x="702" y="358" type="curve" smooth="yes"/>
      <point x="702" y="190"/>
      <point x="589" y="70"/>
    </contour>
    <contour>
      <point x="428" y="-50" type="move" name="bottom.UC"/>
    </contour>
    <contour>
      <point x="428" y="750" type="move" name="top.UC"/>
    </contour>
  </outline>
</glyph>
<glyph name="ohorn" format="2">
	<unicode hex="01A1"/>
	<advance width="633"/>
	<outline>
		<contour>
			<point x="311" y="-16" type="curve" smooth="yes"/>
			<point x="466" y="-16"/>
			<point x="577" y="94"/>
			<point x="577" y="248" type="curve" smooth="yes"/>
			<point x="577" y="333"/>
			<point x="542" y="406"/>
			<point x="485" y="452" type="curve"/>
			<point x="470" y="427" type="line"/>
			<point x="571" y="435"/>
			<point x="617" y="481"/>
			<point x="617" y="577" type="curve" smooth="yes"/>
			<point x="617" y="615" type="line"/>
			<point x="533" y="615" type="line"/>
			<point x="533" y="571" type="line" smooth="yes"/>
			<point x="533" y="516"/>
			<point x="505" y="495"/>
			<point x="444" y="495" type="curve" smooth="yes"/>
			<point x="426" y="495"/>
			<point x="408" y="497"/>
			<point x="383" y="503" type="curve" smooth="yes"/>
			<point x="360" y="509"/>
			<point x="336" y="512"/>
			<point x="311" y="512" type="curve" smooth="yes"/>
			<point x="155" y="512"/>
			<point x="45" y="401"/>
			<point x="45" y="248" type="curve" smooth="yes"/>
			<point x="45" y="94"/>
			<point x="155" y="-16"/>
		</contour>
		<contour>
			<point x="311" y="64" type="curve" smooth="yes"/>
			<point x="210" y="64"/>
			<point x="142" y="139"/>
			<point x="142" y="248" type="curve" smooth="yes"/>
			<point x="142" y="356"/>
			<point x="210" y="432"/>
			<point x="311" y="432" type="curve" smooth="yes"/>
			<point x="411" y="432"/>
			<point x="479" y="356"/>
			<point x="479" y="248" type="curve" smooth="yes"/>
			<point x="479" y="139"/>
			<point x="411" y="64"/>
		</contour>
	</outline>
	<anchor name="bottom.LC" x="311" y="-50"/>
	<anchor name="top.LC" x="311" y="544"/>
</glyph>
<glyph name="Uhorn" format="1">
  <advance width="764"/>
  <unicode hex="01AF"/>
  <outline>
    <contour>
      <point x="364" y="-16" type="curve" smooth="yes"/>
      <point x="547" y="-16"/>
      <point x="656" y="94"/>
      <point x="656" y="282" type="curve" smooth="yes"/>
      <point x="656" y="690" type="line"/>
      <point x="619" y="645" type="line"/>
      <point x="749" y="639"/>
      <point x="820" y="699"/>
      <point x="820" y="818" type="curve" smooth="yes"/>
      <point x="820" y="869" type="line"/>
      <point x="731" y="869" type="line"/>
      <point x="731" y="810" type="line" smooth="yes"/>
      <point x="731" y="747"/>
      <point x="698" y="715"/>
      <point x="636" y="715" type="curve" smooth="yes"/>
      <point x="561" y="715" type="line"/>
      <point x="561" y="282" type="line" smooth="yes"/>
      <point x="561" y="147"/>
      <point x="489" y="70"/>
      <point x="364" y="70" type="curve" smooth="yes"/>
      <point x="240" y="70"/>
      <point x="168" y="147"/>
      <point x="168" y="282" type="curve" smooth="yes"/>
      <point x="168" y="715" type="line"/>
      <point x="72" y="715" type="line"/>
      <point x="72" y="282" type="line" smooth="yes"/>
      <point x="72" y="94"/>
      <point x="182" y="-16"/>
    </contour>
    <contour>
      <point x="365" y="-50" type="move" name="bottom.UC"/>
    </contour>
    <contour>
      <point x="405" y="-30" type="move" name="ogonek.UC.round"/>
    </contour>
    <contour>
      <point x="364" y="750" type="move" name="top.UC"/>
    </contour>
    <contour>
      <point x="575" y="750" type="move" name="topright.UC"/>
    </contour>
  </outline>
</glyph>
<glyph name="uhorn" format="1">
  <advance width="641"/>
  <unicode hex="01B0"/>
  <outline>
    <contour>
      <point x="437" y="212" type="line"/>
      <point x="429" y="123"/>
      <point x="358" y="64"/>
      <point x="276" y="64" type="curve" smooth="yes"/>
      <point x="199" y="64"/>
      <point x="153" y="110"/>
      <point x="153" y="200" type="curve" smooth="yes"/>
      <point x="153" y="496" type="line"/>
      <point x="60" y="496" type="line"/>
      <point x="60" y="190" type="line" smooth="yes"/>
      <point x="60" y="56"/>
      <point x="136" y="-16"/>
      <point x="255" y="-16" type="curve" smooth="yes"/>
      <point x="377" y="-16"/>
      <point x="463" y="70"/>
      <point x="456" y="192" type="curve"/>
    </contour>
    <contour>
      <point x="581" y="615" type="line"/>
      <point x="581" y="571" type="line" smooth="yes"/>
      <point x="581" y="519"/>
      <point x="557" y="496"/>
      <point x="496" y="496" type="curve" smooth="yes"/>
      <point x="428" y="496" type="line"/>
      <point x="428" y="124" type="line"/>
      <point x="429" y="96" type="line"/>
      <point x="429" y="0" type="line"/>
      <point x="521" y="0" type="line"/>
      <point x="521" y="472" type="line"/>
      <point x="480" y="426" type="line"/>
      <point x="609" y="424"/>
      <point x="665" y="471"/>
      <point x="665" y="577" type="curve" smooth="yes"/>
      <point x="665" y="615" type="line"/>
    </contour>
    <contour>
      <point x="290" y="-50" type="move" name="bottom.LC"/>
    </contour>
    <contour>
      <point x="290" y="544" type="move" name="top.LC"/>
    </contour>
  </outline>
</glyph>
<glyph name="dotlessj" format="2">
	<unicode hex="0237"/>
	<advance width="225"/>
	<outline>
		<contour>
			<point x="-27" y="-194" type="line"/>
			<point x="33" y="-194" type="line" smooth="yes"/>
			<point x="118" y="-194"/>
			<point x="159" y="-153"/>
			<point x="159" y="-68" type="curve" smooth="yes"/>
			<point x="159" y="496" type="line"/>
			<point x="66" y="496" type="line"/>
			<point x="66" y="-56" type="line" smooth="yes"/>
			<point x="66" y="-98"/>
			<point x="49" y="-116"/>
			<point x="7" y="-116" type="curve" smooth="yes"/>
			<point x="-27" y="-116" type="line"/>
		</contour>
	</outline>
	<anchor name="top.LC" x="113" y="544"/>
</glyph>
<glyph name="gravecomb" format="2">
	<unicode hex="0300"/>
	<outline>
		<contour>
			<point x="-24" y="587" type="line"/>
			<point x="57" y="587" type="line"/>
			<point x="-57" y="761" type="line"/>
			<point x="-163" y="761" type="line"/>
		</contour>
	</outline>
	<anchor name="_top.LC" x="0" y="544"/>
</glyph>
<glyph name="acutecomb" format="1">
  <advance width="0"/>
  <unicode hex="0301"/>
  <outline>
    <contour>
      <point x="163" y="761" type="line"/>
      <point x="57" y="761" type="line"/>
      <point x="-57" y="587" type="line"/>
      <point x="24" y="587" type="line"/>
    </contour>
    <contour>
      <point x="0" y="544" type="move" name="_top.LC"/>
    </contour>
  </outline>
</glyph>
<glyph name="circumflexcomb" format="2">
	<unicode hex="0302"/>
	<outline>
		<contour>
			<point x="169" y="587" type="line"/>
			<point x="45" y="761" type="line"/>
			<point x="-45" y="761" type="line"/>
			<point x="-169" y="587" type="line"/>
			<point x="-86" y="587" type="line"/>
			<point x="37" y="745" type="line"/>
			<point x="-40" y="745" type="line"/>
			<point x="83" y="587" type="line"/>
		</contour>
	</outline>
	<anchor name="_top.LC" x="0" y="544"/>
	<anchor name="top.LC" x="173" y="665"/>
</glyph>
<glyph name="tildecomb" format="2">
	<unicode hex="0303"/>
	<outline>
		<contour>
			<point x="108" y="726" type="line"/>
			<point x="102" y="683"/>
			<point x="86" y="663"/>
			<point x="67" y="663" type="curve" smooth="yes"/>
			<point x="53" y="663"/>
			<point x="40" y="672"/>
			<point x="15" y="691" type="curve" smooth="yes"/>
			<point x="-13" y="711"/>
			<point x="-41" y="726"/>
			<point x="-74" y="726" type="curve" smooth="yes"/>
			<point x="-118" y="726"/>
			<point x="-159" y="695"/>
			<point x="-172" y="621" type="curve"/>
			<point x="-108" y="593" type="line"/>
			<point x="-103" y="636"/>
			<point x="-87" y="656"/>
			<point x="-68" y="656" type="curve" smooth="yes"/>
			<point x="-54" y="656"/>
			<point x="-41" y="648"/>
			<point x="-16" y="629" type="curve" smooth="yes"/>
			<point x="12" y="608"/>
			<point x="41" y="594"/>
			<point x="73" y="594" type="curve" smooth="yes"/>
			<point x="118" y="594"/>
			<point x="158" y="624"/>
			<point x="172" y="698" type="curve"/>
		</contour>
	</outline>
	<anchor name="_top.LC" x="0" y="544"/>
</glyph>
<glyph name="macroncomb" format="1">
  <advance width="0"/>
  <unicode hex="0304"/>
  <outline>
    <contour>
      <point x="143" y="616" type="line"/>
      <point x="143" y="687" type="line"/>
      <point x="-143" y="687" type="line"/>
      <point x="-143" y="616" type="line"/>
    </contour>
    <contour>
      <point x="0" y="544" type="move" name="_top.LC"/>
    </contour>
  </outline>
</glyph>
<glyph name="brevecomb" format="2">
	<unicode hex="0306"/>
	<outline>
		<contour>
			<point x="0" y="583" type="curve" smooth="yes"/>
			<point x="82" y="583"/>
			<point x="149" y="642"/>
			<point x="157" y="737" type="curve"/>
			<point x="83" y="737" type="line"/>
			<point x="76" y="679"/>
			<point x="42" y="650"/>
			<point x="0" y="650" type="curve" smooth="yes"/>
			<point x="-42" y="650"/>
			<point x="-76" y="679"/>
			<point x="-83" y="737" type="curve"/>
			<point x="-157" y="737" type="line"/>
			<point x="-149" y="642"/>
			<point x="-82" y="583"/>
		</contour>
	</outline>
	<anchor name="_top.LC" x="0" y="544"/>
	<anchor name="top.LC" x="0" y="701"/>
</glyph>
<glyph name="dotaccentcomb" format="2">
	<unicode hex="0307"/>
	<outline>
		<contour>
			<point x="0" y="614" type="curve" smooth="yes"/>
			<point x="34" y="614"/>
			<point x="62" y="641"/>
			<point x="62" y="674" type="curve" smooth="yes"/>
			<point x="62" y="708"/>
			<point x="34" y="735"/>
			<point x="0" y="735" type="curve" smooth="yes"/>
			<point x="-34" y="735"/>
			<point x="-62" y="708"/>
			<point x="-62" y="674" type="curve" smooth="yes"/>
			<point x="-62" y="641"/>
			<point x="-34" y="614"/>
		</contour>
	</outline>
	<anchor name="_top.LC" x="0" y="544"/>
</glyph>
<glyph name="dieresiscomb" format="1">
  <advance width="0"/>
  <unicode hex="0308"/>
  <outline>
    <contour>
      <point x="105" y="614" type="curve" smooth="yes"/>
      <point x="139" y="614"/>
      <point x="166" y="641"/>
      <point x="166" y="674" type="curve" smooth="yes"/>
      <point x="166" y="708"/>
      <point x="139" y="735"/>
      <point x="105" y="735" type="curve" smooth="yes"/>
      <point x="70" y="735"/>
      <point x="43" y="708"/>
      <point x="43" y="674" type="curve" smooth="yes"/>
      <point x="43" y="641"/>
      <point x="70" y="614"/>
    </contour>
    <contour>
      <point x="-105" y="614" type="curve" smooth="yes"/>
      <point x="-70" y="614"/>
      <point x="-43" y="641"/>
      <point x="-43" y="674" type="curve" smooth="yes"/>
      <point x="-43" y="708"/>
      <point x="-70" y="735"/>
      <point x="-105" y="735" type="curve" smooth="yes"/>
      <point x="-139" y="735"/>
      <point x="-166" y="708"/>
      <point x="-166" y="674" type="curve" smooth="yes"/>
      <point x="-166" y="641"/>
      <point x="-139" y="614"/>
    </contour>
    <contour>
      <point x="0" y="544" type="move" name="_top.LC"/>
    </contour>
  </outline>
</glyph>
<glyph name="hookabovecomb" format="1">
  <advance width="0"/>
  <unicode hex="0309"/>
  <outline>
    <contour>
      <point x="-8" y="560" type="line"/>
      <point x="61" y="586"/>
      <point x="100" y="627"/>
      <point x="100" y="675" type="curve" smooth="yes"/>
      <point x="100" y="727"/>
      <point x="54" y="767"/>
      <point x="-5" y="767" type="curve" smooth="yes"/>
      <point x="-43" y="767"/>
      <point x="-76" y="754"/>
      <point x="-105" y="728" type="curve"/>
      <point x="-69" y="684" type="line"/>
      <point x="-52" y="698"/>
      <point x="-33" y="705"/>
      <point x="-15" y="705" type="curve" smooth="yes"/>
      <point x="13" y="705"/>
      <point x="29" y="692"/>
      <point x="29" y="669" type="curve" smooth="yes"/>
      <point x="29" y="647"/>
      <point x="8" y="627"/>
      <point x="-34" y="608" type="curve"/>
    </contour>
    <contour>
      <point x="0" y="544" type="move" name="_top.LC"/>
    </contour>
  </outline>
</glyph>
<glyph name="ringcomb" format="2">
	<unicode hex="030A"/>
	<outline>
		<contour>
			<point x="114" y="674" type="curve" smooth="yes"/>
			<point x="114" y="737"/>
			<point x="64" y="786"/>
			<point x="0" y="786" type="curve" smooth="yes"/>
			<point x="-64" y="786"/>
			<point x="-114" y="737"/>
			<point x="-114" y="674" type="curve" smooth="yes"/>
			<point x="-114" y="612"/>
			<point x="-64" y="563"/>
			<point x="0" y="563" type="curve" smooth="yes"/>
			<point x="64" y="563"/>
			<point x="114" y="612"/>
		</contour>
		<contour>
			<point x="53" y="674" type="curve" smooth="yes"/>
			<point x="53" y="643"/>
			<point x="29" y="619"/>
			<point x="0" y="619" type="curve" smooth="yes"/>
			<point x="-29" y="619"/>
			<point x="-53" y="643"/>
			<point x="-53" y="674" type="curve" smooth="yes"/>
			<point x="-53" y="705"/>
			<point x="-29" y="729"/>
			<point x="0" y="729" type="curve" smooth="yes"/>
			<point x="29" y="729"/>
			<point x="53" y="705"/>
		</contour>
	</outline>
	<anchor name="_top.LC" x="0" y="544"/>
</glyph>
<glyph name="hungarumlautcomb" format="1">
  <advance width="0"/>
  <unicode hex="030B"/>
  <outline>
    <contour>
      <point x="101" y="761" type="line"/>
      <point x="-5" y="761" type="line"/>
      <point x="-149" y="587" type="line"/>
      <point x="-66" y="587" type="line"/>
    </contour>
    <contour>
      <point x="287" y="761" type="line"/>
      <point x="181" y="761" type="line"/>
      <point x="31" y="587" type="line"/>
      <point x="114" y="587" type="line"/>
    </contour>
    <contour>
      <point x="0" y="544" type="move" name="_top.LC"/>
    </contour>
  </outline>
</glyph>
<glyph name="caroncomb" format="2">
	<unicode hex="030C"/>
	<outline>
		<contour>
			<point x="-169" y="761" type="line"/>
			<point x="-45" y="587" type="line"/>
			<point x="45" y="587" type="line"/>
			<point x="169" y="761" type="line"/>
			<point x="86" y="761" type="line"/>
			<point x="-37" y="603" type="line"/>
			<point x="40" y="603" type="line"/>
			<point x="-83" y="761" type="line"/>
		</contour>
	</outline>
	<anchor name="_top.LC" x="0" y="544"/>
</glyph>
<glyph name="commaturnedabovecomb" format="1">
  <advance width="0"/>
  <unicode hex="0312"/>
  <outline>
    <contour>
      <point x="1" y="770" type="line"/>
      <point x="-28" y="734"/>
      <point x="-54" y="679"/>
      <point x="-54" y="639" type="curve" smooth="yes"/>
      <point x="-54" y="604"/>
      <point x="-31" y="579"/>
      <point x="2" y="579" type="curve" smooth="yes"/>
      <point x="31" y="579"/>
      <point x="54" y="602"/>
      <point x="54" y="630" type="curve" smooth="yes"/>
      <point x="54" y="659"/>
      <point x="28" y="681"/>
      <point x="-3" y="681" type="curve"/>
      <point x="15" y="661" type="line"/>
      <point x="13" y="689"/>
      <point x="31" y="734"/>
      <point x="58" y="770" type="curve"/>
    </contour>
    <contour>
      <point x="0" y="544" type="move" name="_top.LC"/>
    </contour>
  </outline>
</glyph>
<glyph name="commaaboverightcomb" format="2">
	<unicode hex="0315"/>
	<outline>
		<contour>
			<point x="-1" y="513" type="line"/>
			<point x="33" y="554"/>
			<point x="63" y="618"/>
			<point x="63" y="664" type="curve" smooth="yes"/>
			<point x="63" y="703"/>
			<point x="38" y="731"/>
			<point x="2" y="731" type="curve" smooth="yes"/>
			<point x="-29" y="731"/>
			<point x="-53" y="706"/>
			<point x="-53" y="674" type="curve" smooth="yes"/>
			<point x="-53" y="643"/>
			<point x="-28" y="618"/>
			<point x="4" y="618" type="curve"/>
			<point x="-7" y="636" type="line"/>
			<point x="-5" y="604"/>
			<point x="-24" y="552"/>
			<point x="-54" y="513" type="curve"/>
		</contour>
	</outline>
	<anchor name="_top_right" x="0" y="540"/>
</glyph>
<glyph name="horncomb" format="1">
  <advance width="0"/>
  <unicode hex="031B"/>
  <outline>
    <contour>
      <point x="0" y="426" type="line"/>
      <point x="37" y="426" type="line" smooth="yes"/>
      <point x="159" y="426"/>
      <point x="212" y="474"/>
      <point x="212" y="577" type="curve" smooth="yes"/>
      <point x="212" y="615" type="line"/>
      <point x="128" y="615" type="line"/>
      <point x="128" y="571" type="line" smooth="yes"/>
      <point x="128" y="519"/>
      <point x="104" y="496"/>
      <point x="43" y="496" type="curve" smooth="yes"/>
      <point x="0" y="496" type="line"/>
    </contour>
    <contour>
      <point x="0" y="544" type="move" name="_topright.LC"/>
    </contour>
  </outline>
</glyph>
<glyph name="dotbelowcomb" format="2">
	<unicode hex="0323"/>
	<outline>
		<contour>
			<point x="0" y="-241" type="curve" smooth="yes"/>
			<point x="34" y="-241"/>
			<point x="62" y="-214"/>
			<point x="62" y="-181" type="curve" smooth="yes"/>
			<point x="62" y="-147"/>
			<point x="34" y="-120"/>
			<point x="0" y="-120" type="curve" smooth="yes"/>
			<point x="-34" y="-120"/>
			<point x="-62" y="-147"/>
			<point x="-62" y="-181" type="curve" smooth="yes"/>
			<point x="-62" y="-214"/>
			<point x="-34" y="-241"/>
		</contour>
	</outline>
	<anchor name="_bottom.LC" x="0" y="-50"/>
</glyph>
<glyph name="commabelowcomb" format="2">
	<unicode hex="0326"/>
	<outline>
		<contour>
			<point x="-2" y="-277" type="line"/>
			<point x="27" y="-241"/>
			<point x="53" y="-186"/>
			<point x="53" y="-146" type="curve" smooth="yes"/>
			<point x="53" y="-111"/>
			<point x="30" y="-86"/>
			<point x="-3" y="-86" type="curve" smooth="yes"/>
			<point x="-32" y="-86"/>
			<point x="-55" y="-109"/>
			<point x="-55" y="-137" type="curve" smooth="yes"/>
			<point x="-55" y="-166"/>
			<point x="-29" y="-188"/>
			<point x="3" y="-188" type="curve"/>
			<point x="-15" y="-168" type="line"/>
			<point x="-13" y="-196"/>
			<point x="-32" y="-241"/>
			<point x="-58" y="-277" type="curve"/>
		</contour>
	</outline>
	<anchor name="_bottom.LC" x="0" y="-50"/>
</glyph>
<glyph name="cedillacomb" format="1">
  <advance width="0"/>
  <unicode hex="0327"/>
  <outline>
    <contour>
      <point x="-128" y="-220" type="line"/>
      <point x="-103" y="-243"/>
      <point x="-68" y="-257"/>
      <point x="-28" y="-257" type="curve" smooth="yes"/>
      <point x="54" y="-257"/>
      <point x="101" y="-211"/>
      <point x="101" y="-151" type="curve" smooth="yes"/>
      <point x="101" y="-91"/>
      <point x="43" y="-49"/>
      <point x="-31" y="-50" type="curve"/>
      <point x="-1" y="-78" type="line"/>
      <point x="24" y="10" type="line"/>
      <point x="-36" y="10" type="line"/>
      <point x="-71" y="-114" type="line"/>
      <point x="-58" y="-109"/>
      <point x="-44" y="-108"/>
      <point x="-32" y="-108" type="curve" smooth="yes"/>
      <point x="6" y="-108"/>
      <point x="28" y="-127"/>
      <point x="28" y="-153" type="curve" smooth="yes"/>
      <point x="28" y="-179"/>
      <point x="7" y="-196"/>
      <point x="-25" y="-196" type="curve" smooth="yes"/>
      <point x="-52" y="-196"/>
      <point x="-78" y="-184"/>
      <point x="-94" y="-167" type="curve"/>
    </contour>
    <contour>
      <point x="0" y="-50" type="move" name="_bottom.LC"/>
    </contour>
  </outline>
</glyph>
<glyph name="ogonekcomb" format="2">
	<unicode hex="0328"/>
	<outline>
		<contour>
			<point x="107" y="-173" type="line"/>
			<point x="96" y="-176"/>
			<point x="85" y="-177"/>
			<point x="78" y="-177" type="curve" smooth="yes"/>
			<point x="44" y="-177"/>
			<point x="18" y="-158"/>
			<point x="18" y="-120" type="curve" smooth="yes"/>
			<point x="18" y="-82"/>
			<point x="44" y="-40"/>
			<point x="107" y="0" type="curve"/>
			<point x="51" y="22" type="line"/>
			<point x="-25" y="-28"/>
			<point x="-59" y="-78"/>
			<point x="-59" y="-137" type="curve" smooth="yes"/>
			<point x="-59" y="-209"/>
			<point x="-5" y="-249"/>
			<point x="66" y="-249" type="curve" smooth="yes"/>
			<point x="79" y="-249"/>
			<point x="93" y="-248"/>
			<point x="107" y="-245" type="curve"/>
		</contour>
	</outline>
	<anchor name="_ogonek.LC" x="0" y="-30"/>
</glyph>
<glyph name="Dje" format="1">
  <advance width="739"/>
  <unicode hex="0402"/>
  <outline>
    <contour>
      <point x="367" y="0" type="line"/>
      <point x="424" y="0" type="line" smooth="yes"/>
      <point x="600" y="0"/>
      <point x="692" y="77"/>
      <point x="692" y="222" type="curve" smooth="yes"/>
      <point x="692" y="361"/>
      <point x="599" y="443"/>
      <point x="439" y="443" type="curve" smooth="yes"/>
      <point x="349" y="443"/>
      <point x="270" y="420"/>
      <point x="207" y="375" type="curve"/>
      <point x="236" y="307" type="line"/>
      <point x="287" y="339"/>
      <point x="357" y="358"/>
      <point x="428" y="358" type="curve" smooth="yes"/>
      <point x="536" y="358"/>
      <point x="596" y="307"/>
      <point x="596" y="219" type="curve" smooth="yes"/>
      <point x="596" y="129"/>
      <point x="536" y="84"/>
      <point x="412" y="84" type="curve" smooth="yes"/>
      <point x="367" y="84" type="line"/>
    </contour>
    <contour>
      <point x="155" y="0" type="line"/>
      <point x="251" y="0" type="line"/>
      <point x="251" y="668" type="line"/>
      <point x="155" y="668" type="line"/>
    </contour>
    <contour>
      <point x="13" y="631" type="line"/>
      <point x="516" y="631" type="line"/>
      <point x="516" y="715" type="line"/>
      <point x="13" y="715" type="line"/>
    </contour>
  </outline>
</glyph>
<glyph name="Ieukrain" format="1">
  <advance width="743"/>
  <unicode hex="0404"/>
  <outline>
    <contour>
      <point x="418" y="-16" type="curve" smooth="yes"/>
      <point x="536" y="-16"/>
      <point x="641" y="35"/>
      <point x="705" y="119" type="curve"/>
      <point x="638" y="184" type="line"/>
      <point x="588" y="111"/>
      <point x="511" y="70"/>
      <point x="421" y="70" type="curve" smooth="yes"/>
      <point x="268" y="70"/>
      <point x="154" y="193"/>
      <point x="154" y="357" type="curve" smooth="yes"/>
      <point x="154" y="522"/>
      <point x="268" y="645"/>
      <point x="421" y="645" type="curve" smooth="yes"/>
      <point x="511" y="645"/>
      <point x="588" y="604"/>
      <point x="638" y="531" type="curve"/>
      <point x="705" y="596" type="line"/>
      <point x="641" y="681"/>
      <point x="538" y="731"/>
      <point x="421" y="731" type="curve" smooth="yes"/>
      <point x="210" y="731"/>
      <point x="53" y="571"/>
      <point x="53" y="357" type="curve" smooth="yes"/>
      <point x="53" y="142"/>
      <point x="207" y="-16"/>
    </contour>
    <contour>
      <point x="112" y="328" type="line"/>
      <point x="559" y="328" type="line"/>
      <point x="559" y="412" type="line"/>
      <point x="112" y="412" type="line"/>
    </contour>
    <contour>
      <point x="419" y="-50" type="move" name="bottom.UC"/>
    </contour>
    <contour>
      <point x="419" y="750" type="move" name="top.UC"/>
    </contour>
  </outline>
</glyph>
<glyph name="Iukrain" format="1">
  <advance width="280"/>
  <unicode hex="0406"/>
  <outline>
    <component base="I" xOffset="12"/>
    <contour>
      <point x="128" y="750" type="move" name="top.UC"/>
    </contour>
  </outline>
</glyph>
<glyph name="Lje" format="1">
  <advance width="1108"/>
  <unicode hex="0409"/>
  <outline>
    <contour>
      <point x="22" y="0" type="line"/>
      <point x="85" y="0" type="line" smooth="yes"/>
      <point x="170" y="0"/>
      <point x="211" y="38"/>
      <point x="222" y="125" type="curve" smooth="yes"/>
      <point x="289" y="656" type="line"/>
      <point x="261" y="631" type="line"/>
      <point x="566" y="631" type="line"/>
      <point x="541" y="656" type="line"/>
      <point x="541" y="0" type="line"/>
      <point x="824" y="0" type="line" smooth="yes"/>
      <point x="970" y="0"/>
      <point x="1067" y="86"/>
      <point x="1067" y="212" type="curve" smooth="yes"/>
      <point x="1067" y="341"/>
      <point x="971" y="424"/>
      <point x="824" y="424" type="curve" smooth="yes"/>
      <point x="590" y="424" type="line"/>
      <point x="590" y="340" type="line"/>
      <point x="824" y="340" type="line" smooth="yes"/>
      <point x="915" y="340"/>
      <point x="969" y="292"/>
      <point x="969" y="212" type="curve" smooth="yes"/>
      <point x="969" y="132"/>
      <point x="915" y="84"/>
      <point x="824" y="84" type="curve" smooth="yes"/>
      <point x="612" y="84" type="line"/>
      <point x="637" y="59" type="line"/>
      <point x="637" y="715" type="line"/>
      <point x="202" y="715" type="line"/>
      <point x="131" y="137" type="line" smooth="yes"/>
      <point x="126" y="100"/>
      <point x="109" y="84"/>
      <point x="73" y="84" type="curve" smooth="yes"/>
      <point x="22" y="84" type="line"/>
    </contour>
  </outline>
</glyph>
<glyph name="Nje" format="2">
	<unicode hex="040A"/>
	<advance width="1135"/>
	<outline>
		<contour>
			<point x="557" y="0" type="line"/>
			<point x="850" y="0" type="line" smooth="yes"/>
			<point x="996" y="0"/>
			<point x="1093" y="83"/>
			<point x="1093" y="207" type="curve" smooth="yes"/>
			<point x="1093" y="332"/>
			<point x="997" y="414"/>
			<point x="850" y="414" type="curve" smooth="yes"/>
			<point x="606" y="414" type="line"/>
			<point x="606" y="331" type="line"/>
			<point x="851" y="331" type="line" smooth="yes"/>
			<point x="941" y="331"/>
			<point x="995" y="284"/>
			<point x="995" y="207" type="curve" smooth="yes"/>
			<point x="995" y="130"/>
			<point x="941" y="83"/>
			<point x="851" y="83" type="curve" smooth="yes"/>
			<point x="628" y="83" type="line"/>
			<point x="653" y="58" type="line"/>
			<point x="653" y="715" type="line"/>
			<point x="557" y="715" type="line"/>
		</contour>
		<contour>
			<point x="92" y="0" type="line"/>
			<point x="188" y="0" type="line"/>
			<point x="188" y="715" type="line"/>
			<point x="92" y="715" type="line"/>
		</contour>
		<contour>
			<point x="164" y="330" type="line"/>
			<point x="591" y="330" type="line"/>
			<point x="591" y="414" type="line"/>
			<point x="164" y="414" type="line"/>
		</contour>
	</outline>
	<anchor name="bottom.UC" x="384" y="-50"/>
	<anchor name="top.UC" x="384" y="750"/>
</glyph>
<glyph name="Tshe" format="2">
	<unicode hex="040B"/>
	<advance width="746"/>
	<outline>
		<contour>
			<point x="596" y="0" type="line"/>
			<point x="692" y="0" type="line"/>
			<point x="692" y="227" type="line" smooth="yes"/>
			<point x="692" y="367"/>
			<point x="603" y="443"/>
			<point x="445" y="443" type="curve" smooth="yes"/>
			<point x="350" y="443"/>
			<point x="270" y="421"/>
			<point x="207" y="376" type="curve"/>
			<point x="236" y="308" type="line"/>
			<point x="288" y="339"/>
			<point x="359" y="358"/>
			<point x="428" y="358" type="curve" smooth="yes"/>
			<point x="536" y="358"/>
			<point x="596" y="308"/>
			<point x="596" y="216" type="curve" smooth="yes"/>
		</contour>
		<contour>
			<point x="155" y="0" type="line"/>
			<point x="251" y="0" type="line"/>
			<point x="251" y="668" type="line"/>
			<point x="155" y="668" type="line"/>
		</contour>
		<contour>
			<point x="13" y="631" type="line"/>
			<point x="516" y="631" type="line"/>
			<point x="516" y="715" type="line"/>
			<point x="13" y="715" type="line"/>
		</contour>
	</outline>
</glyph>
<glyph name="Dzhe" format="2">
	<unicode hex="040F"/>
	<advance width="763"/>
	<outline>
		<contour>
			<point x="92" y="0" type="line"/>
			<point x="671" y="0" type="line"/>
			<point x="671" y="715" type="line"/>
			<point x="575" y="715" type="line"/>
			<point x="575" y="84" type="line"/>
			<point x="188" y="84" type="line"/>
			<point x="188" y="715" type="line"/>
			<point x="92" y="715" type="line"/>
		</contour>
		<contour>
			<point x="335" y="-174" type="line"/>
			<point x="427" y="-174" type="line"/>
			<point x="427" y="50" type="line"/>
			<point x="335" y="50" type="line"/>
		</contour>
	</outline>
</glyph>
<glyph name="Be" format="2">
	<unicode hex="0411"/>
	<advance width="668"/>
	<outline>
		<contour>
			<point x="92" y="0" type="line"/>
			<point x="386" y="0" type="line" smooth="yes"/>
			<point x="532" y="0"/>
			<point x="628" y="84"/>
			<point x="628" y="208" type="curve" smooth="yes"/>
			<point x="628" y="333"/>
			<point x="533" y="415"/>
			<point x="386" y="415" type="curve" smooth="yes"/>
			<point x="141" y="415" type="line"/>
			<point x="141" y="332" type="line"/>
			<point x="386" y="332" type="line" smooth="yes"/>
			<point x="476" y="332"/>
			<point x="530" y="286"/>
			<point x="530" y="208" type="curve" smooth="yes"/>
			<point x="530" y="130"/>
			<point x="476" y="83"/>
			<point x="386" y="83" type="curve" smooth="yes"/>
			<point x="176" y="83" type="line"/>
			<point x="188" y="71" type="line"/>
			<point x="188" y="715" type="line"/>
			<point x="92" y="715" type="line"/>
		</contour>
		<contour>
			<point x="152" y="631" type="line"/>
			<point x="572" y="631" type="line"/>
			<point x="572" y="715" type="line"/>
			<point x="152" y="715" type="line"/>
		</contour>
	</outline>
</glyph>
<glyph name="Ghe" format="1">
  <advance width="556"/>
  <unicode hex="0413"/>
  <outline>
    <contour>
      <point x="92" y="0" type="line"/>
      <point x="188" y="0" type="line"/>
      <point x="188" y="693" type="line"/>
      <point x="136" y="631" type="line"/>
      <point x="545" y="631" type="line"/>
      <point x="545" y="715" type="line"/>
      <point x="92" y="715" type="line"/>
    </contour>
    <contour>
      <point x="323" y="750" type="move" name="top.UC"/>
    </contour>
  </outline>
</glyph>
<glyph name="De" format="2">
	<unicode hex="0414"/>
	<advance width="794"/>
	<outline>
		<contour>
			<point x="69" y="40" type="line"/>
			<point x="112" y="40" type="line" smooth="yes"/>
			<point x="212" y="40"/>
			<point x="245" y="105"/>
			<point x="260" y="227" type="curve" smooth="yes"/>
			<point x="316" y="696" type="line"/>
			<point x="248" y="631" type="line"/>
			<point x="636" y="631" type="line"/>
			<point x="578" y="696" type="line"/>
			<point x="578" y="45" type="line"/>
			<point x="673" y="45" type="line"/>
			<point x="673" y="715" type="line"/>
			<point x="224" y="715" type="line"/>
			<point x="169" y="239" type="line" smooth="yes"/>
			<point x="156" y="130"/>
			<point x="135" y="84"/>
			<point x="98" y="84" type="curve" smooth="yes"/>
			<point x="69" y="84" type="line"/>
		</contour>
		<contour>
			<point x="30" y="-174" type="line"/>
			<point x="122" y="-174" type="line"/>
			<point x="122" y="57" type="line"/>
			<point x="91" y="0" type="line"/>
			<point x="728" y="0" type="line"/>
			<point x="659" y="60" type="line"/>
			<point x="659" y="-174" type="line"/>
			<point x="751" y="-174" type="line"/>
			<point x="751" y="84" type="line"/>
			<point x="30" y="84" type="line"/>
		</contour>
	</outline>
</glyph>
<glyph name="Ie" format="1">
  <advance width="620"/>
  <unicode hex="0415"/>
  <outline>
    <component base="E" xOffset="12"/>
    <contour>
      <point x="321" y="750" type="move" name="top.UC"/>
    </contour>
  </outline>
</glyph>
<glyph name="Zhe" format="1">
  <advance width="1028"/>
  <unicode hex="0416"/>
  <outline>
    <contour>
      <point x="886" y="0" type="line"/>
      <point x="1012" y="0" type="line"/>
      <point x="667" y="370" type="line"/>
      <point x="991" y="715" type="line"/>
      <point x="872" y="715" type="line"/>
      <point x="552" y="371" type="line"/>
      <point x="538" y="371" type="line"/>
    </contour>
    <contour>
      <point x="16" y="0" type="line"/>
      <point x="142" y="0" type="line"/>
      <point x="490" y="371" type="line"/>
      <point x="476" y="371" type="line"/>
      <point x="156" y="715" type="line"/>
      <point x="37" y="715" type="line"/>
      <point x="361" y="370" type="line"/>
    </contour>
    <contour>
      <point x="466" y="0" type="line"/>
      <point x="562" y="0" type="line"/>
      <point x="562" y="715" type="line"/>
      <point x="466" y="715" type="line"/>
    </contour>
  </outline>
</glyph>
<glyph name="Ze" format="1">
  <advance width="644"/>
  <unicode hex="0417"/>
  <outline>
    <contour>
      <point x="311" y="-16" type="curve" smooth="yes"/>
      <point x="471" y="-16"/>
      <point x="594" y="79"/>
      <point x="594" y="204" type="curve" smooth="yes"/>
      <point x="594" y="285"/>
      <point x="544" y="349"/>
      <point x="457" y="378" type="curve"/>
      <point x="531" y="407"/>
      <point x="574" y="465"/>
      <point x="574" y="538" type="curve" smooth="yes"/>
      <point x="574" y="649"/>
      <point x="464" y="731"/>
      <point x="314" y="731" type="curve" smooth="yes"/>
      <point x="198" y="731"/>
      <point x="114" y="689"/>
      <point x="40" y="595" type="curve"/>
      <point x="105" y="534" type="line"/>
      <point x="167" y="615"/>
      <point x="224" y="645"/>
      <point x="312" y="645" type="curve" smooth="yes"/>
      <point x="410" y="645"/>
      <point x="476" y="598"/>
      <point x="476" y="529" type="curve" smooth="yes"/>
      <point x="476" y="460"/>
      <point x="416" y="413"/>
      <point x="327" y="413" type="curve" smooth="yes"/>
      <point x="179" y="413" type="line"/>
      <point x="179" y="330" type="line"/>
      <point x="327" y="330" type="line" smooth="yes"/>
      <point x="431" y="330"/>
      <point x="496" y="282"/>
      <point x="496" y="207" type="curve" smooth="yes"/>
      <point x="496" y="128"/>
      <point x="419" y="70"/>
      <point x="313" y="70" type="curve" smooth="yes"/>
      <point x="221" y="70"/>
      <point x="143" y="109"/>
      <point x="88" y="183" type="curve"/>
      <point x="23" y="119" type="line"/>
      <point x="91" y="33"/>
      <point x="194" y="-16"/>
    </contour>
  </outline>
</glyph>
<glyph name="Icyr" format="2">
	<unicode hex="0418"/>
	<advance width="770"/>
	<outline>
		<contour>
			<point x="92" y="0" type="line"/>
			<point x="194" y="0" type="line"/>
			<point x="638" y="659" type="line"/>
			<point x="582" y="659" type="line"/>
			<point x="582" y="0" type="line"/>
			<point x="678" y="0" type="line"/>
			<point x="678" y="715" type="line"/>
			<point x="574" y="715" type="line"/>
			<point x="128" y="53" type="line"/>
			<point x="188" y="53" type="line"/>
			<point x="188" y="715" type="line"/>
			<point x="92" y="715" type="line"/>
		</contour>
	</outline>
	<anchor name="top.UC" x="383" y="750"/>
</glyph>
<glyph name="El" format="2">
	<unicode hex="041B"/>
	<advance width="738"/>
	<outline>
		<contour>
			<point x="22" y="0" type="line"/>
			<point x="85" y="0" type="line" smooth="yes"/>
			<point x="170" y="0"/>
			<point x="211" y="38"/>
			<point x="222" y="125" type="curve" smooth="yes"/>
			<point x="294" y="696" type="line"/>
			<point x="229" y="631" type="line"/>
			<point x="609" y="631" type="line"/>
			<point x="550" y="696" type="line"/>
			<point x="550" y="0" type="line"/>
			<point x="646" y="0" type="line"/>
			<point x="646" y="715" type="line"/>
			<point x="202" y="715" type="line"/>
			<point x="131" y="137" type="line" smooth="yes"/>
			<point x="126" y="100"/>
			<point x="109" y="84"/>
			<point x="73" y="84" type="curve" smooth="yes"/>
			<point x="22" y="84" type="line"/>
		</contour>
	</outline>
</glyph>
<glyph name="Pe" format="1">
  <advance width="765"/>
  <unicode hex="041F"/>
  <outline>
    <contour>
      <point x="92" y="0" type="line"/>
      <point x="188" y="0" type="line"/>
      <point x="188" y="693" type="line"/>
      <point x="136" y="631" type="line"/>
      <point x="627" y="631" type="line"/>
      <point x="577" y="693" type="line"/>
      <point x="577" y="0" type="line"/>
      <point x="673" y="0" type="line"/>
      <point x="673" y="715" type="line"/>
      <point x="92" y="715" type="line"/>
    </contour>
  </outline>
</glyph>
<glyph name="Ucyr" format="2">
	<unicode hex="0423"/>
	<advance width="669"/>
	<outline>
		<contour>
			<point x="77" y="0" type="line"/>
			<point x="164" y="0" type="line" smooth="yes"/>
			<point x="266" y="0"/>
			<point x="314" y="37"/>
			<point x="369" y="148" type="curve" smooth="yes"/>
			<point x="651" y="715" type="line"/>
			<point x="551" y="715" type="line"/>
			<point x="297" y="190" type="line" smooth="yes"/>
			<point x="258" y="108"/>
			<point x="228" y="82"/>
			<point x="162" y="82" type="curve" smooth="yes"/>
			<point x="77" y="82" type="line"/>
		</contour>
		<contour>
			<point x="302" y="161" type="line"/>
			<point x="376" y="204" type="line"/>
			<point x="118" y="715" type="line"/>
			<point x="18" y="715" type="line"/>
		</contour>
	</outline>
	<anchor name="top.UC" x="335" y="750"/>
</glyph>
<glyph name="Ef" format="1">
  <advance width="874"/>
  <unicode hex="0424"/>
  <outline>
    <contour>
      <point x="437" y="73" type="curve" smooth="yes"/>
      <point x="688" y="73"/>
      <point x="820" y="171"/>
      <point x="820" y="358" type="curve" smooth="yes"/>
      <point x="820" y="544"/>
      <point x="689" y="642"/>
      <point x="437" y="642" type="curve" smooth="yes"/>
      <point x="186" y="642"/>
      <point x="53" y="544"/>
      <point x="53" y="358" type="curve" smooth="yes"/>
      <point x="53" y="171"/>
      <point x="185" y="73"/>
    </contour>
    <contour>
      <point x="437" y="157" type="curve" smooth="yes"/>
      <point x="246" y="157"/>
      <point x="151" y="224"/>
      <point x="151" y="358" type="curve" smooth="yes"/>
      <point x="151" y="494"/>
      <point x="244" y="558"/>
      <point x="437" y="558" type="curve" smooth="yes"/>
      <point x="629" y="558"/>
      <point x="723" y="494"/>
      <point x="723" y="358" type="curve" smooth="yes"/>
      <point x="723" y="221"/>
      <point x="629" y="157"/>
    </contour>
    <contour>
      <point x="389" y="-31" type="line"/>
      <point x="485" y="-31" type="line"/>
      <point x="485" y="96" type="line"/>
      <point x="481" y="140" type="line"/>
      <point x="481" y="577" type="line"/>
      <point x="485" y="616" type="line"/>
      <point x="485" y="746" type="line"/>
      <point x="389" y="746" type="line"/>
      <point x="389" y="616" type="line"/>
      <point x="392" y="577" type="line"/>
      <point x="392" y="140" type="line"/>
      <point x="389" y="96" type="line"/>
    </contour>
  </outline>
</glyph>
<glyph name="Tse" format="2">
	<unicode hex="0426"/>
	<advance width="792"/>
	<outline>
		<contour>
			<point x="92" y="0" type="line"/>
			<point x="671" y="0" type="line"/>
			<point x="671" y="715" type="line"/>
			<point x="575" y="715" type="line"/>
			<point x="575" y="22" type="line"/>
			<point x="625" y="84" type="line"/>
			<point x="136" y="84" type="line"/>
			<point x="188" y="22" type="line"/>
			<point x="188" y="715" type="line"/>
			<point x="92" y="715" type="line"/>
		</contour>
		<contour>
			<point x="657" y="-174" type="line"/>
			<point x="749" y="-174" type="line"/>
			<point x="749" y="84" type="line"/>
			<point x="657" y="84" type="line"/>
		</contour>
	</outline>
</glyph>
<glyph name="Che" format="2">
	<unicode hex="0427"/>
	<advance width="683"/>
	<outline>
		<contour>
			<point x="303" y="263" type="curve" smooth="yes"/>
			<point x="397" y="263"/>
			<point x="480" y="292"/>
			<point x="539" y="348" type="curve"/>
			<point x="506" y="411" type="line"/>
			<point x="461" y="373"/>
			<point x="387" y="348"/>
			<point x="315" y="348" type="curve" smooth="yes"/>
			<point x="209" y="348"/>
			<point x="149" y="400"/>
			<point x="149" y="496" type="curve" smooth="yes"/>
			<point x="149" y="715" type="line"/>
			<point x="53" y="715" type="line"/>
			<point x="53" y="485" type="line" smooth="yes"/>
			<point x="53" y="344"/>
			<point x="144" y="263"/>
		</contour>
		<contour>
			<point x="495" y="0" type="line"/>
			<point x="591" y="0" type="line"/>
			<point x="591" y="715" type="line"/>
			<point x="495" y="715" type="line"/>
		</contour>
	</outline>
</glyph>
<glyph name="Sha" format="1">
  <advance width="1122"/>
  <unicode hex="0428"/>
  <outline>
    <contour>
      <point x="92" y="0" type="line"/>
      <point x="1030" y="0" type="line"/>
      <point x="1030" y="715" type="line"/>
      <point x="934" y="715" type="line"/>
      <point x="934" y="20" type="line"/>
      <point x="988" y="84" type="line"/>
      <point x="571" y="84" type="line"/>
      <point x="609" y="20" type="line"/>
      <point x="609" y="715" type="line"/>
      <point x="513" y="715" type="line"/>
      <point x="513" y="20" type="line"/>
      <point x="551" y="84" type="line"/>
      <point x="134" y="84" type="line"/>
      <point x="188" y="20" type="line"/>
      <point x="188" y="715" type="line"/>
      <point x="92" y="715" type="line"/>
    </contour>
  </outline>
</glyph>
<glyph name="Shcha" format="1">
  <advance width="1150"/>
  <unicode hex="0429"/>
  <outline>
    <contour>
      <point x="92" y="0" type="line"/>
      <point x="1030" y="0" type="line"/>
      <point x="1030" y="715" type="line"/>
      <point x="934" y="715" type="line"/>
      <point x="934" y="52" type="line"/>
      <point x="964" y="84" type="line"/>
      <point x="587" y="84" type="line"/>
      <point x="609" y="52" type="line"/>
      <point x="609" y="715" type="line"/>
      <point x="513" y="715" type="line"/>
      <point x="513" y="52" type="line"/>
      <point x="535" y="84" type="line"/>
      <point x="158" y="84" type="line"/>
      <point x="188" y="52" type="line"/>
      <point x="188" y="715" type="line"/>
      <point x="92" y="715" type="line"/>
    </contour>
    <contour>
      <point x="1015" y="-174" type="line"/>
      <point x="1107" y="-174" type="line"/>
      <point x="1107" y="84" type="line"/>
      <point x="1015" y="84" type="line"/>
    </contour>
  </outline>
</glyph>
<glyph name="Hard" format="1">
  <advance width="733"/>
  <unicode hex="042A"/>
  <outline>
    <contour>
      <point x="155" y="0" type="line"/>
      <point x="449" y="0" type="line" smooth="yes"/>
      <point x="595" y="0"/>
      <point x="692" y="86"/>
      <point x="692" y="212" type="curve" smooth="yes"/>
      <point x="692" y="341"/>
      <point x="596" y="424"/>
      <point x="449" y="424" type="curve" smooth="yes"/>
      <point x="217" y="424" type="line"/>
      <point x="217" y="340" type="line"/>
      <point x="449" y="340" type="line" smooth="yes"/>
      <point x="539" y="340"/>
      <point x="594" y="292"/>
      <point x="594" y="212" type="curve" smooth="yes"/>
      <point x="594" y="132"/>
      <point x="539" y="84"/>
      <point x="449" y="84" type="curve" smooth="yes"/>
      <point x="239" y="84" type="line"/>
      <point x="251" y="72" type="line"/>
      <point x="251" y="715" type="line"/>
      <point x="13" y="715" type="line"/>
      <point x="13" y="631" type="line"/>
      <point x="167" y="631" type="line"/>
      <point x="155" y="643" type="line"/>
    </contour>
  </outline>
</glyph>
<glyph name="Soft" format="2">
	<unicode hex="042C"/>
	<advance width="670"/>
	<outline>
		<contour>
			<point x="92" y="0" type="line"/>
			<point x="386" y="0" type="line" smooth="yes"/>
			<point x="532" y="0"/>
			<point x="628" y="86"/>
			<point x="628" y="212" type="curve" smooth="yes"/>
			<point x="628" y="341"/>
			<point x="533" y="424"/>
			<point x="386" y="424" type="curve" smooth="yes"/>
			<point x="141" y="424" type="line"/>
			<point x="141" y="340" type="line"/>
			<point x="386" y="340" type="line" smooth="yes"/>
			<point x="476" y="340"/>
			<point x="530" y="292"/>
			<point x="530" y="212" type="curve" smooth="yes"/>
			<point x="530" y="132"/>
			<point x="476" y="84"/>
			<point x="386" y="84" type="curve" smooth="yes"/>
			<point x="176" y="84" type="line"/>
			<point x="188" y="71" type="line"/>
			<point x="188" y="715" type="line"/>
			<point x="92" y="715" type="line"/>
		</contour>
	</outline>
</glyph>
<glyph name="Ecyr" format="2">
	<unicode hex="042D"/>
	<advance width="741"/>
	<outline>
		<contour>
			<point x="333" y="-16" type="curve" smooth="yes"/>
			<point x="545" y="-16"/>
			<point x="688" y="137"/>
			<point x="688" y="357" type="curve" smooth="yes"/>
			<point x="688" y="577"/>
			<point x="537" y="731"/>
			<point x="330" y="731" type="curve" smooth="yes"/>
			<point x="208" y="731"/>
			<point x="105" y="679"/>
			<point x="38" y="596" type="curve"/>
			<point x="103" y="533" type="line"/>
			<point x="159" y="600"/>
			<point x="234" y="645"/>
			<point x="329" y="645" type="curve" smooth="yes"/>
			<point x="482" y="645"/>
			<point x="589" y="528"/>
			<point x="589" y="357" type="curve" smooth="yes"/>
			<point x="589" y="186"/>
			<point x="486" y="70"/>
			<point x="330" y="70" type="curve" smooth="yes"/>
			<point x="233" y="70"/>
			<point x="151" y="114"/>
			<point x="99" y="180" type="curve"/>
			<point x="36" y="119" type="line"/>
			<point x="99" y="36"/>
			<point x="210" y="-16"/>
		</contour>
		<contour>
			<point x="190" y="328" type="line"/>
			<point x="635" y="328" type="line"/>
			<point x="635" y="412" type="line"/>
			<point x="190" y="412" type="line"/>
		</contour>
	</outline>
</glyph>
<glyph name="Yu" format="1">
  <advance width="1085"/>
  <unicode hex="042E"/>
  <outline>
    <contour>
      <point x="673" y="-16" type="curve" smooth="yes"/>
      <point x="880" y="-16"/>
      <point x="1032" y="143"/>
      <point x="1032" y="358" type="curve" smooth="yes"/>
      <point x="1032" y="572"/>
      <point x="880" y="731"/>
      <point x="673" y="731" type="curve" smooth="yes"/>
      <point x="467" y="731"/>
      <point x="314" y="572"/>
      <point x="314" y="358" type="curve" smooth="yes"/>
      <point x="314" y="143"/>
      <point x="467" y="-16"/>
    </contour>
    <contour>
      <point x="92" y="0" type="line"/>
      <point x="188" y="0" type="line"/>
      <point x="188" y="715" type="line"/>
      <point x="92" y="715" type="line"/>
    </contour>
    <contour>
      <point x="164" y="328" type="line"/>
      <point x="374" y="328" type="line"/>
      <point x="374" y="412" type="line"/>
      <point x="164" y="412" type="line"/>
    </contour>
    <contour>
      <point x="673" y="70" type="curve" smooth="yes"/>
      <point x="521" y="70"/>
      <point x="414" y="189"/>
      <point x="414" y="358" type="curve" smooth="yes"/>
      <point x="414" y="526"/>
      <point x="521" y="645"/>
      <point x="673" y="645" type="curve" smooth="yes"/>
      <point x="826" y="645"/>
      <point x="932" y="526"/>
      <point x="932" y="358" type="curve" smooth="yes"/>
      <point x="932" y="189"/>
      <point x="826" y="70"/>
    </contour>
  </outline>
</glyph>
<glyph name="Ya" format="1">
  <advance width="691"/>
  <unicode hex="042F"/>
  <outline>
    <contour>
      <point x="503" y="0" type="line"/>
      <point x="599" y="0" type="line"/>
      <point x="599" y="715" type="line"/>
      <point x="317" y="715" type="line" smooth="yes"/>
      <point x="173" y="715"/>
      <point x="75" y="632"/>
      <point x="75" y="509" type="curve" smooth="yes"/>
      <point x="75" y="386"/>
      <point x="173" y="303"/>
      <point x="317" y="303" type="curve" smooth="yes"/>
      <point x="513" y="303" type="line"/>
      <point x="513" y="386" type="line"/>
      <point x="317" y="386" type="line" smooth="yes"/>
      <point x="228" y="386"/>
      <point x="173" y="432"/>
      <point x="173" y="509" type="curve" smooth="yes"/>
      <point x="173" y="586"/>
      <point x="228" y="632"/>
      <point x="317" y="632" type="curve" smooth="yes"/>
      <point x="503" y="632" type="line"/>
    </contour>
    <contour>
      <point x="31" y="0" type="line"/>
      <point x="146" y="0" type="line"/>
      <point x="380" y="333" type="line"/>
      <point x="273" y="333" type="line"/>
    </contour>
  </outline>
</glyph>
<glyph name="be" format="1">
  <advance width="600"/>
  <unicode hex="0431"/>
  <outline>
    <contour>
      <point x="304" y="-16" type="curve" smooth="yes"/>
      <point x="457" y="-16"/>
      <point x="555" y="84"/>
      <point x="555" y="240" type="curve" smooth="yes"/>
      <point x="555" y="377"/>
      <point x="473" y="480"/>
      <point x="330" y="480" type="curve" smooth="yes"/>
      <point x="225" y="480"/>
      <point x="130" y="416"/>
      <point x="115" y="310" type="curve"/>
      <point x="130" y="340" type="line"/>
      <point x="136" y="520"/>
      <point x="175" y="585"/>
      <point x="290" y="604" type="curve" smooth="yes"/>
      <point x="508" y="640" type="line"/>
      <point x="494" y="719" type="line"/>
      <point x="275" y="685" type="line" smooth="yes"/>
      <point x="115" y="660"/>
      <point x="45" y="555"/>
      <point x="45" y="335" type="curve" smooth="yes"/>
      <point x="45" y="108"/>
      <point x="136" y="-16"/>
    </contour>
    <contour>
      <point x="301" y="64" type="curve" smooth="yes"/>
      <point x="190" y="64"/>
      <point x="139" y="141"/>
      <point x="143" y="302" type="curve"/>
      <point x="139" y="244" type="line"/>
      <point x="157" y="338"/>
      <point x="226" y="402"/>
      <point x="310" y="402" type="curve" smooth="yes"/>
      <point x="404" y="402"/>
      <point x="459" y="341"/>
      <point x="459" y="237" type="curve" smooth="yes"/>
      <point x="459" y="130"/>
      <point x="399" y="64"/>
    </contour>
  </outline>
</glyph>
<glyph name="ve" format="2">
	<unicode hex="0432"/>
	<advance width="552"/>
	<outline>
		<contour>
			<point x="76" y="0" type="line"/>
			<point x="335" y="0" type="line" smooth="yes"/>
			<point x="438" y="0"/>
			<point x="521" y="60"/>
			<point x="521" y="144" type="curve" smooth="yes"/>
			<point x="521" y="204"/>
			<point x="477" y="246"/>
			<point x="414" y="264" type="curve"/>
			<point x="415" y="255" type="line"/>
			<point x="466" y="275"/>
			<point x="498" y="313"/>
			<point x="498" y="364" type="curve" smooth="yes"/>
			<point x="498" y="443"/>
			<point x="432" y="496"/>
			<point x="329" y="496" type="curve" smooth="yes"/>
			<point x="76" y="496" type="line"/>
		</contour>
		<contour>
			<point x="165" y="22" type="line"/>
			<point x="165" y="475" type="line"/>
			<point x="112" y="422" type="line"/>
			<point x="323" y="422" type="line" smooth="yes"/>
			<point x="381" y="422"/>
			<point x="403" y="402"/>
			<point x="403" y="360" type="curve" smooth="yes"/>
			<point x="403" y="318"/>
			<point x="381" y="292"/>
			<point x="323" y="292" type="curve" smooth="yes"/>
			<point x="124" y="292" type="line"/>
			<point x="124" y="222" type="line"/>
			<point x="328" y="222" type="line" smooth="yes"/>
			<point x="390" y="222"/>
			<point x="426" y="195"/>
			<point x="426" y="148" type="curve" smooth="yes"/>
			<point x="426" y="100"/>
			<point x="390" y="73"/>
			<point x="328" y="73" type="curve" smooth="yes"/>
			<point x="113" y="73" type="line"/>
		</contour>
	</outline>
</glyph>
<glyph name="ghe" format="2">
	<unicode hex="0433"/>
	<advance width="457"/>
	<outline>
		<contour>
			<point x="76" y="0" type="line"/>
			<point x="169" y="0" type="line"/>
			<point x="169" y="477" type="line"/>
			<point x="94" y="418" type="line"/>
			<point x="428" y="418" type="line"/>
			<point x="428" y="496" type="line"/>
			<point x="76" y="496" type="line"/>
		</contour>
	</outline>
	<anchor name="top.LC" x="253" y="544"/>
</glyph>
<glyph name="de" format="1">
  <advance width="618"/>
  <unicode hex="0434"/>
  <outline>
    <contour>
      <point x="43" y="34" type="line"/>
      <point x="80" y="34" type="line" smooth="yes"/>
      <point x="169" y="34"/>
      <point x="198" y="68"/>
      <point x="210" y="170" type="curve" smooth="yes"/>
      <point x="248" y="479" type="line"/>
      <point x="174" y="418" type="line"/>
      <point x="489" y="418" type="line"/>
      <point x="424" y="479" type="line"/>
      <point x="424" y="46" type="line"/>
      <point x="516" y="46" type="line"/>
      <point x="516" y="496" type="line"/>
      <point x="159" y="496" type="line"/>
      <point x="123" y="177" type="line" smooth="yes"/>
      <point x="114" y="100"/>
      <point x="102" y="77"/>
      <point x="61" y="77" type="curve" smooth="yes"/>
      <point x="43" y="77" type="line"/>
    </contour>
    <contour>
      <point x="21" y="-131" type="line"/>
      <point x="109" y="-131" type="line"/>
      <point x="109" y="59" type="line"/>
      <point x="74" y="0" type="line"/>
      <point x="560" y="0" type="line"/>
      <point x="502" y="59" type="line"/>
      <point x="502" y="-131" type="line"/>
      <point x="590" y="-131" type="line"/>
      <point x="590" y="77" type="line"/>
      <point x="21" y="77" type="line"/>
    </contour>
  </outline>
</glyph>
<glyph name="ze" format="1">
  <advance width="495"/>
  <unicode hex="0437"/>
  <outline>
    <contour>
      <point x="238" y="-17" type="curve" smooth="yes"/>
      <point x="367" y="-17"/>
      <point x="464" y="51"/>
      <point x="464" y="142" type="curve" smooth="yes"/>
      <point x="464" y="203"/>
      <point x="424" y="247"/>
      <point x="353" y="265" type="curve"/>
      <point x="354" y="257" type="line"/>
      <point x="414" y="274"/>
      <point x="448" y="315"/>
      <point x="448" y="369" type="curve" smooth="yes"/>
      <point x="448" y="451"/>
      <point x="359" y="512"/>
      <point x="237" y="512" type="curve" smooth="yes"/>
      <point x="153" y="512"/>
      <point x="82" y="483"/>
      <point x="28" y="426" type="curve"/>
      <point x="83" y="366" type="line"/>
      <point x="126" y="412"/>
      <point x="174" y="434"/>
      <point x="236" y="434" type="curve" smooth="yes"/>
      <point x="309" y="434"/>
      <point x="356" y="405"/>
      <point x="356" y="358" type="curve" smooth="yes"/>
      <point x="356" y="314"/>
      <point x="318" y="290"/>
      <point x="250" y="290" type="curve" smooth="yes"/>
      <point x="148" y="290" type="line"/>
      <point x="148" y="220" type="line"/>
      <point x="249" y="220" type="line" smooth="yes"/>
      <point x="331" y="220"/>
      <point x="371" y="196"/>
      <point x="371" y="148" type="curve" smooth="yes"/>
      <point x="371" y="96"/>
      <point x="319" y="62"/>
      <point x="236" y="62" type="curve" smooth="yes"/>
      <point x="170" y="62"/>
      <point x="115" y="84"/>
      <point x="71" y="129" type="curve"/>
      <point x="16" y="71" type="line"/>
      <point x="69" y="13"/>
      <point x="155" y="-17"/>
    </contour>
  </outline>
</glyph>
<glyph name="icyr" format="2">
	<unicode hex="0438"/>
	<advance width="615"/>
	<outline>
		<contour>
			<point x="76" y="0" type="line"/>
			<point x="157" y="0" type="line"/>
			<point x="455" y="371" type="line"/>
			<point x="447" y="374" type="line"/>
			<point x="447" y="0" type="line"/>
			<point x="538" y="0" type="line"/>
			<point x="538" y="496" type="line"/>
			<point x="457" y="496" type="line"/>
			<point x="160" y="124" type="line"/>
			<point x="167" y="122" type="line"/>
			<point x="167" y="496" type="line"/>
			<point x="76" y="496" type="line"/>
		</contour>
	</outline>
	<anchor name="top.LC" x="313" y="544"/>
</glyph>
<glyph name="ka" format="2">
	<unicode hex="043A"/>
	<advance width="553"/>
	<outline>
		<contour>
			<point x="413" y="0" type="line"/>
			<point x="540" y="0" type="line"/>
			<point x="231" y="289" type="line"/>
			<point x="250" y="237" type="line"/>
			<point x="516" y="496" type="line"/>
			<point x="397" y="496" type="line"/>
			<point x="152" y="257" type="line"/>
			<point x="142" y="257" type="line"/>
		</contour>
		<contour>
			<point x="76" y="0" type="line"/>
			<point x="169" y="0" type="line"/>
			<point x="169" y="496" type="line"/>
			<point x="76" y="496" type="line"/>
		</contour>
	</outline>
	<anchor name="top.LC" x="292" y="544"/>
</glyph>
<glyph name="el" format="2">
	<unicode hex="043B"/>
	<advance width="587"/>
	<outline>
		<contour>
			<point x="19" y="0" type="line"/>
			<point x="72" y="0" type="line" smooth="yes"/>
			<point x="155" y="0"/>
			<point x="193" y="32"/>
			<point x="202" y="125" type="curve" smooth="yes"/>
			<point x="236" y="479" type="line"/>
			<point x="164" y="418" type="line"/>
			<point x="484" y="418" type="line"/>
			<point x="418" y="479" type="line"/>
			<point x="418" y="0" type="line"/>
			<point x="511" y="0" type="line"/>
			<point x="511" y="496" type="line"/>
			<point x="146" y="496" type="line"/>
			<point x="115" y="141" type="line" smooth="yes"/>
			<point x="111" y="94"/>
			<point x="94" y="78"/>
			<point x="57" y="78" type="curve" smooth="yes"/>
			<point x="19" y="78" type="line"/>
		</contour>
	</outline>
</glyph>
<glyph name="em" format="2">
	<unicode hex="043C"/>
	<advance width="734"/>
	<outline>
		<contour>
			<point x="76" y="0" type="line"/>
			<point x="161" y="0" type="line"/>
			<point x="161" y="463" type="line"/>
			<point x="114" y="452" type="line"/>
			<point x="328" y="47" type="line"/>
			<point x="398" y="47" type="line"/>
			<point x="613" y="452" type="line"/>
			<point x="570" y="464" type="line"/>
			<point x="570" y="0" type="line"/>
			<point x="657" y="0" type="line"/>
			<point x="657" y="496" type="line"/>
			<point x="551" y="496" type="line"/>
			<point x="357" y="130" type="line"/>
			<point x="374" y="130" type="line"/>
			<point x="179" y="496" type="line"/>
			<point x="76" y="496" type="line"/>
		</contour>
	</outline>
</glyph>
<glyph name="en" format="1">
  <advance width="618"/>
  <unicode hex="043D"/>
  <outline>
    <contour>
      <point x="449" y="0" type="line"/>
      <point x="542" y="0" type="line"/>
      <point x="542" y="496" type="line"/>
      <point x="449" y="496" type="line"/>
    </contour>
    <contour>
      <point x="76" y="0" type="line"/>
      <point x="169" y="0" type="line"/>
      <point x="169" y="496" type="line"/>
      <point x="76" y="496" type="line"/>
    </contour>
    <contour>
      <point x="121" y="222" type="line"/>
      <point x="501" y="222" type="line"/>
      <point x="501" y="299" type="line"/>
      <point x="121" y="299" type="line"/>
    </contour>
  </outline>
</glyph>
<glyph name="pe" format="2">
	<unicode hex="043F"/>
	<advance width="601"/>
	<outline>
		<contour>
			<point x="76" y="0" type="line"/>
			<point x="169" y="0" type="line"/>
			<point x="169" y="479" type="line"/>
			<point x="95" y="418" type="line"/>
			<point x="497" y="418" type="line"/>
			<point x="431" y="479" type="line"/>
			<point x="431" y="0" type="line"/>
			<point x="524" y="0" type="line"/>
			<point x="524" y="496" type="line"/>
			<point x="76" y="496" type="line"/>
		</contour>
	</outline>
</glyph>
<glyph name="te" format="1">
  <advance width="498"/>
  <unicode hex="0442"/>
  <outline>
    <contour>
      <point x="203" y="0" type="line"/>
      <point x="296" y="0" type="line"/>
      <point x="296" y="467" type="line"/>
      <point x="203" y="467" type="line"/>
    </contour>
    <contour>
      <point x="24" y="418" type="line"/>
      <point x="474" y="418" type="line"/>
      <point x="474" y="496" type="line"/>
      <point x="24" y="496" type="line"/>
    </contour>
  </outline>
</glyph>
